<svg width="210" height="286" viewBox="0 0 210 286" fill="none" xmlns="http://www.w3.org/2000/svg">
<path d="M36.6166 88.1249C42.4485 86.6965 46.9454 88.6849 48.2682 93.952C48.4244 94.5739 48.0443 95.204 47.4192 95.3594C46.7941 95.5148 46.1607 95.1366 46.0045 94.5147C45.0287 90.6292 41.8646 89.2302 37.1744 90.3789C32.4522 91.5356 27.0335 95.1558 22.7808 100.126L21.5895 101.534C17.2635 106.607 10.3489 114.202 2.08951 123.042C1.65084 123.511 0.912664 123.538 0.440735 123.102C-0.0311946 122.665 -0.0581693 121.931 0.380495 121.461L2.99242 118.659C10.5571 110.522 16.7808 103.639 20.568 99.1379L20.7493 98.9219C25.3382 93.4469 31.2892 89.4298 36.6166 88.1249Z" fill="white"/>
<path d="M35.7775 104.629C36.3757 104.391 37.0546 104.681 37.2939 105.276C37.5332 105.871 37.2423 106.546 36.644 106.784C34.6968 107.559 32.8193 107.559 31.1718 107.091C30.7447 106.97 30.4255 106.843 30.2291 106.745C29.6528 106.458 29.4193 105.761 29.7074 105.188C29.9818 104.642 30.6305 104.405 31.1895 104.631L31.3485 104.703C31.4449 104.743 31.6024 104.799 31.8128 104.859C32.9964 105.196 34.3544 105.196 35.7775 104.629Z" fill="white"/>
<path d="M52.7986 90.0825C57.0413 89.1227 60.5699 90.8775 62.7649 95.5536C63.0376 96.1344 62.7853 96.8251 62.2015 97.0964C61.6178 97.3676 60.9235 97.1167 60.6509 96.5359C58.9171 92.8425 56.4797 91.6303 53.316 92.346C50.6152 92.957 47.4889 94.9856 44.5708 97.8274L44.3212 98.073C42.0947 100.286 39.8696 102.342 37.7347 104.2L37.2029 104.661C36.488 105.277 35.8293 105.831 35.237 106.318L34.6379 106.806L34.202 107.154C33.6954 107.55 32.962 107.462 32.5639 106.958C32.1856 106.479 32.2461 105.797 32.6874 105.39L32.7838 105.31L33.1691 105.002L33.5369 104.703C34.1693 104.187 34.8869 103.585 35.6757 102.906C37.758 101.112 39.9378 99.1199 42.1252 96.9711L42.6722 96.4307C45.9436 93.1796 49.5141 90.8255 52.7986 90.0825Z" fill="white"/>
<path d="M59.2044 96.3071C64.6149 92.4623 72.3352 92.8887 75.4678 98.4985C75.7807 99.0589 75.5778 99.7655 75.0145 100.077C74.4513 100.388 73.7411 100.186 73.4282 99.6259C71.0739 95.4099 64.9568 95.072 60.56 98.1965L60.1366 98.5001C58.912 99.387 57.4754 100.5 55.7854 101.861L54.8743 102.599L53.5036 103.724C51.766 105.161 47.9686 108.313 47.1075 108.998C44.8453 110.799 42.6823 111.315 40.9585 111.087L40.8065 111.064C40.7381 111.052 40.6811 111.04 40.6359 111.029C40.0108 110.873 39.6308 110.243 39.7871 109.621C39.9362 109.028 40.5201 108.656 41.1166 108.759L41.2018 108.777C41.194 108.775 41.2164 108.779 41.2668 108.786C41.6434 108.836 42.1514 108.817 42.7625 108.671C43.682 108.452 44.6518 107.98 45.6499 107.186L46.3316 106.633C48.0824 105.2 51.9921 101.951 52.7658 101.317L53.7038 100.553C55.9014 98.7699 57.7044 97.3716 59.2044 96.3071Z" fill="white"/>
<path d="M91.5148 93.4938L98.9516 94.7591C99.4605 94.8432 99.8697 94.9091 100.115 94.9456L100.645 95.0193C102.201 95.2245 103.162 95.2452 104.086 95.1046C104.378 95.0602 104.679 94.9977 105.004 94.9134L105.501 94.7754C105.621 94.7401 105.743 94.7027 105.9 94.6531L107.339 94.1894C107.895 94.0133 108.289 93.8987 108.721 93.7897C111.795 93.0157 114.179 93.459 116.114 95.8018C119.703 100.137 117.077 106.968 110.452 109.743C108.59 110.525 106.579 110.919 104.341 111.008C102.523 111.08 100.931 110.98 98.2375 110.681L96.0614 110.437C93.8981 110.205 92.9842 110.164 91.903 110.247C87.4728 110.589 78.4444 117.798 69.3308 128.771L68.8865 129.311C64.8855 134.213 62.8505 137.906 62.5933 140.195C62.4427 141.535 62.8818 142.01 64.1041 142.009L64.2209 142.008C67.4086 141.928 69.0957 139.966 73.116 130.994C75.2729 126.178 78.3318 123.18 81.6962 122.401C84.9682 121.643 88.0746 123.128 89.7852 126.182C93.0135 131.935 89.3533 142.377 81.7303 149.761L81.0242 150.441C74.0257 157.128 71.2006 158.289 62.0313 158.499L61.7267 158.506C58.8596 158.564 56.6158 158.479 53.4247 158.245L49.9941 157.993C49.1383 157.938 48.6942 157.924 47.9705 157.912C45.8767 157.876 44.0269 158.037 41.9694 158.474C38.4866 159.212 36.5269 160.227 34.5185 162.294C33.9587 162.87 33.0355 162.886 32.4564 162.329C31.8774 161.772 31.8618 160.853 32.4216 160.277C34.853 157.775 37.3349 156.489 41.3612 155.636C43.4918 155.184 45.4365 154.997 47.5618 155.005L48.4522 155.019C49.2125 155.036 49.7731 155.065 51.1392 155.164L54.072 155.382C56.9508 155.586 59.0369 155.658 61.6669 155.605L62.2413 155.592C70.6192 155.383 72.7137 154.422 79.4662 147.904L79.6956 147.682C86.4818 141.108 89.6881 131.962 87.238 127.596C84.7909 123.226 79.344 124.438 75.8843 131.946L75.2506 133.344C71.1379 142.323 68.8327 144.795 64.2921 144.908C61.2809 144.979 59.3347 143.077 59.6948 139.872C60.0337 136.856 62.3723 132.644 66.841 127.215L67.0824 126.923C76.6838 115.362 86.1821 107.778 91.6774 107.354L92.0175 107.331C93.247 107.258 94.3297 107.327 96.7544 107.594L98.8226 107.826C101.216 108.087 102.649 108.171 104.225 108.109C106.133 108.033 107.804 107.706 109.319 107.069C114.293 104.986 116.083 100.328 113.862 97.6454C112.756 96.3068 111.523 96.0774 109.437 96.6026L109.105 96.6902C108.918 96.7418 108.722 96.7995 108.494 96.8697L106.601 97.4757C106.403 97.5369 106.246 97.5826 106.046 97.6387C105.511 97.789 105.017 97.8984 104.527 97.973C103.239 98.1688 101.976 98.132 100.036 97.8653L99.6178 97.8053C98.0194 97.5626 91.4579 96.4252 91.3544 96.4078C83.7626 95.1299 77.5369 97.5493 72.0699 102.885L56.0606 118.81C54.5383 120.325 52.9032 120.567 51.5878 119.862C51.3145 119.716 51.1087 119.557 50.965 119.414C50.3955 118.847 50.3955 117.928 50.965 117.362C51.5345 116.795 52.4579 116.795 53.0274 117.362L52.9706 117.307C53.0095 117.328 53.053 117.337 53.1245 117.327C53.3274 117.297 53.6158 117.139 53.9983 116.758L69.777 101.06C75.8442 95.0244 82.9444 92.1518 91.5148 93.4938Z" fill="white"/>
<path d="M85.8997 125.821L85.9205 125.82C86.1292 125.81 86.3968 125.827 86.7038 125.89C87.1644 125.983 87.6199 126.163 88.0463 126.45C89.2479 127.259 89.9911 128.75 90.0905 131.018C90.1045 131.339 89.855 131.609 89.5331 131.623C89.2113 131.637 88.939 131.389 88.925 131.069C88.8409 129.149 88.2689 128.001 87.3925 127.411C86.923 127.095 86.4387 126.98 86.0638 126.978L85.9098 126.981C83.8459 126.944 82.5053 127.894 82.2274 129.15C82.0029 130.164 82.576 130.867 83.6907 130.731L83.8003 130.715C87.6928 130.07 90.1161 131.729 89.5999 135.021C89.5503 135.338 89.252 135.555 88.9337 135.505C88.6153 135.456 88.3976 135.159 88.4472 134.842C88.8155 132.494 87.2434 131.371 84.1617 131.833L83.9921 131.86C81.9601 132.197 80.6848 130.722 81.088 128.9C81.4817 127.121 83.251 125.834 85.7549 125.82L85.8997 125.821Z" fill="white"/>
<path d="M120.912 40.4308L125.008 41.6816C125.624 41.8697 125.97 42.5189 125.781 43.1317C125.592 43.7445 124.939 44.0888 124.323 43.9007L120.225 42.6493C119.491 42.4234 118.584 42.8609 118.208 43.6493L118.164 43.7497L96.9601 96.1418C96.7194 96.7364 96.0398 97.0243 95.4421 96.7849C94.8729 96.5569 94.5833 95.9328 94.7649 95.3602L94.7957 95.2747L115.999 42.8828C116.786 40.9374 118.961 39.8309 120.912 40.4308ZM173.802 56.5819L183.551 59.5591C185.537 60.1696 186.503 62.2822 185.779 64.2516L185.73 64.3798L183.636 69.5621C183.395 70.1569 182.716 70.4452 182.118 70.2061C181.549 69.9784 181.259 69.3544 181.44 68.7817L181.471 68.6963L183.566 63.512C183.881 62.7353 183.553 61.9893 182.864 61.7776L173.117 58.8011C172.501 58.613 172.155 57.9637 172.344 57.3509C172.533 56.7381 173.186 56.3938 173.802 56.5819Z" fill="white"/>
<path d="M162.374 127.52C162.614 126.925 163.293 126.636 163.891 126.875C164.461 127.102 164.751 127.725 164.571 128.298L164.54 128.384L143.537 180.554C142.753 182.447 140.634 183.542 138.702 183.037L138.568 182.999L74.7507 163.871C73.4321 163.476 72.5104 162.393 72.3007 161.066L72.3135 161.165L71.2735 156.906C71.1214 156.283 71.5056 155.655 72.1318 155.504C72.7294 155.36 73.3314 155.701 73.5171 156.274L73.5408 156.358L74.5483 160.485L74.565 160.532L74.5883 160.617L74.6056 160.705C74.6729 161.131 74.935 161.464 75.3304 161.617L75.424 161.649L139.243 180.777C140.008 181.008 140.951 180.56 141.332 179.776L141.375 179.68L162.374 127.52Z" fill="white"/>
<path d="M162.056 115.872C162.357 115.129 163.207 114.769 163.954 115.068C164.67 115.355 165.032 116.143 164.796 116.863L164.762 116.956L141.371 174.751C140.547 176.788 138.302 177.965 136.239 177.411L136.102 177.372L73.4657 158.244C72.4246 157.927 71.6094 157.204 71.1633 156.252L71.1203 156.156L71.0837 156.084C70.8458 155.577 70.919 154.961 71.3033 154.52L71.3802 154.439C72.106 153.716 73.3228 153.95 73.738 154.862L73.7768 154.955C73.8632 155.184 74.019 155.35 74.2365 155.44L74.3209 155.47L136.96 174.599C137.55 174.78 138.307 174.416 138.625 173.759L138.665 173.667L162.056 115.872Z" fill="white"/>
<path d="M139.446 182.883C140.191 182.579 141.043 182.934 141.349 183.675C148.181 200.246 151.383 216.171 151.556 231.269C151.69 242.981 150.01 253.511 147.124 262.684C146.149 265.78 145.104 268.498 144.056 270.819C143.733 271.534 143.429 272.168 143.15 272.718L142.913 273.178C142.783 273.424 142.685 273.602 142.623 273.71C142.222 274.404 141.331 274.644 140.633 274.245C139.934 273.846 139.693 272.959 140.094 272.264L140.243 271.993C140.297 271.893 140.362 271.77 140.437 271.624L140.659 271.186C140.887 270.727 141.134 270.208 141.395 269.63C142.397 267.412 143.401 264.801 144.34 261.817C147.138 252.925 148.77 242.697 148.64 231.302C148.471 216.568 145.342 201.005 138.65 184.776C138.345 184.035 138.701 183.187 139.446 182.883Z" fill="white"/>
<path d="M183.467 66.4718C187.191 64.3106 190.812 64.008 193.877 65.2009C199.227 67.2837 200.012 72.9354 196.596 80.3693L196.463 80.6562C195.901 81.8463 193.61 86.0464 193.076 87.0618L193.012 87.1845C191.443 90.2331 190.145 93.2609 188.893 97.0151L188.651 97.7517C186.567 104.197 184.806 112.251 183.368 122.596C182.21 130.93 182.405 138.993 183.845 147.584C185.073 154.913 187.127 162.43 190.528 172.628L190.942 173.852C192.33 177.893 198.786 196.45 200.903 202.976C201.994 206.335 203.013 209.597 203.983 212.846C207.554 224.806 209.176 236.844 209.176 248.725C209.176 257.966 208.203 266.587 206.579 274.359C206.048 276.903 205.481 279.186 204.91 281.186L204.788 281.61C204.626 282.164 204.473 282.665 204.331 283.113L204.115 283.775C204.044 283.987 203.99 284.14 203.956 284.233C203.683 284.987 202.847 285.377 202.089 285.105C201.362 284.843 200.972 284.066 201.184 283.338L201.419 282.641L201.619 282.018C201.735 281.649 201.858 281.243 201.986 280.802C202.578 278.773 203.17 276.419 203.724 273.769C205.308 266.183 206.26 257.758 206.26 248.725C206.26 237.113 204.674 225.353 201.187 213.672C200.344 210.849 199.464 208.016 198.531 205.115L197.911 203.202C195.431 195.649 188.557 175.922 187.952 174.115L187.569 172.967C184.238 162.928 182.202 155.426 180.968 148.061C179.481 139.19 179.279 130.833 180.479 122.198C181.996 111.289 183.875 102.846 186.125 96.1012C187.364 92.3862 188.653 89.3403 190.184 86.3156L190.416 85.862C190.817 85.0826 193.162 80.7887 193.781 79.5106L193.884 79.2921L193.944 79.1629C196.755 73.0441 196.225 69.2312 192.814 67.9031C190.586 67.0357 187.896 67.2604 184.936 68.9782C181.001 71.2621 176.923 75.9821 172.88 83.5138C168.863 90.9948 166.466 99.9568 165.44 109.87C164.663 117.382 164.723 124.927 165.346 131.737C165.419 132.535 164.828 133.24 164.025 133.313C163.223 133.386 162.514 132.797 162.441 132C161.802 125.014 161.741 117.287 162.539 109.573C163.601 99.3129 166.093 89.9965 170.307 82.1468C174.584 74.1787 179.007 69.06 183.467 66.4718Z" fill="white"/>
<path d="M196.329 74.9455C196.334 74.8987 196.31 74.7872 196.205 74.6165C195.999 74.2804 195.58 73.9204 194.879 73.5644L194.729 73.4902C191.872 72.1513 189.323 72.341 187.546 73.6603C186.09 74.7407 185.497 76.3952 186.067 77.3679C186.568 78.2242 187.35 78.6929 189.126 79.3263L190.31 79.7402C190.701 79.8794 191.031 80.0039 191.348 80.1342C192.539 80.6237 193.496 81.1775 194.34 81.9281C194.58 82.1417 194.6 82.5086 194.386 82.7475C194.171 82.9864 193.802 83.007 193.562 82.7933C192.828 82.1403 191.982 81.6502 190.903 81.207C190.724 81.1336 190.54 81.0616 190.34 80.987L189.441 80.6661C189.169 80.5713 188.901 80.4784 188.934 80.4898L188.516 80.3407C186.636 79.6535 185.717 79.0757 185.059 77.9522C184.149 76.3992 184.962 74.1294 186.848 72.73C188.981 71.1471 191.989 70.9233 195.23 72.4422L195.41 72.5307C196.989 73.3333 197.562 74.2669 197.491 75.0495L197.483 75.1128C197.428 75.4286 197.126 75.6403 196.809 75.5856C196.514 75.5348 196.309 75.2722 196.326 74.9821L196.329 74.9455Z" fill="white"/>
<path d="M167.336 31.6289H129.428C126.365 31.6289 123.883 34.0915 123.883 37.1351V57.8588L123.885 58.0157C123.969 60.9865 126.418 63.3649 129.428 63.3649L140.613 63.3648L147.184 72.7887L147.246 72.8718C147.848 73.6195 149.02 73.5919 149.58 72.7887L156.151 63.3648L167.336 63.3649C170.4 63.3649 172.882 60.9023 172.882 57.8588V37.1351C172.882 34.0915 170.4 31.6289 167.336 31.6289ZM129.428 34.5305H167.336C168.791 34.5305 169.965 35.6958 169.965 37.1351V57.8588C169.965 59.2981 168.791 60.4633 167.336 60.4633H155.388L155.278 60.4674C154.842 60.5001 154.441 60.7264 154.19 61.0872L148.382 69.4158L142.575 61.0872C142.302 60.6964 141.855 60.4633 141.376 60.4633H129.428C127.974 60.4633 126.799 59.2981 126.799 57.8588V37.1351C126.799 35.6958 127.974 34.5305 129.428 34.5305Z" fill="white"/>
<path d="M163.4 42.263L163.231 41.8086C161.862 38.1231 157.726 36.2311 153.987 37.5732L138.254 43.2184C134.509 44.563 132.578 48.6438 133.949 52.3355L134.119 52.7909C135.487 56.4688 139.622 58.3602 143.36 57.026L159.095 51.3801C162.84 50.0355 164.771 45.9547 163.4 42.263ZM161.042 42.6131L161.212 43.0685C162.132 45.5456 160.834 48.2879 158.303 49.1966L142.57 54.8418C140.034 55.7471 137.23 54.4643 136.307 51.9847L136.137 51.53C135.218 49.0529 136.515 46.3106 139.046 45.4019L154.779 39.7567C157.316 38.8459 160.119 40.128 161.042 42.6131Z" fill="white"/>
<path d="M184.664 22.3322C185.153 21.915 185.889 21.9714 186.309 22.4581C186.707 22.9204 186.676 23.6048 186.252 24.0298L186.182 24.0947L178.016 31.0586C177.527 31.4758 176.79 31.4194 176.371 30.9327C175.972 30.4704 176.004 29.786 176.427 29.361L176.497 29.2961L184.664 22.3322Z" fill="white"/>
<path d="M137.379 0.0194095C137.984 -0.0914396 138.566 0.283388 138.719 0.865983L138.738 0.950594L142.821 23.0031C142.938 23.6335 142.519 24.2387 141.885 24.3548C141.28 24.4657 140.699 24.0908 140.545 23.5082L140.527 23.4236L136.443 1.37113C136.327 0.740723 136.746 0.135537 137.379 0.0194095Z" fill="white"/>
<path d="M158.631 14.2095C158.797 13.5902 159.436 13.222 160.059 13.3871C160.653 13.5448 161.017 14.1314 160.905 14.7231L160.885 14.8077L158.552 23.5126C158.386 24.1319 157.747 24.5001 157.124 24.335C156.53 24.1773 156.166 23.5907 156.278 22.999L156.297 22.9145L158.631 14.2095Z" fill="white"/>
<path d="M122.421 16.4083C122.951 16.1007 123.624 16.2557 123.967 16.7494L124.016 16.826L128.1 23.79C128.424 24.3437 128.236 25.0544 127.68 25.3774C127.15 25.685 126.477 25.53 126.133 25.0362L126.084 24.9597L122.001 17.9957C121.676 17.442 121.864 16.7313 122.421 16.4083Z" fill="white"/>
<path d="M102.844 23.6541C103.224 23.1767 103.905 23.0762 104.405 23.4085L104.483 23.4646L118.482 34.4908C118.987 34.8887 119.073 35.6187 118.673 36.1213C118.293 36.5987 117.612 36.6992 117.111 36.3669L117.034 36.3109L103.034 25.2846C102.529 24.8867 102.444 24.1567 102.844 23.6541Z" fill="white"/>
<path d="M103.614 62.8569C105.848 62.1762 108.117 62.8112 109.223 64.5436C109.568 65.0847 109.408 65.8019 108.864 66.1456C108.347 66.4721 107.67 66.3439 107.308 65.8664L107.253 65.7881C106.755 65.0079 105.591 64.6821 104.297 65.0765C102.702 65.5624 101.283 66.9989 100.484 69.2591C98.9766 73.5249 100.908 76.5596 102.984 75.7043L103.068 75.6675C103.653 75.3975 104.347 75.6499 104.618 76.2312C104.889 76.8126 104.636 77.5028 104.051 77.7728C102.079 78.6845 99.9181 77.9445 98.6701 76.0404C97.4291 74.147 97.2471 71.4202 98.2828 68.4892C99.3194 65.5555 101.284 63.5665 103.614 62.8569Z" fill="white"/>
<path d="M98.119 76.106C100.354 75.4252 102.622 76.0602 103.728 77.7926C104.074 78.3337 103.913 79.051 103.369 79.3946C102.852 79.7211 102.176 79.593 101.813 79.1154L101.759 79.0371C101.261 78.257 100.097 77.9312 98.8022 78.3256C97.2072 78.8114 95.7881 80.2479 94.9898 82.5071C93.4863 86.7746 95.4154 89.8079 97.4897 88.9533L97.5739 88.9166C98.1583 88.6465 98.852 88.8989 99.1235 89.4802C99.3949 90.0616 99.1412 90.7518 98.5569 91.0218C96.584 91.9335 94.4247 91.1935 93.1775 89.2891C91.9379 87.3963 91.7552 84.6701 92.7882 81.7382C93.8249 78.8045 95.7898 76.8155 98.119 76.106Z" fill="white"/>
<path d="M87.6277 94.1565C89.9348 88.918 95.9146 87.4113 98.2328 91.0467C98.5779 91.588 98.4167 92.3052 97.8726 92.6486C97.3557 92.9748 96.6793 92.8463 96.3171 92.3685L96.2625 92.2902C95.085 90.4436 91.4016 91.3717 89.7648 95.0881C89.5062 95.6752 88.8182 95.9427 88.228 95.6854C87.6379 95.4282 87.3691 94.7437 87.6277 94.1565Z" fill="white"/>
</svg>
