<svg width="68" height="91" viewBox="0 0 68 91" fill="none" xmlns="http://www.w3.org/2000/svg">
<path d="M38.5323 8.18794L58.8373 28.1896C59.5049 28.8472 60.5722 28.0331 60.1209 27.2105L46.6375 2.63792C46.4083 2.22026 45.8715 2.08988 45.4749 2.35559L38.6533 6.92659C38.2233 7.21476 38.1646 7.8258 38.5323 8.18794ZM40.3872 7.72386L45.6377 4.20571L56.016 23.1195L40.3872 7.72386Z" fill="white"/>
<path d="M9.75429 24.1205L4.1302 36.3601C3.91153 36.836 4.18872 37.3908 4.69874 37.498L42.7508 45.4978C43.6406 45.6848 44.1233 44.4872 43.352 44.0058L10.9241 23.7664C10.5088 23.5073 9.9597 23.6735 9.75429 24.1205ZM10.8437 25.6417L38.5787 42.9523L6.0334 36.1102L10.8437 25.6417Z" fill="white"/>
<path d="M5.48789 67.3617L6.12906 79.6401C6.15693 80.1738 6.68039 80.535 7.18806 80.3707L36.3248 70.942C37.1663 70.6697 37.0372 69.4374 36.1583 69.3533L6.38035 66.5036C5.88482 66.4562 5.46184 66.8629 5.48789 67.3617ZM7.16163 68.2183L32.0809 70.603L7.69799 78.4933L7.16163 68.2183Z" fill="white"/>
</svg>
