<svg width="58" height="94" viewBox="0 0 58 94" fill="none" xmlns="http://www.w3.org/2000/svg">
<path d="M45.3942 78.288L16.9828 76.0192C16.0487 75.9446 15.7544 77.2544 16.6289 77.5943L42.7533 87.7496C43.1973 87.9222 43.6924 87.677 43.8253 87.2185L46.1124 79.332C46.2565 78.8348 45.9087 78.329 45.3942 78.288ZM44.2717 79.8359L42.5113 85.906L22.4032 78.0893L44.2717 79.8359Z" fill="white"/>
<path d="M57.1977 47.5837L53.6378 34.5927C53.4994 34.0876 52.9304 33.8408 52.4708 34.0865L18.1801 52.4196C17.3782 52.8483 17.7784 54.076 18.6787 53.949L56.5292 48.6069C57.0139 48.5384 57.3277 48.0581 57.1977 47.5837ZM55.3854 47.1187L23.0122 51.6875L52.3406 36.0076L55.3854 47.1187Z" fill="white"/>
<path d="M32.668 11.7179L24.284 2.72476C23.9195 2.33382 23.2864 2.39368 23.0031 2.84586L6.74515 28.7983C6.27558 29.5478 7.1667 30.4088 7.89401 29.9082L32.536 12.9489C32.9461 12.6667 33.0086 12.0833 32.668 11.7179ZM30.8353 12.1377L10.214 26.3298L23.8193 4.61174L30.8353 12.1377Z" fill="white"/>
</svg>
