<svg width="223" height="295" viewBox="0 0 223 295" fill="none" xmlns="http://www.w3.org/2000/svg">
<path d="M110.639 136.986C113.379 136.986 116.264 139.031 117.345 141.66L117.422 141.859L141.306 205.659C142.459 208.723 140.745 211.538 137.578 211.639L137.4 211.642H129.967C129.087 211.642 128.374 210.932 128.374 210.056C128.374 209.219 129.024 208.534 129.848 208.473L129.967 208.469H137.4C138.337 208.469 138.711 207.933 138.368 206.901L138.321 206.77L114.435 142.965C113.893 141.509 112.208 140.249 110.79 140.164L110.639 140.16H5.18012C4.24375 140.16 3.86919 140.696 4.21249 141.727L4.25918 141.859L28.1452 205.664C28.6872 207.12 30.3721 208.379 31.7904 208.464L31.9413 208.469H102.122C103.002 208.469 103.716 209.179 103.716 210.056C103.716 210.892 103.066 211.577 102.241 211.638L102.122 211.642H31.9413C29.2011 211.642 26.3169 209.598 25.2358 206.968L25.1581 206.77L1.27394 142.969C0.12154 139.905 1.83586 137.09 5.00273 136.989L5.18012 136.986H110.639Z" fill="white"/>
<path d="M10.394 145.292C9.19445 146.73 9.78584 148.832 11.3277 150.108C12.8695 151.383 15.0529 151.577 16.2525 150.139C17.4522 148.701 16.8608 146.599 15.3189 145.323C13.7771 144.048 11.5937 143.854 10.394 145.292Z" fill="white"/>
<path d="M115.102 131.044C118.021 131.044 121.054 133.217 122.204 136.029L122.283 136.231L146.267 200.878C146.841 202.401 146.782 203.95 146.072 205.199L146.013 205.295C145.971 205.382 145.923 205.463 145.87 205.541L145.785 205.655L143.24 208.839C142.555 209.696 141.302 209.838 140.441 209.156C139.618 208.504 139.452 207.334 140.039 206.483L140.123 206.369L142.543 203.34L142.585 203.277C142.692 203.124 142.723 202.836 142.581 202.398L142.534 202.262L118.547 137.609C118.048 136.268 116.498 135.097 115.24 135.015L115.102 135.011H9.19767C8.87384 135.011 8.71195 135.082 8.61565 135.197C8.58412 135.235 8.55131 135.271 8.51733 135.306L8.4704 135.35L6.00751 138.454C5.35505 139.276 4.18066 139.445 3.32453 138.864L3.20987 138.78C2.38441 138.13 2.21437 136.961 2.7981 136.108L2.88237 135.994L5.49878 132.698C5.56174 132.619 5.63016 132.545 5.70335 132.477L5.77994 132.41L5.84456 132.344C6.65225 131.55 7.73915 131.099 8.96601 131.049L9.19767 131.044H115.102Z" fill="white"/>
<path d="M134.303 159.494C139.479 159.494 143.673 163.696 143.673 168.873C143.673 172.038 142.086 174.946 139.505 176.678C138.775 177.167 137.785 176.975 137.293 176.248C136.801 175.521 136.995 174.535 137.724 174.045C139.435 172.898 140.486 170.972 140.486 168.873C140.486 165.444 137.715 162.668 134.303 162.668C134.09 162.668 133.893 162.676 133.71 162.694L133.531 162.714C132.659 162.832 131.856 162.224 131.737 161.356C131.619 160.488 132.23 159.688 133.102 159.57C133.485 159.518 133.883 159.494 134.303 159.494Z" fill="white"/>
<path d="M123.447 114.861C124.203 114.412 125.181 114.659 125.632 115.411C126.082 116.164 125.835 117.138 125.079 117.587C119.149 121.106 117.698 125.606 119.45 132.495C119.666 133.344 119.15 134.207 118.297 134.423C117.444 134.638 116.577 134.124 116.361 133.274C114.285 125.114 116.206 119.159 123.447 114.861Z" fill="white"/>
<path d="M175.227 165.223C175.912 164.674 176.915 164.782 177.467 165.465L177.599 165.633C177.818 165.916 178.124 166.34 178.494 166.894C179.236 168.006 179.976 169.269 180.667 170.663C184.542 178.483 185.292 186.758 180.862 194.535C179.041 197.732 176.378 200.717 172.818 203.457C172.121 203.992 171.121 203.865 170.583 203.171C170.045 202.478 170.173 201.481 170.869 200.946C174.104 198.456 176.484 195.788 178.09 192.969C181.915 186.253 181.262 179.034 177.809 172.067C177.182 170.801 176.51 169.654 175.84 168.651C175.608 168.303 175.393 167.998 175.202 167.741L174.984 167.454C174.432 166.772 174.541 165.773 175.227 165.223Z" fill="white"/>
<path d="M171.829 109.963C172.486 109.379 173.493 109.436 174.079 110.09C177.782 114.221 180.681 120.083 182.029 127.917C183.829 138.376 182.636 151.297 177.742 166.932C177.48 167.769 176.586 168.236 175.746 167.975C174.906 167.714 174.437 166.824 174.699 165.988C179.451 150.808 180.598 138.388 178.888 128.453C177.643 121.215 175.013 115.897 171.702 112.203C171.116 111.549 171.173 110.546 171.829 109.963Z" fill="white"/>
<path d="M176.192 164.879C177.072 164.865 177.797 165.564 177.811 166.44C177.825 167.277 177.186 167.972 176.363 168.046L175.931 168.067C175.76 168.078 175.538 168.095 175.269 168.122C174.444 168.206 173.518 168.347 172.519 168.561C169.66 169.172 166.801 170.235 164.143 171.854C158.839 175.083 154.983 180.11 153.153 187.369C151.064 195.66 152.016 202.727 154.858 208.501C155.469 209.743 156.121 210.817 156.769 211.717C156.947 211.964 157.113 212.183 157.265 212.372L157.481 212.632L157.569 212.732C158.169 213.373 158.134 214.377 157.49 214.975C156.847 215.573 155.839 215.537 155.238 214.896L155.099 214.742C154.87 214.481 154.555 214.088 154.178 213.566C153.431 212.527 152.687 211.303 151.996 209.898C148.836 203.476 147.781 195.648 150.062 186.596C152.1 178.51 156.481 172.799 162.48 169.146C165.469 167.327 168.66 166.14 171.85 165.458C173.774 165.047 175.287 164.894 176.192 164.879Z" fill="white"/>
<path d="M158.075 211.315C156.222 211.315 154.721 212.811 154.721 214.655C154.721 216.5 156.222 217.996 158.075 217.996C159.927 217.996 161.429 216.5 161.429 214.655C161.429 212.811 159.927 211.315 158.075 211.315ZM158.075 214.489C158.167 214.489 158.242 214.563 158.242 214.655C158.242 214.747 158.167 214.822 158.075 214.822C157.982 214.822 157.908 214.747 157.908 214.655C157.908 214.563 157.982 214.489 158.075 214.489Z" fill="white"/>
<path d="M170.575 200.106C168.722 200.106 167.221 201.602 167.221 203.447C167.221 205.291 168.722 206.787 170.575 206.787C172.427 206.787 173.929 205.291 173.929 203.447C173.929 201.602 172.427 200.106 170.575 200.106ZM170.575 203.28C170.667 203.28 170.742 203.355 170.742 203.447C170.742 203.539 170.667 203.613 170.575 203.613C170.482 203.613 170.408 203.539 170.408 203.447C170.408 203.355 170.482 203.28 170.575 203.28Z" fill="white"/>
<path d="M133.418 164.459C136.2 164.459 138.453 166.702 138.453 169.473C138.453 170.884 137.867 172.198 136.853 173.139C136.531 173.438 136.027 173.421 135.727 173.1C135.427 172.78 135.445 172.278 135.766 171.979C136.46 171.335 136.86 170.439 136.86 169.473C136.86 167.579 135.32 166.046 133.418 166.046C132.978 166.046 132.621 165.691 132.621 165.252C132.621 164.814 132.978 164.459 133.418 164.459Z" fill="white"/>
<path d="M159.421 28.0287C160.57 27.8295 161.696 27.7523 162.795 27.8053C174.096 28.3498 182.052 45.234 180.489 62.0809L180.433 62.6395L180.453 62.6439C186.396 63.9818 188.16 68.4826 186.935 74.1828L186.882 74.4244C185.993 78.3171 181.6 81.8219 176.979 83.1966L176.872 83.2266L176.782 83.5634C176.648 84.0541 176.497 84.5787 176.33 85.1314L176.202 85.551C175.45 87.9803 174.551 90.4109 173.5 92.69C172.421 95.0329 171.239 97.0867 169.943 98.7742C168.996 100.007 168.039 101.063 166.931 102.137L166.508 102.541C166.203 102.828 164.418 104.442 163.868 104.975L163.801 105.041C162.251 106.584 161.682 107.801 161.682 110.028C161.682 110.905 160.969 111.615 160.089 111.615C159.209 111.615 158.495 110.905 158.495 110.028C158.495 106.905 159.431 104.905 161.547 102.797L161.705 102.643C162.383 101.994 164.071 100.468 164.317 100.236C165.493 99.1279 166.459 98.0869 167.411 96.8464C168.547 95.3669 169.616 93.5107 170.604 91.3665C171.59 89.2263 172.443 86.922 173.156 84.6163L173.394 83.8288C173.508 83.4456 173.612 83.0786 173.707 82.7303L173.956 81.7847C173.978 81.6936 173.996 81.6207 174.009 81.5672C174.147 80.974 174.615 80.5123 175.211 80.3789C179.127 79.5034 183.136 76.5157 183.774 73.7211C184.843 69.0395 183.561 66.1274 178.479 65.5249C177.593 65.4198 176.966 64.6101 177.09 63.7297C179.324 47.8122 172.03 31.4275 162.641 30.9751C161.784 30.9338 160.892 30.9949 159.967 31.1552C156.226 31.8039 152.104 34.0297 147.913 37.3452C146.105 38.7754 144.408 40.3112 142.875 41.8466C142.517 42.2043 142.187 42.5446 141.884 42.8636L141.452 43.3255C141.209 43.5888 141.044 43.7734 140.963 43.8662C140.495 44.4071 139.721 44.5696 139.073 44.2631L138.581 44.0208C138.452 43.9554 138.305 43.8801 138.14 43.7948L137.503 43.4579C136.956 43.1642 136.371 42.8379 135.755 42.4801C133.293 41.0494 130.831 39.4059 128.526 37.5684L127.967 37.1164L127.335 36.5884L127.098 37.0223C121.541 47.2698 119.576 58.3744 120.633 69.5214L120.69 70.098C121.659 79.4003 124.8 88.2198 128.232 93.0636C129.646 95.0603 131.022 96.6516 132.584 98.1851L132.948 98.5381C133.153 98.7354 135.781 101.129 136.536 101.917L136.605 101.991C138.114 103.628 138.837 105.249 138.893 107.484L138.896 107.767V115.272C138.896 116.149 138.183 116.859 137.303 116.859C136.463 116.859 135.775 116.212 135.714 115.391L135.71 115.272V107.767C135.71 106.293 135.349 105.375 134.41 104.307L134.257 104.137C133.723 103.557 131.041 101.115 130.737 100.824C128.885 99.047 127.275 97.2172 125.628 94.893C121.87 89.5879 118.543 80.2501 117.52 70.4252C116.192 57.6663 118.614 44.9074 125.561 33.2909C126.081 32.4212 127.275 32.2523 128.018 32.9433C128.803 33.6742 129.639 34.3905 130.517 35.0909C132.69 36.823 135.026 38.3819 137.361 39.7391C137.828 40.0104 138.276 40.2622 138.7 40.4938L139.396 40.8663L139.566 40.6861C139.726 40.5167 139.894 40.3418 140.069 40.1621L140.615 39.6087C142.231 37.9908 144.018 36.3733 145.93 34.8604C150.501 31.2445 155.055 28.7857 159.421 28.0287Z" fill="white"/>
<path d="M133.202 120.19C133.921 119.765 134.839 119.968 135.314 120.636L135.438 120.825C135.509 120.926 135.634 121.089 135.818 121.298C136.253 121.795 136.807 122.298 137.489 122.773C139.488 124.163 142.117 125.006 145.496 125.006C149.042 125.006 151.978 124.558 154.334 123.818C155.139 123.565 155.809 123.299 156.35 123.037L156.553 122.936C156.673 122.875 156.763 122.825 156.822 122.791L156.889 122.749C157.621 122.263 158.611 122.46 159.099 123.19C159.587 123.919 159.389 124.904 158.657 125.39C158.059 125.787 156.946 126.326 155.292 126.845C152.625 127.682 149.367 128.179 145.496 128.179C141.457 128.179 138.192 127.133 135.664 125.374C134.762 124.747 134.017 124.07 133.417 123.385L133.184 123.111C132.933 122.804 132.755 122.549 132.645 122.365C132.196 121.611 132.445 120.638 133.202 120.19Z" fill="white"/>
<path d="M161.524 108.158C161.693 107.076 162.711 106.335 163.798 106.503C174.021 108.087 184.751 113.866 193.77 123.251C204.253 134.159 212.007 149.364 216.032 168.471L216.49 170.674C221.755 196.328 224.182 220.223 222.443 240.457C220.08 267.948 210.094 286.445 190.81 293.098C180.002 296.826 168.997 294.971 158.062 288.451C149.148 283.137 140.549 274.902 132.372 264.539C127.186 257.967 122.48 250.934 118.336 243.901L117.626 242.685C116.465 240.684 115.426 238.81 114.515 237.098L113.907 235.941C113.814 235.762 113.725 235.589 113.64 235.424L113.167 234.486C112.689 233.51 113.09 232.342 114.045 231.854L115.001 231.427L115.398 231.247C116.391 230.795 117.5 230.273 118.694 229.689C122.104 228.022 125.514 226.196 128.688 224.272C132.831 221.761 136.249 219.277 138.676 216.911C139.601 216.009 141.118 216.218 141.773 217.302L141.861 217.461L142.054 217.826C142.2 218.099 142.367 218.407 142.555 218.749L142.7 219.011C143.413 220.295 144.243 221.729 145.179 223.273C147.856 227.686 150.849 232.099 154.082 236.209C157.845 240.993 161.686 245.046 165.531 248.131C171.022 252.54 174.688 252.36 177.502 248.653C180.123 245.2 181.826 238.816 182.298 231.569C182.495 228.553 182.506 225.035 182.355 221.118C182.191 216.864 181.844 212.309 181.367 207.676L181.205 206.146C181.041 204.637 180.871 203.192 180.7 201.833L180.528 200.488L180.275 198.646C180.117 197.562 180.87 196.555 181.959 196.397C183.047 196.239 184.058 196.989 184.217 198.073L184.435 199.649C184.477 199.966 184.521 200.302 184.566 200.657C184.827 202.685 185.087 204.912 185.33 207.272C185.814 211.983 186.168 216.619 186.336 220.966C186.492 225.009 186.48 228.658 186.273 231.826C185.755 239.777 183.871 246.841 180.679 251.045C176.424 256.652 170.178 256.958 163.031 251.219C158.924 247.924 154.883 243.659 150.946 238.655C147.605 234.407 144.523 229.865 141.769 225.324C141.127 224.264 140.533 223.254 139.99 222.306L139.53 221.496L139.276 221.711C137.047 223.572 134.361 225.449 131.302 227.329L130.758 227.661C127.472 229.653 123.96 231.534 120.449 233.25C119.896 233.52 119.361 233.778 118.847 234.022L117.679 234.568L118.035 235.24L118.584 236.262C119.524 237.997 120.588 239.885 121.772 241.894C125.83 248.781 130.439 255.669 135.504 262.088C153.201 284.516 171.643 295.511 189.506 289.349C207.001 283.314 216.23 266.217 218.474 240.119C220.223 219.765 217.642 195.429 212.133 169.285C208.257 150.884 200.845 136.351 190.892 125.993C182.464 117.224 172.522 111.869 163.186 110.423C162.099 110.255 161.355 109.241 161.524 108.158Z" fill="white"/>
<path d="M97.7803 209.559C98.0547 208.499 99.1407 207.86 100.206 208.133C101.271 208.407 101.912 209.488 101.638 210.549L101.413 211.43C101.114 212.623 100.81 213.907 100.443 215.515L99.0556 221.665C98.9142 222.282 98.7823 222.851 98.6509 223.41L98.3828 224.535C96.2402 233.41 94.1468 239.28 90.9792 244.11C86.6839 250.659 80.7431 254.254 72.72 254.458C62.6498 254.715 55.3329 247.498 50.2761 235.607C48.5856 231.633 47.2668 227.392 46.2718 223.153C45.9238 221.67 45.6407 220.293 45.4173 219.054L45.3291 218.553L45.1857 217.674C45.1713 217.58 45.1607 217.508 45.1539 217.459C45.0026 216.374 45.7632 215.373 46.8528 215.222C47.8987 215.077 48.8677 215.77 49.0774 216.785L49.1056 216.956L49.1544 217.274C49.2035 217.583 49.2645 217.944 49.3381 218.353C49.5498 219.526 49.819 220.837 50.1507 222.25C51.0976 226.283 52.3511 230.315 53.9442 234.06C58.4337 244.617 64.598 250.697 72.6181 250.493C79.2735 250.323 84.0367 247.441 87.644 241.941C90.6212 237.401 92.6335 231.592 94.7725 222.504L95.2574 220.408L96.4659 215.043C96.9772 212.792 97.3685 211.152 97.7803 209.559Z" fill="white"/>
<path d="M35.2162 131.247C41.8169 122.383 51.7669 121.666 59.2439 131.208C59.9206 132.072 59.7661 133.318 58.8988 133.992C58.0316 134.666 56.78 134.512 56.1033 133.648C50.3232 126.272 43.515 126.762 38.416 133.61C37.7607 134.49 36.5133 134.674 35.6297 134.021C34.7461 133.369 34.561 132.127 35.2162 131.247Z" fill="white"/>
<path d="M134.168 211.849C134.912 211.331 135.931 211.539 136.416 212.285L136.479 212.39L140.04 218.896C140.461 219.665 140.177 220.629 139.404 221.048C138.668 221.448 137.755 221.209 137.306 220.521L137.242 220.415L134.532 215.465L114.488 229.406L116.359 232.867C116.756 233.602 116.511 234.509 115.818 234.953L115.71 235.016C114.972 235.411 114.061 235.168 113.615 234.477L113.552 234.37L111.011 229.665C110.649 228.996 110.817 228.171 111.395 227.694L111.502 227.613L134.168 211.849Z" fill="white"/>
<path d="M100.053 175.341C104.956 172.54 109.343 173.016 113.09 176.141C115.568 178.209 117.191 180.605 119.736 185.28L120.159 186.063C120.986 187.614 122.13 189.898 123.532 192.78L125.243 196.325L125.401 196.654C126.569 199.093 127.795 201.685 129.021 204.295L130.535 207.531L131.404 209.398C131.773 210.194 131.424 211.136 130.625 211.503C129.864 211.853 128.969 211.555 128.567 210.838L128.414 210.521L126.658 206.757L125.61 204.526C124.912 203.042 124.217 201.572 123.535 200.138L122.212 197.368C120.11 192.986 118.434 189.596 117.348 187.558L117.146 187.181C114.67 182.605 113.17 180.348 111.043 178.574C108.302 176.287 105.361 175.968 101.639 178.094L101.124 178.394C93.5506 182.913 92.6737 187.976 97.0501 196.599L102.419 207.16C107.034 216.178 109.136 220.007 113.797 228.126C114.234 228.886 113.969 229.856 113.205 230.291C112.441 230.726 111.467 230.461 111.031 229.701L108.64 225.515C104.213 217.706 101.869 213.155 94.2054 198.029C89.0207 187.814 90.4093 180.85 100.053 175.341Z" fill="white"/>
<path d="M132.818 106.48C133.918 106.48 134.81 107.368 134.81 108.464C134.81 109.559 133.918 110.447 132.818 110.447C124.531 110.447 116.414 114.704 108.845 121.862C106.158 124.403 103.737 127.131 101.625 129.858C100.887 130.81 100.242 131.693 99.6941 132.483L99.2889 133.078L99.0501 133.441C98.4636 134.368 97.2338 134.646 96.3031 134.062C95.3725 133.478 95.0935 132.253 95.68 131.326L95.9243 130.952C96.0539 130.757 96.2182 130.515 96.4163 130.229C97.0025 129.384 97.6888 128.445 98.4704 127.435C100.7 124.556 103.255 121.677 106.102 118.986C114.342 111.194 123.329 106.48 132.818 106.48Z" fill="white"/>
<path d="M156.349 0.107349L156.637 0.209185C157.503 0.528754 158.798 1.11401 160.391 2.01359C163.32 3.6686 166.242 5.85153 168.968 8.63154C171.134 10.8405 173.086 13.3425 174.742 16.106L175.481 17.2629L179.6 10.5513C180.328 9.36615 182.007 9.28236 182.856 10.3476L182.941 10.4619L183.635 11.4795C184.193 12.303 184.834 13.2575 185.547 14.3321L186.43 15.668C188.216 18.3817 190.123 21.3432 192.103 24.4976C194.429 28.2033 195.465 30.6355 195.877 33.2216L195.916 33.4807C196.008 34.1232 196.061 34.6973 196.113 35.5807L196.218 37.4987C196.341 39.5991 196.48 40.9279 196.807 42.8254L196.931 43.5208C198.777 53.6312 195.477 59.961 185.566 66.5938C184.653 67.2047 183.415 66.963 182.802 66.0538C182.188 65.1446 182.431 63.9123 183.344 63.3013C191.922 57.5606 194.486 52.7739 193.067 44.5408L192.878 43.4803C192.504 41.3115 192.357 39.8166 192.22 37.3647L192.138 35.8495C192.091 35.0523 192.047 34.5602 191.972 34.0401C191.676 31.9695 190.856 29.9962 188.725 26.6L187.749 25.0518C186.134 22.4988 184.574 20.0853 183.098 17.8432L181.382 15.2549L177.215 22.045C176.472 23.2554 174.747 23.3111 173.918 22.1952L171.352 18.1876C169.83 15.6489 168.07 13.3933 166.118 11.4029C163.811 9.05008 161.351 7.17526 158.887 5.72981L158.397 5.44725L158.499 5.92495C158.934 7.91369 159.433 9.88923 159.995 11.7665L160.24 12.5648C160.867 14.5625 158.362 16.0398 156.904 14.5322C154.931 12.4918 152.608 11.0986 149.986 10.267C146.828 9.26537 143.447 9.11975 140.157 9.559L140.086 9.5688L140.176 9.6998C140.624 10.3851 140.831 11.1594 140.716 12.0505L140.687 12.2433C140.316 14.3342 138.191 15.826 134.255 17.1325C133.368 17.4271 132.442 17.8065 131.484 18.2667C128.47 19.7133 125.217 21.909 121.865 24.6508C119.589 26.5129 117.404 28.5128 115.393 30.5126C114.891 31.0122 114.425 31.486 114.001 31.9275L113.373 32.5887L112.851 33.1537C112.542 33.4983 112.124 33.7222 111.671 33.7922L111.613 33.7983L112.004 34.0607C112.407 34.3254 112.827 34.5874 113.266 34.8457L113.712 35.1026C116.628 36.7532 120.018 38.0577 123.906 38.8811C124.982 39.109 125.668 40.1623 125.439 41.2338C125.211 42.3052 124.153 42.9891 123.077 42.7612C118.781 41.8515 115.008 40.3995 111.743 38.5512C109.689 37.3883 107.955 36.1366 106.529 34.8767C105.65 34.0999 105.056 33.4752 104.736 33.0815C103.707 31.8182 104.56 29.9478 106.155 29.8527L106.283 29.8489H110.491L110.608 29.7253C111.102 29.2019 111.657 28.6284 112.268 28.0154L112.578 27.7057C114.675 25.6207 116.952 23.5359 119.337 21.5855C122.914 18.6595 126.416 16.2957 129.754 14.6934C130.702 14.2385 131.631 13.8479 132.542 13.525L132.995 13.3693C134.55 12.8531 135.649 12.3462 136.312 11.8808C136.39 11.826 136.459 11.774 136.519 11.7252L136.609 11.6474C136.475 11.5219 136.294 11.385 136.076 11.245L135.941 11.1608C135.636 10.9765 135.298 10.8061 134.958 10.658L134.699 10.5493L134.54 10.4887C132.766 9.8651 132.769 7.36524 134.545 6.74627L134.795 6.66258C135.342 6.48688 136.161 6.26401 137.204 6.04446C141.76 5.08589 146.597 5.02881 151.195 6.48727C152.408 6.87206 153.574 7.35685 154.686 7.94596L154.9 8.06219L154.807 7.66398L154.608 6.77319L154.417 5.88113C154.287 5.25737 154.169 4.66304 154.063 4.10453L153.878 3.09392L153.742 2.29197C153.511 0.819607 154.932 -0.371074 156.349 0.107349Z" fill="white"/>
<path d="M94.1042 63.2432H41.674C37.4432 63.2432 34.0293 66.6912 34.0293 70.9361V100.113L34.0323 100.332C34.1473 104.476 37.5161 107.806 41.674 107.806L57.1464 107.806L66.2437 121.087L66.3287 121.202C67.1512 122.24 68.7711 122.201 69.5345 121.087L78.631 107.806L94.1042 107.806C98.335 107.806 101.749 104.358 101.749 100.113V70.9361C101.749 66.7003 98.326 63.2432 94.1042 63.2432ZM41.674 67.21H94.1042C96.1133 67.21 97.7654 68.8787 97.7654 70.9361V100.113C97.7654 102.18 96.1223 103.839 94.1042 103.839H77.5787L77.4275 103.845C76.8269 103.891 76.2757 104.205 75.9332 104.705L67.8891 116.449L59.845 104.705C59.4739 104.163 58.858 103.839 58.1996 103.839H41.674C39.6559 103.839 38.0128 102.18 38.0128 100.113V70.9361C38.0128 68.8696 39.6559 67.21 41.674 67.21Z" fill="white"/>
<path fill-rule="evenodd" clip-rule="evenodd" d="M48.9858 80.0075L62.2031 97.7516C62.2031 97.7516 68.7802 88.1991 86.9708 79.8732C88.3944 79.2196 87.8808 77.08 86.3131 77.1247C79.9703 77.3038 70.1317 78.763 61.3292 85.0926L51.7158 77.7424C50.1661 76.5428 48.0848 78.2796 48.9858 80.0075Z" fill="white"/>
</svg>
