<svg width="232" height="231" viewBox="0 0 232 231" fill="none" xmlns="http://www.w3.org/2000/svg">
<path d="M168.355 48.9025C169.202 48.9025 170.093 49.5343 170.428 50.347L170.452 50.4083L177.834 70.1254C178.19 71.0723 177.66 71.9423 176.682 71.9736L176.627 71.9745H174.329C174.057 71.9745 173.837 71.7549 173.837 71.4841C173.837 71.2256 174.038 71.0138 174.292 70.9951L174.329 70.9937H176.627C176.916 70.9937 177.032 70.8281 176.926 70.5093L176.911 70.4687L169.528 50.7501C169.361 50.3002 168.84 49.911 168.402 49.8847L168.355 49.8833H135.758C135.469 49.8833 135.353 50.0489 135.459 50.3677L135.473 50.4083L142.856 70.1269C143.024 70.5769 143.545 70.966 143.983 70.9923L144.03 70.9937H165.722C165.994 70.9937 166.215 71.2133 166.215 71.4841C166.215 71.7426 166.014 71.9544 165.759 71.9731L165.722 71.9745H144.03C143.183 71.9745 142.291 71.3427 141.957 70.53L141.933 70.4687L134.551 50.7516C134.194 49.8047 134.724 48.9347 135.703 48.9034L135.758 48.9025H168.355Z" fill="white"/>
<path d="M137.369 51.4697C136.998 51.9141 137.181 52.5637 137.658 52.9579C138.134 53.3521 138.809 53.4119 139.18 52.9675C139.551 52.5231 139.368 51.8735 138.892 51.4793C138.415 51.0851 137.74 51.0253 137.369 51.4697Z" fill="white"/>
<path d="M169.735 47.0664C170.637 47.0664 171.575 47.7379 171.93 48.6071L171.955 48.6695L179.368 68.648C179.545 69.1188 179.527 69.5974 179.308 69.9836L179.29 70.0133C179.276 70.0402 179.262 70.0651 179.245 70.0892L179.219 70.1246L178.432 71.1085C178.221 71.3734 177.833 71.4172 177.567 71.2064C177.313 71.0048 177.261 70.6432 177.443 70.3803L177.469 70.3451L178.217 69.4092L178.23 69.3895C178.263 69.3424 178.272 69.2534 178.229 69.1178L178.214 69.0758L170.8 49.0952C170.645 48.6809 170.166 48.3191 169.778 48.2937L169.735 48.2923H137C136.9 48.2923 136.85 48.3144 136.821 48.35C136.811 48.3616 136.801 48.3729 136.79 48.3837L136.776 48.397L136.014 49.3564C135.813 49.6105 135.45 49.6628 135.185 49.4832L135.15 49.4572C134.895 49.2564 134.842 48.895 135.022 48.6315L135.048 48.5962L135.857 47.5775C135.877 47.553 135.898 47.5302 135.92 47.5092L135.944 47.4886L135.964 47.4683C136.214 47.2228 136.55 47.0834 136.929 47.0679L137 47.0664H169.735Z" fill="white"/>
<path d="M175.669 55.8592C177.269 55.8592 178.565 57.1577 178.565 58.7576C178.565 59.7359 178.074 60.6345 177.276 61.1696C177.051 61.3209 176.745 61.2615 176.593 61.0368C176.441 60.8122 176.501 60.5075 176.726 60.3562C177.255 60.0016 177.58 59.4063 177.58 58.7576C177.58 57.6981 176.723 56.8399 175.669 56.8399C175.603 56.8399 175.542 56.8426 175.485 56.848L175.43 56.8544C175.16 56.8909 174.912 56.7029 174.876 56.4345C174.839 56.1662 175.028 55.9191 175.297 55.8826C175.416 55.8665 175.539 55.8592 175.669 55.8592Z" fill="white"/>
<path d="M172.314 42.0653C172.548 41.9266 172.85 42.0028 172.989 42.2354C173.129 42.468 173.052 42.769 172.818 42.9077C170.986 43.9954 170.537 45.3861 171.079 47.515C171.145 47.7775 170.986 48.0442 170.722 48.1107C170.458 48.1772 170.191 48.0183 170.124 47.7558C169.482 45.234 170.076 43.3936 172.314 42.0653Z" fill="white"/>
<path d="M188.318 57.6298C188.53 57.4601 188.84 57.4935 189.01 57.7046L189.051 57.7564C189.119 57.844 189.214 57.975 189.328 58.1461C189.557 58.4897 189.786 58.88 190 59.3108C191.197 61.7276 191.429 64.285 190.06 66.6883C189.497 67.6763 188.674 68.5989 187.573 69.4456C187.358 69.6112 187.049 69.5717 186.883 69.3574C186.716 69.1431 186.756 68.8351 186.971 68.6695C187.971 67.9002 188.707 67.0755 189.203 66.2044C190.385 64.129 190.183 61.898 189.116 59.7448C188.922 59.3535 188.715 58.9991 188.508 58.689C188.436 58.5814 188.369 58.4874 188.31 58.4078L188.243 58.3193C188.072 58.1083 188.106 57.7996 188.318 57.6298Z" fill="white"/>
<path d="M187.27 40.5519C187.472 40.3715 187.784 40.3891 187.965 40.5911C189.11 41.8679 190.006 43.6795 190.422 46.1005C190.979 49.333 190.61 53.3259 189.097 58.1579C189.016 58.4165 188.74 58.5608 188.48 58.4802C188.221 58.3996 188.076 58.1246 188.157 57.8661C189.625 53.1748 189.98 49.3366 189.451 46.2662C189.067 44.0294 188.254 42.3859 187.23 41.2442C187.049 41.0422 187.067 40.7322 187.27 40.5519Z" fill="white"/>
<path d="M188.617 57.5243C188.889 57.52 189.113 57.7359 189.117 58.0067C189.122 58.2652 188.924 58.4802 188.67 58.5031L188.536 58.5094C188.483 58.5128 188.415 58.5183 188.332 58.5266C188.076 58.5524 187.79 58.5961 187.482 58.6622C186.598 58.8511 185.714 59.1795 184.893 59.6797C183.253 60.6777 182.061 62.2313 181.496 64.4746C180.85 67.037 181.144 69.2208 182.023 71.0054C182.211 71.3892 182.413 71.721 182.613 71.9992C182.668 72.0757 182.72 72.1432 182.767 72.2017L182.833 72.2821L182.861 72.313C183.046 72.5111 183.035 72.8214 182.836 73.0061C182.637 73.1908 182.326 73.1799 182.14 72.9818L182.097 72.9341C182.026 72.8535 181.929 72.7321 181.813 72.5705C181.581 72.2495 181.352 71.8712 181.138 71.437C180.161 69.4525 179.835 67.0334 180.54 64.2359C181.17 61.7367 182.524 59.9718 184.379 58.843C185.302 58.2807 186.289 57.9141 187.275 57.7033C187.87 57.5762 188.337 57.529 188.617 57.5243Z" fill="white"/>
<path d="M183.017 71.875C182.444 71.875 181.98 72.3371 181.98 72.9072C181.98 73.4773 182.444 73.9394 183.017 73.9394C183.59 73.9394 184.054 73.4773 184.054 72.9072C184.054 72.3371 183.59 71.875 183.017 71.875ZM183.017 72.8557C183.046 72.8557 183.069 72.8788 183.069 72.9072C183.069 72.9357 183.046 72.9587 183.017 72.9587C182.988 72.9587 182.965 72.9357 182.965 72.9072C182.965 72.8788 182.988 72.8557 183.017 72.8557Z" fill="white"/>
<path d="M186.881 68.4103C186.308 68.4103 185.844 68.8724 185.844 69.4425C185.844 70.0126 186.308 70.4747 186.881 70.4747C187.454 70.4747 187.918 70.0126 187.918 69.4425C187.918 68.8724 187.454 68.4103 186.881 68.4103ZM186.881 69.391C186.91 69.391 186.933 69.4141 186.933 69.4425C186.933 69.4709 186.91 69.494 186.881 69.494C186.852 69.494 186.829 69.4709 186.829 69.4425C186.829 69.4141 186.852 69.391 186.881 69.391Z" fill="white"/>
<path d="M175.395 57.3937C176.255 57.3937 176.952 58.0871 176.952 58.9433C176.952 59.3793 176.771 59.7854 176.457 60.0764C176.358 60.1688 176.202 60.1633 176.109 60.0643C176.016 59.9653 176.022 59.8101 176.121 59.7178C176.336 59.5186 176.459 59.2419 176.459 58.9433C176.459 58.3579 175.983 57.8841 175.395 57.8841C175.259 57.8841 175.149 57.7743 175.149 57.6389C175.149 57.5035 175.259 57.3937 175.395 57.3937Z" fill="white"/>
<path d="M183.434 15.2303C183.789 15.1687 184.137 15.1448 184.477 15.1612C187.97 15.3295 190.429 20.5474 189.946 25.7539L189.929 25.9265L189.935 25.9279C191.772 26.3413 192.317 27.7323 191.939 29.4939L191.922 29.5685C191.647 30.7716 190.289 31.8547 188.861 32.2795L188.828 32.2888L188.8 32.3929C188.759 32.5445 188.712 32.7067 188.661 32.8775L188.621 33.0071C188.388 33.7579 188.11 34.5091 187.786 35.2134C187.452 35.9375 187.087 36.5722 186.686 37.0937C186.393 37.4748 186.098 37.801 185.755 38.1329L185.624 38.2578C185.53 38.3465 184.979 38.8452 184.808 39.0101L184.788 39.0305C184.309 39.5074 184.133 39.8832 184.133 40.5717C184.133 40.8425 183.912 41.062 183.64 41.062C183.368 41.062 183.148 40.8425 183.148 40.5717C183.148 39.6064 183.437 38.9883 184.091 38.337L184.14 38.2894C184.35 38.0887 184.871 37.6171 184.947 37.5454C185.311 37.203 185.609 36.8813 185.904 36.4979C186.255 36.0407 186.585 35.467 186.891 34.8044C187.195 34.143 187.459 33.4309 187.68 32.7183L187.753 32.4749C187.788 32.3565 187.82 32.243 187.85 32.1354L187.927 31.8432C187.934 31.815 187.939 31.7925 187.943 31.776C187.986 31.5927 188.13 31.45 188.315 31.4087C189.525 31.1382 190.764 30.2148 190.961 29.3512C191.292 27.9044 190.896 27.0044 189.325 26.8182C189.051 26.7857 188.857 26.5355 188.895 26.2634C189.586 21.3442 187.331 16.2806 184.429 16.1408C184.164 16.128 183.889 16.1469 183.603 16.1965C182.446 16.3969 181.172 17.0848 179.877 18.1095C179.318 18.5514 178.794 19.0261 178.32 19.5006C178.209 19.6111 178.107 19.7163 178.013 19.8149L177.88 19.9576C177.805 20.039 177.754 20.096 177.729 20.1247C177.584 20.2919 177.345 20.3421 177.145 20.2474L176.993 20.1725C176.953 20.1523 176.907 20.129 176.856 20.1027L176.659 19.9986C176.49 19.9078 176.309 19.8069 176.119 19.6963C175.358 19.2542 174.597 18.7463 173.884 18.1784L173.712 18.0387L173.516 17.8756L173.443 18.0097C171.726 21.1766 171.118 24.6084 171.445 28.0533L171.463 28.2315C171.762 31.1063 172.733 33.8319 173.794 35.3289C174.231 35.9459 174.656 36.4377 175.139 36.9116L175.251 37.0207C175.315 37.0817 176.127 37.8213 176.36 38.0651L176.382 38.0878C176.848 38.5938 177.072 39.0948 177.089 39.7855L177.09 39.8729V42.1923C177.09 42.4632 176.869 42.6827 176.597 42.6827C176.338 42.6827 176.125 42.4827 176.106 42.2289L176.105 42.1923V39.8729C176.105 39.4174 175.994 39.1337 175.703 38.8035L175.656 38.7509C175.491 38.5719 174.662 37.8171 174.568 37.7271C173.995 37.178 173.498 36.6125 172.989 35.8942C171.827 34.2547 170.799 31.3689 170.483 28.3326C170.072 24.3895 170.821 20.4465 172.968 16.8565C173.129 16.5877 173.498 16.5355 173.727 16.7491C173.97 16.9749 174.228 17.1963 174.5 17.4128C175.172 17.9481 175.894 18.4298 176.615 18.8493C176.76 18.9331 176.898 19.0109 177.029 19.0825L177.244 19.1976L177.297 19.1419C177.346 19.0896 177.398 19.0355 177.452 18.98L177.621 18.809C178.121 18.309 178.673 17.8091 179.264 17.3416C180.677 16.2241 182.084 15.4642 183.434 15.2303Z" fill="white"/>
<path d="M175.329 43.7127C175.551 43.5814 175.835 43.644 175.982 43.8503L176.02 43.9088C176.042 43.9401 176.081 43.9906 176.138 44.0552C176.272 44.2085 176.444 44.3642 176.654 44.5108C177.272 44.9405 178.085 45.2009 179.129 45.2009C180.225 45.2009 181.133 45.0624 181.861 44.8338C182.11 44.7558 182.317 44.6733 182.484 44.5924L182.547 44.5612C182.584 44.5423 182.612 44.527 182.63 44.5163L182.651 44.5036C182.877 44.3534 183.183 44.4143 183.334 44.6396C183.485 44.8649 183.424 45.1694 183.197 45.3196C183.013 45.4422 182.668 45.6087 182.157 45.7691C181.333 46.0278 180.326 46.1817 179.129 46.1817C177.881 46.1817 176.872 45.8583 176.09 45.3148C175.812 45.1209 175.581 44.9117 175.396 44.7001L175.324 44.6152C175.246 44.5205 175.191 44.4417 175.157 44.3847C175.018 44.1518 175.095 43.851 175.329 43.7127Z" fill="white"/>
<path d="M184.084 39.9944C184.136 39.6599 184.451 39.4309 184.787 39.483C187.947 39.9723 191.263 41.7584 194.051 44.6586C197.291 48.0299 199.688 52.7288 200.932 58.6336L201.074 59.3145C202.701 67.2428 203.451 74.6272 202.913 80.8806C202.183 89.3763 199.097 95.0929 193.136 97.1487C189.795 98.3009 186.394 97.7276 183.014 95.7128C180.258 94.0705 177.601 91.5256 175.073 88.3229C173.47 86.2916 172.016 84.1182 170.735 81.9448L170.515 81.569C170.156 80.9505 169.835 80.3715 169.554 79.8423L169.366 79.4848C169.337 79.4294 169.309 79.3762 169.283 79.325L169.137 79.0351C168.989 78.7335 169.113 78.3727 169.408 78.2217L169.704 78.0897L169.826 78.0342C170.134 77.8944 170.476 77.7332 170.845 77.5527C171.899 77.0375 172.953 76.4731 173.934 75.8787C175.215 75.1027 176.271 74.3349 177.022 73.6038C177.308 73.3251 177.776 73.3895 177.979 73.7246L178.006 73.7736L178.066 73.8865C178.111 73.9708 178.162 74.066 178.221 74.1716L178.266 74.2527C178.486 74.6496 178.742 75.0926 179.032 75.5699C179.859 76.9337 180.784 78.2974 181.784 79.5675C182.947 81.0462 184.134 82.2986 185.322 83.252C187.02 84.6145 188.153 84.559 189.022 83.4135C189.833 82.3462 190.359 80.3732 190.505 78.1335C190.566 77.2016 190.569 76.1143 190.523 74.9039C190.472 73.5891 190.365 72.1816 190.217 70.7497L190.167 70.2769C190.116 69.8104 190.064 69.3641 190.011 68.9439L189.958 68.5283L189.88 67.9591C189.831 67.6241 190.064 67.3129 190.4 67.264C190.737 67.2152 191.049 67.4471 191.098 67.7821L191.165 68.2691C191.178 68.3669 191.192 68.4709 191.206 68.5806C191.287 69.2071 191.367 69.8954 191.442 70.6248C191.592 72.0807 191.701 73.5133 191.753 74.8569C191.801 76.1063 191.798 77.2342 191.734 78.213C191.574 80.6703 190.991 82.8533 190.005 84.1527C188.689 85.8853 186.759 85.9799 184.55 84.2065C183.28 83.188 182.031 81.8701 180.814 80.3234C179.782 79.0108 178.829 77.6071 177.978 76.2036C177.779 75.8762 177.596 75.5641 177.428 75.2709L177.286 75.0207L177.207 75.0871C176.518 75.6624 175.688 76.2424 174.742 76.8234L174.574 76.926C173.559 77.5415 172.473 78.1229 171.388 78.6532C171.217 78.7367 171.052 78.8163 170.892 78.8917L170.532 79.0603L170.642 79.2683L170.811 79.5841C171.102 80.1201 171.431 80.7036 171.797 81.3244C173.051 83.4531 174.476 85.5816 176.041 87.5655C181.511 94.4967 187.212 97.8946 192.733 95.9903C198.14 94.1252 200.993 88.8414 201.687 80.776C202.227 74.4858 201.43 66.9648 199.727 58.8853C198.529 53.1986 196.238 48.7072 193.161 45.5062C190.556 42.7961 187.483 41.1413 184.598 40.6943C184.262 40.6423 184.032 40.3289 184.084 39.9944Z" fill="white"/>
<path d="M164.38 71.3316C164.465 71.0038 164.8 70.8065 165.13 70.8909C165.459 70.9754 165.657 71.3096 165.572 71.6374L165.503 71.9097C165.41 72.2783 165.316 72.6752 165.203 73.1721L164.774 75.0726C164.73 75.2635 164.69 75.4394 164.649 75.6119L164.566 75.9596C163.904 78.7023 163.257 80.5166 162.278 82.0092C160.95 84.0331 159.114 85.1441 156.634 85.2073C153.521 85.2866 151.26 83.0563 149.697 79.3816C149.174 78.1531 148.766 76.8425 148.459 75.5326C148.351 75.0744 148.264 74.6487 148.195 74.2657L148.167 74.1111L148.123 73.8394C148.119 73.8103 148.115 73.7881 148.113 73.7731C148.067 73.4377 148.302 73.1282 148.638 73.0816C148.962 73.0369 149.261 73.2508 149.326 73.5647L149.335 73.6173L149.35 73.7156C149.365 73.8113 149.384 73.9229 149.407 74.0491C149.472 74.4118 149.555 74.8169 149.658 75.2535C149.95 76.5001 150.338 77.7459 150.83 78.9035C152.218 82.1659 154.123 84.045 156.602 83.9818C158.66 83.9294 160.132 83.0386 161.247 81.3388C162.167 79.9359 162.789 78.1407 163.45 75.3321L163.6 74.6842L163.974 73.0261C164.132 72.3307 164.253 71.8236 164.38 71.3316Z" fill="white"/>
<path d="M145.043 47.1297C147.083 44.3905 150.159 44.1688 152.47 47.1178C152.679 47.3847 152.631 47.7699 152.363 47.9781C152.095 48.1864 151.708 48.1388 151.499 47.8719C149.712 45.5922 147.608 45.7438 146.032 47.86C145.829 48.1319 145.444 48.1889 145.171 47.9872C144.897 47.7856 144.84 47.4017 145.043 47.1297Z" fill="white"/>
<path d="M175.629 72.0388C175.859 71.8788 176.174 71.9432 176.324 72.1737L176.343 72.2061L177.444 74.2166C177.574 74.4544 177.486 74.7523 177.247 74.8819C177.02 75.0054 176.738 74.9317 176.599 74.719L176.579 74.6861L175.741 73.1563L169.546 77.4647L170.124 78.5343C170.247 78.7614 170.171 79.042 169.957 79.179L169.924 79.1985C169.695 79.3207 169.414 79.2454 169.276 79.032L169.256 78.9989L168.471 77.545C168.359 77.338 168.411 77.0833 168.59 76.9356L168.623 76.9106L175.629 72.0388Z" fill="white"/>
<path d="M165.084 60.7564C166.599 59.8909 167.955 60.0377 169.113 61.0035C169.879 61.6426 170.381 62.3832 171.168 63.828L171.298 64.0699C171.554 64.5493 171.908 65.2551 172.341 66.1459L172.87 67.2415L172.919 67.3429C173.28 68.0969 173.659 68.8978 174.038 69.7045L174.506 70.7046L174.774 71.2814C174.888 71.5273 174.78 71.8187 174.533 71.9321C174.298 72.0402 174.021 71.948 173.897 71.7265L173.85 71.6285L173.307 70.4652L172.983 69.7757C172.768 69.3173 172.553 68.8627 172.342 68.4198L171.933 67.5638C171.283 66.2096 170.765 65.1619 170.43 64.5321L170.367 64.4154C169.602 63.0012 169.138 62.3037 168.481 61.7554C167.633 61.0486 166.724 60.9501 165.574 61.6071L165.415 61.7C163.074 63.0965 162.803 64.6613 164.156 67.3259L165.815 70.5898C167.242 73.3766 167.891 74.5599 169.332 77.0691C169.467 77.3042 169.385 77.6038 169.149 77.7382C168.913 77.8726 168.612 77.791 168.477 77.5559L167.738 76.2624C166.37 73.8491 165.645 72.4425 163.276 67.768C161.674 64.6112 162.103 62.4588 165.084 60.7564Z" fill="white"/>
<path d="M163.341 77.6319C163.613 77.6301 163.835 77.8481 163.837 78.1189C163.877 83.7922 163.509 89.4866 162.869 94.9114L162.798 95.5056C162.607 97.0742 162.404 98.5131 162.202 99.7999L162.109 100.379C162.079 100.563 162.05 100.736 162.023 100.9L161.899 101.597L161.873 101.795C161.863 101.866 161.852 101.937 161.841 102.009L161.806 102.224L161.648 103.083L161.644 103.102C161.629 103.197 161.62 103.27 161.616 103.322L161.614 103.35L161.634 103.354C161.726 103.37 161.867 103.379 162.066 103.381L162.128 103.381C162.725 103.381 163.889 103.548 165.49 103.838C165.729 103.881 165.976 103.927 166.228 103.975C166.737 104.071 167.253 104.173 167.761 104.275L168.707 104.47L169.133 104.56C175.46 105.777 182.602 106.175 188.298 105.845L188.998 105.801C190.914 105.677 192.457 105.55 193.663 105.428L194.121 105.379C194.264 105.364 194.396 105.349 194.517 105.334L194.633 105.32L194.566 104.77L194.502 104.223C194.427 103.575 194.353 102.894 194.283 102.194C194.175 101.104 194.083 100.044 194.013 99.043L193.983 98.5944C193.922 97.6349 193.885 96.7575 193.875 95.9782C193.871 95.7074 194.089 95.485 194.361 95.4815C194.633 95.478 194.856 95.6947 194.86 95.9655C194.871 96.7859 194.912 97.7222 194.981 98.753L194.996 98.9754C195.065 99.9659 195.156 101.016 195.264 102.097L195.324 102.688C195.385 103.273 195.448 103.842 195.512 104.385L195.544 104.654C195.572 104.894 195.599 105.114 195.624 105.311L195.671 105.679C195.706 105.943 195.523 106.186 195.259 106.227L195.121 106.247L194.898 106.276C194.597 106.314 194.22 106.357 193.763 106.403L193.24 106.455C192.019 106.571 190.501 106.689 188.658 106.806C182.935 107.166 175.723 106.791 169.275 105.585L168.916 105.516L168.182 105.362L168.067 105.339C167.404 105.202 166.717 105.066 166.044 104.938L165.553 104.846L165.068 104.759C163.697 104.514 162.674 104.37 162.171 104.362L161.976 104.361C161.194 104.345 160.811 104.197 160.667 103.681C160.615 103.492 160.618 103.299 160.661 103.017L160.672 102.944C160.691 102.831 160.803 102.246 160.835 102.059C160.858 101.923 160.879 101.791 160.898 101.658L160.925 101.457L160.929 101.427L160.998 101.047L161.094 100.486C161.136 100.229 161.182 99.9494 161.229 99.6482L161.304 99.1626C161.505 97.849 161.704 96.3863 161.891 94.797C162.526 89.41 162.892 83.7551 162.852 78.1259C162.85 77.8551 163.069 77.634 163.341 77.6319Z" fill="white"/>
<path d="M193.557 105.381C193.828 105.374 194.055 105.588 194.062 105.859L194.133 108.663C194.223 112.52 194.268 115.781 194.3 120.221L194.351 128.831C194.428 139.365 194.6 146.501 195.138 159.398C195.149 159.668 194.938 159.897 194.666 159.908C194.394 159.919 194.165 159.709 194.154 159.438L194.066 157.316C193.58 145.302 193.428 138.302 193.359 127.761L193.312 119.759C193.272 114.55 193.212 110.937 193.077 105.885C193.07 105.614 193.285 105.389 193.557 105.381Z" fill="white"/>
<path d="M174.244 109.043C174.38 109.037 174.495 109.141 174.502 109.276L174.528 109.773L174.573 110.565C174.583 110.733 174.594 110.907 174.605 111.085C174.692 112.442 174.797 113.798 174.921 115.064L174.967 115.518C175.028 116.113 175.092 116.671 175.16 117.185C175.272 118.039 175.406 118.777 175.558 119.408C175.72 120.078 175.892 120.592 176.062 120.968L176.105 121.061C176.181 121.219 176.237 121.309 176.265 121.345C176.35 121.45 176.333 121.605 176.227 121.689C176.121 121.774 175.966 121.757 175.881 121.652L175.851 121.611C175.797 121.534 175.724 121.409 175.639 121.226L175.613 121.169C175.429 120.764 175.248 120.221 175.079 119.522C174.923 118.874 174.786 118.119 174.672 117.249C174.586 116.6 174.506 115.884 174.431 115.111C174.319 113.967 174.222 112.749 174.141 111.524L174.092 110.765C174.074 110.478 174.058 110.206 174.044 109.951L174.01 109.299C174.003 109.164 174.108 109.049 174.244 109.043Z" fill="white"/>
<path d="M176.064 112.884C176.2 112.879 176.314 112.985 176.319 113.12L176.329 113.36L176.34 113.572C176.359 113.932 176.385 114.334 176.418 114.766C176.511 116.002 176.645 117.238 176.826 118.39C177.022 119.635 177.261 120.706 177.547 121.549C177.591 121.677 177.522 121.816 177.393 121.859C177.264 121.903 177.124 121.834 177.081 121.706C176.784 120.833 176.539 119.736 176.34 118.466C176.157 117.299 176.021 116.051 175.926 114.803L175.903 114.482C175.888 114.272 175.875 114.07 175.864 113.878L175.844 113.522L175.827 113.138C175.822 113.002 175.928 112.889 176.064 112.884Z" fill="white"/>
<path d="M161.916 103.378C162.176 103.378 162.388 103.578 162.407 103.832L162.408 103.869L162.408 119.368C162.406 126 162.359 131.701 162.217 137.32L162.177 138.805C161.956 146.399 161.58 151.519 160.996 153.454C160.918 153.713 160.643 153.86 160.383 153.782C160.122 153.704 159.975 153.431 160.053 153.172L160.088 153.051C160.652 151.01 161.026 145.422 161.232 137.296L161.261 136.12C161.384 130.756 161.423 125.262 161.423 118.903V103.869L161.425 103.832C161.444 103.578 161.656 103.378 161.916 103.378Z" fill="white"/>
<path d="M175.211 39.4756C175.551 39.4756 175.827 39.75 175.827 40.0885C175.827 40.4271 175.551 40.7015 175.211 40.7015C172.65 40.7015 170.141 42.0171 167.801 44.2292C166.971 45.0144 166.222 45.8574 165.57 46.7001C165.342 46.9946 165.142 47.2675 164.973 47.5116L164.848 47.6953L164.774 47.8077C164.592 48.0941 164.212 48.1799 163.925 47.9995C163.637 47.819 163.551 47.4405 163.732 47.1541L163.808 47.0383C163.848 46.978 163.898 46.9032 163.96 46.8149C164.141 46.5537 164.353 46.2635 164.595 45.9515C165.284 45.0616 166.074 44.1721 166.953 43.3402C169.5 40.9322 172.278 39.4756 175.211 39.4756Z" fill="white"/>
<path d="M182.484 6.6019L182.573 6.63337C182.84 6.73213 183.241 6.913 183.733 7.19101C184.638 7.70248 185.542 8.3771 186.384 9.23625C187.054 9.9189 187.657 10.6921 188.169 11.5462L188.397 11.9037L189.671 9.82953C189.895 9.46327 190.414 9.43738 190.677 9.76658L190.703 9.8019L190.918 10.1164C191.09 10.3709 191.288 10.6659 191.509 10.998L191.781 11.4108C192.334 12.2495 192.923 13.1647 193.535 14.1396C194.254 15.2848 194.574 16.0364 194.702 16.8356L194.714 16.9157C194.742 17.1143 194.758 17.2917 194.774 17.5647L194.807 18.1574C194.845 18.8066 194.888 19.2172 194.989 19.8036L195.027 20.0186C195.598 23.1431 194.578 25.0993 191.514 27.1491C191.232 27.3379 190.85 27.2632 190.66 26.9822C190.47 26.7012 190.545 26.3204 190.828 26.1316C193.479 24.3575 194.272 22.8781 193.833 20.3338L193.775 20.006C193.659 19.3358 193.614 18.8738 193.571 18.116L193.546 17.6478C193.531 17.4014 193.518 17.2493 193.495 17.0886C193.403 16.4487 193.15 15.8388 192.491 14.7893L192.189 14.3108C191.69 13.5218 191.208 12.7759 190.752 12.0831L190.221 11.2831L188.933 13.3816C188.704 13.7557 188.17 13.7729 187.914 13.428L187.121 12.1895C186.651 11.4049 186.107 10.7078 185.503 10.0927C184.79 9.3656 184.03 8.78619 183.268 8.33948L183.117 8.25216L183.148 8.39979C183.283 9.0144 183.437 9.62493 183.611 10.2051L183.686 10.4518C183.88 11.0692 183.106 11.5257 182.655 11.0598C182.045 10.4292 181.327 9.99869 180.517 9.74168C179.541 9.43213 178.496 9.38712 177.479 9.52287L177.457 9.5259L177.485 9.56638C177.623 9.77816 177.687 10.0175 177.652 10.2929L177.642 10.3524C177.528 10.9986 176.871 11.4596 175.655 11.8634C175.38 11.9545 175.094 12.0717 174.798 12.2139C173.867 12.661 172.861 13.3396 171.825 14.1869C171.121 14.7624 170.446 15.3804 169.824 15.9984C169.669 16.1529 169.525 16.2993 169.394 16.4357L169.2 16.6401L169.039 16.8147C168.943 16.9212 168.814 16.9904 168.674 17.012L168.656 17.0139L168.777 17.095C168.901 17.1768 169.031 17.2577 169.167 17.3376L169.305 17.417C170.206 17.9271 171.254 18.3302 172.456 18.5847C172.788 18.6551 173 18.9806 172.93 19.3117C172.859 19.6429 172.532 19.8542 172.199 19.7838C170.872 19.5027 169.705 19.0539 168.696 18.4827C168.061 18.1233 167.525 17.7365 167.084 17.3471C166.813 17.1071 166.629 16.914 166.53 16.7923C166.212 16.4019 166.476 15.8239 166.969 15.7945L167.008 15.7933H168.309L168.345 15.7551C168.498 15.5934 168.67 15.4162 168.859 15.2267L168.954 15.131C169.602 14.4866 170.306 13.8423 171.043 13.2396C172.149 12.3353 173.232 11.6048 174.263 11.1096C174.556 10.969 174.843 10.8483 175.125 10.7486L175.265 10.7004C175.746 10.5409 176.085 10.3842 176.29 10.2404C176.314 10.2235 176.336 10.2074 176.354 10.1923L176.382 10.1683C176.341 10.1295 176.285 10.0872 176.217 10.0439L176.176 10.0179C176.081 9.96093 175.977 9.90827 175.872 9.86251L175.792 9.82892L175.743 9.81019C175.194 9.61747 175.195 8.8449 175.744 8.65362L175.822 8.62775C175.991 8.57345 176.244 8.50458 176.566 8.43673C177.974 8.14049 179.469 8.12285 180.891 8.57358C181.266 8.69249 181.626 8.84231 181.97 9.02437L182.036 9.06029L182.007 8.93723L181.946 8.66193L181.887 8.38625C181.846 8.19348 181.81 8.00981 181.777 7.8372L181.72 7.52488L181.678 7.27705C181.606 6.82202 182.046 6.45405 182.484 6.6019Z" fill="white"/>
<path d="M226.617 99.2111C226.732 99.283 226.767 99.4344 226.695 99.5491L226.597 99.6999L226.531 99.7996C226.396 100.002 226.234 100.238 226.045 100.505L225.838 100.795C225.342 101.482 224.762 102.241 224.098 103.062C221.999 105.656 219.48 108.344 216.535 110.996L216.249 111.253C209.152 117.58 206.964 122.84 208.765 129.701C208.8 129.832 208.721 129.966 208.589 130C208.458 130.034 208.323 129.956 208.289 129.825C206.454 122.835 208.652 117.436 215.705 111.08L215.92 110.887C218.968 108.171 221.564 105.412 223.715 102.754L223.991 102.41C224.626 101.614 225.176 100.881 225.643 100.222L225.841 99.9392C225.945 99.7896 226.038 99.6525 226.121 99.5283L226.278 99.2886C226.35 99.1736 226.502 99.1392 226.617 99.2111Z" fill="white"/>
<path d="M219.334 103.192C221.074 100.593 225.11 98.3079 226.784 99.5057C227.657 100.13 227.851 101.037 227.498 102.208L227.473 102.288C227.228 103.053 226.887 103.723 225.975 105.282L225.613 105.897C225.048 106.853 225.042 107.142 225.394 107.523L225.42 107.55C225.466 107.599 225.79 107.911 225.926 108.051L225.947 108.074C226.552 108.717 226.895 109.447 226.98 110.547C227.11 112.233 226.078 113.338 223.63 114.779L223.3 114.971C222.852 115.227 222.034 115.69 221.855 115.793C220.389 116.638 219.459 117.285 218.716 118.046C217.635 119.152 217.345 119.926 217.458 120.905L217.475 121.047C217.488 121.138 217.504 121.23 217.53 121.363L217.631 121.854C217.895 123.114 217.941 123.888 217.685 124.978C216.888 128.371 214.332 130.08 210.01 130.253C209.738 130.263 209.509 130.053 209.498 129.782C209.487 129.512 209.698 129.283 209.97 129.273C213.884 129.117 216.04 127.674 216.726 124.755C216.934 123.866 216.906 123.233 216.691 122.174L216.559 121.531C216.517 121.315 216.499 121.195 216.479 121.016C216.331 119.735 216.729 118.672 218.01 117.362C218.779 116.576 219.696 115.921 221.07 115.114L221.457 114.89C221.793 114.698 222.674 114.199 222.984 114.019L223.229 113.876C225.292 112.648 226.087 111.778 225.998 110.622C225.931 109.753 225.684 109.23 225.228 108.744L225.181 108.695C225.057 108.57 224.806 108.328 224.723 108.243L224.706 108.226C224.013 107.501 223.98 106.76 224.718 105.479L225.066 104.885C226.836 101.842 227.075 100.922 226.209 100.302C225.161 99.552 221.702 101.496 220.203 103.664L220.154 103.736C219.604 104.557 218.992 104.786 217.583 104.912L217.149 104.948C215.942 105.052 215.361 105.17 214.573 105.533C213.411 106.069 212.31 107.051 211.213 108.66L211.035 108.923C210.254 110.088 209.721 111.017 209.363 111.796C209.237 112.07 209.136 112.318 209.046 112.565L208.985 112.741C208.918 112.943 208.785 113.364 208.789 113.351C208.702 113.617 208.625 113.805 208.518 113.997C208.182 114.601 207.572 115.153 206.054 116.241C204.152 117.605 202.735 120.617 202.705 123.415C202.672 126.531 204.275 128.731 207.499 129.279C207.768 129.325 207.948 129.578 207.902 129.845C207.856 130.112 207.602 130.292 207.334 130.246C203.602 129.611 201.682 126.976 201.72 123.405C201.753 120.308 203.309 117.001 205.479 115.445L205.737 115.259C206.948 114.379 207.43 113.93 207.657 113.522C207.72 113.408 207.771 113.288 207.83 113.114L208.053 112.423C208.06 112.403 208.066 112.385 208.071 112.37C208.182 112.051 208.307 111.737 208.467 111.388C208.876 110.498 209.49 109.441 210.398 108.109C211.591 106.359 212.826 105.258 214.159 104.643C215.046 104.234 215.698 104.095 216.926 103.983L217.486 103.936C218.585 103.839 218.981 103.698 219.309 103.229L219.334 103.192Z" fill="white"/>
<path d="M203.184 91.4765C203.319 91.4632 203.44 91.5617 203.453 91.6965L203.478 91.9143L203.517 92.2249C203.537 92.38 203.561 92.5497 203.588 92.7334C203.711 93.5746 203.879 94.5343 204.096 95.5956C204.697 98.5212 205.556 101.637 206.719 104.823L206.85 105.177C207.873 107.927 208.495 110.36 208.738 112.628C208.752 112.763 208.654 112.884 208.519 112.898C208.384 112.913 208.262 112.815 208.248 112.68C208.017 110.523 207.434 108.207 206.479 105.593L206.388 105.347C205.149 102.014 204.241 98.7511 203.614 95.6938C203.394 94.6231 203.225 93.6544 203.101 92.8043L203.069 92.5876C203.045 92.4127 203.023 92.2521 203.005 92.1062L202.971 91.8159L202.963 91.7445C202.95 91.6098 203.049 91.4897 203.184 91.4765Z" fill="white"/>
<path d="M202.588 91.4833C204.311 90.693 206.423 93.8743 206.817 96.7947L206.829 96.8831C206.889 97.3719 207.068 97.5857 207.631 97.8736L207.788 97.9512C207.897 98.0028 208.229 98.162 208.344 98.2205C208.593 98.3474 208.808 98.4722 209.016 98.6159C210.275 99.4873 211.073 100.966 211.434 103.575L211.453 103.713C211.643 105.181 211.722 106.319 211.713 107.24C211.711 107.511 211.488 107.729 211.216 107.726C210.944 107.723 210.726 107.502 210.728 107.231L210.729 107.026C210.724 106.188 210.647 105.155 210.476 103.839C210.158 101.401 209.486 100.136 208.453 99.4212C208.314 99.3245 208.167 99.2366 207.999 99.1474L207.828 99.0601C207.648 98.9715 207.291 98.8013 207.326 98.8181C206.42 98.3783 205.989 97.9468 205.861 97.078L205.851 97.0024C205.56 94.636 203.825 91.9957 203 92.3741C202.179 92.7506 202.025 93.7134 202.239 96.9214L202.29 97.6349C202.398 99.0885 202.146 99.7155 201.376 100.25L200.97 100.525C200.563 100.804 200.481 100.89 200.263 101.184L200.237 101.22C200.046 101.479 199.867 101.8 199.7 102.199C199.382 102.961 199.42 103.706 199.781 104.583L199.821 104.678C200.023 105.147 200.118 105.338 200.601 106.092L201.329 107.211C202.236 108.599 202.724 109.51 203.042 110.581C203.533 112.237 203.421 113.303 202.795 114.579L202.706 114.755C202.58 114.996 202.323 115.476 202.298 115.523C201.868 116.344 201.625 116.989 201.482 117.84C201.146 119.839 201.511 121.318 202.564 122.388C202.755 122.582 202.752 122.892 202.557 123.082C202.363 123.271 202.051 123.268 201.861 123.074C200.569 121.761 200.126 119.967 200.51 117.678C200.665 116.762 200.922 116.052 201.351 115.211L201.451 115.019C201.535 114.863 201.771 114.422 201.858 114.252L201.87 114.227C202.428 113.125 202.526 112.304 202.097 110.859C201.822 109.933 201.39 109.115 200.585 107.872L199.858 106.755C199.257 105.824 199.158 105.627 198.916 105.066C198.421 103.92 198.349 102.879 198.791 101.822C198.987 101.352 199.203 100.964 199.443 100.639C199.666 100.337 199.902 100.098 200.171 99.8873C200.253 99.8227 200.336 99.7629 200.429 99.6995L200.62 99.5733C200.683 99.5319 200.751 99.4876 200.775 99.4712C201.262 99.1449 201.387 98.8716 201.313 97.7881L201.264 97.1166C201.14 95.3769 201.122 94.6478 201.205 93.8628C201.333 92.6592 201.749 91.8682 202.588 91.4833Z" fill="white"/>
<path d="M214.749 129.806C210.827 131.505 206.895 131.309 203.44 129.806C203.115 129.665 202.75 129.902 202.75 130.256V132.209C202.75 132.404 202.866 132.58 203.046 132.658C206.738 134.264 210.951 134.474 215.142 132.658C215.321 132.581 215.438 132.404 215.438 132.209V130.256C215.438 129.902 215.074 129.665 214.749 129.806ZM214.452 130.985V131.883L214.447 131.886C210.776 133.386 207.108 133.239 203.841 131.927L203.735 131.884V130.986L203.845 131.028C207.115 132.247 210.751 132.378 214.393 131.008L214.452 130.985Z" fill="white"/>
<path d="M213.661 132.77C213.741 132.511 214.017 132.366 214.277 132.445C214.525 132.521 214.669 132.775 214.612 133.023L214.603 133.058L212.165 140.97C212.14 141.05 212.095 141.123 212.034 141.181C211.899 141.31 211.65 141.478 211.28 141.637C210.693 141.889 209.967 142.038 209.094 142.038C208.222 142.038 207.487 141.889 206.886 141.639C206.508 141.482 206.252 141.318 206.111 141.192C206.057 141.144 206.014 141.085 205.986 141.018L205.971 140.978L204.02 134.988C203.936 134.73 204.078 134.454 204.337 134.37C204.583 134.29 204.847 134.415 204.944 134.649L204.957 134.685L206.858 140.524L206.862 140.527C206.951 140.585 207.059 140.643 207.187 140.7L207.265 140.734C207.747 140.935 208.353 141.057 209.094 141.057C209.833 141.057 210.427 140.935 210.89 140.736C211.036 140.674 211.147 140.614 211.227 140.565L211.268 140.538L213.661 132.77Z" fill="white"/>
<path d="M175.615 70.9944C175.874 70.9944 176.087 71.1944 176.106 71.4482L176.107 71.4848V72.6469C176.107 72.9178 175.887 73.1373 175.615 73.1373C175.355 73.1373 175.142 72.9373 175.123 72.6835L175.122 72.6469V71.4848C175.122 71.2139 175.343 70.9944 175.615 70.9944Z" fill="white"/>
<path d="M176.654 120.853C177.6 120.827 178.192 121.548 178.536 122.718C178.748 123.438 178.842 124.172 178.907 125.155L179.027 127.011C179.636 136.582 180.207 148.171 180.557 158.929C180.566 159.199 180.353 159.426 180.081 159.435C179.809 159.444 179.582 159.231 179.573 158.961L179.52 157.369C179.16 146.902 178.604 135.788 178.014 126.605L177.924 125.219C177.789 123.161 177.392 121.814 176.68 121.833C176.267 121.844 175.945 122.133 175.698 122.663C175.599 122.874 175.522 123.105 175.466 123.337L175.437 123.462C175.424 123.524 175.416 123.572 175.411 123.6L175.408 123.628L175.336 124.459C175.307 124.8 175.277 125.176 175.244 125.585L175.186 126.34C175.067 127.896 174.948 129.599 174.837 131.412C174.504 136.84 174.294 142.247 174.268 147.294C174.259 149.053 174.272 150.742 174.31 152.352C174.316 152.623 174.101 152.848 173.829 152.854C173.557 152.86 173.332 152.646 173.325 152.375C173.287 150.755 173.274 149.057 173.283 147.289C173.308 142.425 173.503 137.231 173.814 132.005L173.854 131.352C173.965 129.534 174.084 127.826 174.204 126.265L174.303 124.999L174.427 123.533C174.428 123.524 174.429 123.515 174.43 123.506L174.44 123.441C174.453 123.356 174.476 123.242 174.509 123.106C174.579 122.816 174.676 122.525 174.804 122.249C175.193 121.417 175.797 120.876 176.654 120.853Z" fill="white"/>
<path d="M25.8524 96.5492C45.259 68.0782 63.5163 56.2569 85.3396 59.3986C98.3471 61.2713 106.036 69.4481 107.64 80.8393C108.59 87.5849 107.334 91.8386 104.33 93.929C102.202 95.4092 99.4485 95.6359 96.781 95.0736L96.6477 95.0449C94.2887 94.5232 92.2148 94.6022 90.5015 95.0452C90.2406 95.1126 90.0095 95.1838 89.8095 95.2549L89.7257 95.2854C89.6283 95.3216 89.558 95.3503 89.5158 95.3688L89.4865 95.382C89.055 95.5874 88.5692 95.2463 88.6072 94.7814L88.6218 94.6553C88.6249 94.6251 88.6283 94.5888 88.6318 94.5468C88.6887 93.8534 88.6496 93.0706 88.4468 92.3474C88.2106 91.5054 87.7835 90.8793 87.1294 90.5175C86.0803 89.9372 84.7773 89.9733 83.5194 90.7298C81.9689 91.6622 80.5831 93.6006 79.5537 96.5594L79.4676 96.8109C78.2233 100.501 78.4624 102.35 79.4814 103.099C79.6847 103.248 79.8443 103.317 80.1908 103.432C80.7092 103.604 81.2944 103.52 81.8919 103.248L81.9631 103.215L81.9654 103.213C82.3235 102.95 82.6074 102.785 82.7931 102.7L82.829 102.684C83.4815 102.401 84.0154 103.263 83.4688 103.717C83.316 103.844 83.0691 104.017 82.7465 104.192L82.6126 104.262C81.5171 105.093 80.392 106.425 79.3788 108.381C77.9828 111.076 76.9873 114.622 76.5372 119.137L76.514 119.376C75.9243 125.602 76.0951 127.565 76.9832 129.408L77.1796 129.806C77.249 129.947 77.3045 130.063 77.3586 130.18L77.4299 130.337C78.0378 131.711 78.3823 133.298 78.5466 136.054L78.6362 137.708C79.0539 145.313 79.3153 146.344 81.6385 149.757L82.0452 150.35C83.9957 153.174 85.5768 156.379 86.3343 159.648C87.3665 164.102 86.7533 168.221 84.0773 171.732C81.2247 175.476 75.4281 178.295 68.8505 179.302C62.023 180.348 55.322 179.316 50.6994 176.206C48.2368 174.55 46.3488 173.104 44.5006 171.526L44.0412 171.13C43.4602 170.624 42.5017 169.779 42.4242 169.712L42.2344 169.548C41.713 169.1 41.3252 168.791 40.9492 168.527C39.7844 167.711 38.6629 167.321 36.7783 167.137L36.5333 167.115C35.1452 166.996 33.8993 167.019 30.43 167.209L28.2418 167.332C25.4252 167.487 23.6464 167.547 21.7262 167.528L21.6007 167.527C17.6514 167.48 14.393 167.046 11.6344 166.072C7.36961 164.566 4.48495 159.952 3.72887 153.468C2.92626 146.585 4.53407 138.095 8.58018 129.184L9.30523 127.59C16.9743 110.759 20.0211 105.104 25.8524 96.5492ZM85.1634 60.6119C63.8995 57.5508 46.0413 69.1136 26.8712 97.2377L26.5168 97.7592C20.7828 106.221 17.7203 112.03 9.70214 129.689C5.74305 138.409 4.17678 146.679 4.95194 153.327C5.65877 159.389 8.28458 163.588 12.0459 164.916C14.6011 165.818 17.6565 166.238 21.3719 166.297L21.6152 166.301C23.5095 166.323 25.2483 166.267 27.9969 166.117L30.7578 165.964C33.8353 165.799 35.0975 165.774 36.4216 165.876L36.6402 165.894L36.7504 165.903C38.8758 166.096 40.2171 166.538 41.5639 167.459L41.6579 167.525C42.0716 167.814 42.4867 168.146 43.0346 168.616L43.3331 168.875C43.6687 169.17 44.717 170.093 45.1205 170.44C46.993 172.049 48.886 173.507 51.3887 175.191C55.7261 178.108 62.1192 179.093 68.6633 178.09C74.9518 177.127 80.4628 174.448 83.0964 170.991C85.532 167.796 86.0901 164.047 85.1346 159.924C84.4327 156.895 82.9692 153.891 81.1576 151.229L80.7687 150.663C78.1659 146.862 77.8496 145.767 77.4086 137.803L77.3352 136.442C77.1836 133.573 76.8583 132.058 76.2724 130.763L76.2401 130.692C76.2105 130.628 76.1801 130.564 76.1463 130.494L75.9039 130.001C74.8725 127.898 74.6732 125.754 75.2882 119.261C75.7409 114.481 76.7887 110.706 78.2845 107.819C78.8739 106.681 79.5057 105.729 80.1563 104.946L80.2592 104.824L80.3477 104.721L80.342 104.721C80.2289 104.705 80.1161 104.683 80.0036 104.654L79.8913 104.623L79.8017 104.595L79.6488 104.544C79.5338 104.504 79.4642 104.477 79.3591 104.432C79.1444 104.339 78.9428 104.226 78.7504 104.085C77.1849 102.935 76.893 100.466 78.3902 96.1583C79.5068 92.9488 81.0595 90.7769 82.8828 89.6804C84.5146 88.699 86.2884 88.6499 87.7273 89.4458C88.701 89.9844 89.3148 90.8842 89.6327 92.0177C89.7981 92.6076 89.8736 93.2125 89.8855 93.7948L89.8871 93.9416L90.0028 93.9092L90.0958 93.8839L90.192 93.8586C92.0423 93.3802 94.2509 93.2866 96.7365 93.8096L96.9145 93.8481C99.3192 94.3792 101.798 94.1945 103.624 92.9241C106.192 91.1378 107.313 87.3419 106.421 81.0096C104.89 70.1438 97.613 62.4043 85.1634 60.6119Z" fill="white"/>
<path d="M102.202 94.0496C102.281 93.7904 102.556 93.6439 102.816 93.7223C103.077 93.8008 103.224 94.0745 103.145 94.3337C97.6419 112.441 87.4061 122.213 75.6905 122.538C75.4186 122.545 75.192 122.332 75.1843 122.061C75.1769 121.79 75.3912 121.565 75.6631 121.557C86.904 121.246 96.8115 111.787 102.202 94.0496Z" fill="white"/>
<path d="M78.6187 146.261C78.7864 145.966 79.1621 145.863 79.4579 146.03C82.9507 148.001 86.3356 150.243 89.5989 152.765C95.6661 157.457 99.6757 162.768 102.316 169.106L102.435 169.393C104.256 173.832 105.17 177.678 106.523 185.537L107.201 189.509C107.268 189.897 107.328 190.241 107.391 190.591L107.481 191.09C108.743 198.041 110.101 202.847 112.405 207.527C115.26 213.323 119.432 218.359 125.466 222.918C125.736 223.123 125.789 223.507 125.584 223.777C125.378 224.047 124.992 224.1 124.721 223.895C118.535 219.22 114.239 214.035 111.3 208.067C108.968 203.33 107.587 198.493 106.321 191.592L106.141 190.595C106.079 190.244 106.017 189.889 105.946 189.48L105.398 186.261C103.996 178.054 103.092 174.203 101.237 169.716L101.179 169.575C98.6191 163.431 94.7397 158.293 88.8438 153.733C85.6278 151.248 82.2922 149.039 78.8507 147.096C78.5549 146.929 78.4511 146.555 78.6187 146.261Z" fill="white"/>
<path d="M8.53851 163.719C8.60092 163.386 8.92245 163.167 9.25669 163.229C9.59092 163.291 9.81128 163.611 9.74887 163.944C8.92285 168.349 8.36728 173.369 8.10136 179.047C7.78589 185.766 7.83188 192.032 8.19688 197.86C8.21804 198.197 7.9601 198.488 7.62075 198.509C7.2814 198.531 6.98915 198.274 6.96798 197.936C6.60019 192.064 6.55387 185.753 6.87142 178.99C7.13987 173.257 7.70161 168.182 8.53851 163.719Z" fill="white"/>
<path d="M71.7656 195.621C72.0247 195.604 72.2502 195.789 72.2859 196.041L72.2914 196.103L72.2966 196.17C72.303 196.25 72.3112 196.344 72.3214 196.452L72.3544 196.781C72.3746 196.972 72.3982 197.179 72.4254 197.4L72.4422 197.535C72.5898 198.704 72.8023 200.009 73.0914 201.414C73.9174 205.429 75.1902 209.443 77.0015 213.185C78.8433 216.99 81.1466 220.299 83.9585 222.971C84.1553 223.158 84.1626 223.468 83.9748 223.664C83.787 223.86 83.4752 223.867 83.2785 223.68C80.3747 220.921 78.0045 217.516 76.1141 213.611C74.2643 209.789 72.9677 205.7 72.1264 201.611C71.8505 200.269 71.6429 199.017 71.4939 197.882L71.4648 197.657C71.4237 197.331 71.3899 197.034 71.3626 196.766L71.3346 196.478L71.3068 196.142C71.2888 195.872 71.4942 195.639 71.7656 195.621Z" fill="white"/>
<path d="M69.8549 197.431C70.1014 197.352 70.3649 197.476 70.4616 197.711L70.4917 197.795C70.5047 197.83 70.5236 197.878 70.5489 197.939C70.619 198.107 70.7088 198.295 70.8197 198.5C71.1391 199.088 71.5627 199.677 72.1029 200.227C72.3163 200.445 72.5445 200.652 72.788 200.848C72.9995 201.018 73.0325 201.327 72.8616 201.538C72.6906 201.748 72.3806 201.781 72.169 201.611C71.8951 201.391 71.6384 201.158 71.3984 200.913C70.7908 200.294 70.3143 199.631 69.9533 198.966C69.7339 198.562 69.6003 198.242 69.5373 198.048C69.4538 197.79 69.596 197.514 69.8549 197.431Z" fill="white"/>
<path d="M101.063 44.2552L96.6768 56.3869C96.5326 56.7858 97.0688 57.071 97.3216 56.7299L104.874 46.54C105.003 46.3668 104.955 46.1213 104.771 46.0084L101.604 44.0666C101.404 43.9441 101.142 44.0355 101.063 44.2552ZM101.604 44.9304L104.041 46.4251L98.2277 54.2683L101.604 44.9304Z" fill="white"/>
<path d="M89.0808 35.4296H82.9884C82.7516 35.4296 82.5759 35.6485 82.6281 35.8785L86.5264 53.0415C86.6176 53.4428 87.2009 53.415 87.2531 53.0068L89.4473 35.8438C89.4754 35.6241 89.3033 35.4296 89.0808 35.4296ZM88.6614 36.1652L86.7847 50.8444L83.4506 36.1652H88.6614Z" fill="white"/>
<path d="M70.503 41.8472L65.5778 44.4314C65.3637 44.5438 65.3142 44.8273 65.4776 45.0051L74.855 55.2073C75.1258 55.5019 75.6079 55.2159 75.4765 54.8385L71.0242 42.0521C70.9501 41.8393 70.7031 41.7422 70.503 41.8472ZM70.467 42.6975L74.1929 53.3976L66.3454 44.86L70.467 42.6975Z" fill="white"/>
<path d="M92.8522 121.459C95.3142 120.855 97.2126 121.696 97.7711 123.921C97.837 124.184 97.6765 124.45 97.4126 124.516C97.1487 124.581 96.8814 124.421 96.8154 124.159C96.4035 122.517 95.0677 121.926 93.0877 122.411C91.0941 122.9 88.8065 124.429 87.0112 126.529L86.5083 127.124C84.682 129.268 81.7629 132.476 78.2761 136.211C78.0909 136.41 77.7793 136.421 77.5801 136.237C77.3808 136.052 77.3694 135.742 77.5546 135.543L78.6573 134.359C81.8508 130.922 84.4783 128.014 86.077 126.112L86.1536 126.021C88.0909 123.708 90.6032 122.01 92.8522 121.459Z" fill="white"/>
<path d="M92.4977 128.432C92.7503 128.332 93.0369 128.454 93.1379 128.705C93.2389 128.957 93.1161 129.242 92.8635 129.343C92.0415 129.67 91.2489 129.67 90.5534 129.472C90.3731 129.421 90.2383 129.367 90.1554 129.326C89.9121 129.205 89.8135 128.91 89.9352 128.668C90.051 128.438 90.3249 128.338 90.5608 128.433L90.628 128.463C90.6687 128.48 90.7352 128.504 90.824 128.529C91.3237 128.671 91.897 128.671 92.4977 128.432Z" fill="white"/>
<path d="M99.6836 122.286C101.475 121.88 102.964 122.622 103.891 124.597C104.006 124.843 103.9 125.134 103.653 125.249C103.407 125.364 103.114 125.258 102.998 125.012C102.267 123.452 101.238 122.94 99.902 123.242C98.7618 123.5 97.442 124.357 96.2101 125.558L96.1047 125.662C95.1648 126.597 94.2254 127.465 93.3241 128.25L93.0996 128.445C92.7978 128.705 92.5197 128.939 92.2697 129.145L92.0167 129.351L91.8327 129.498C91.6189 129.666 91.3093 129.629 91.1412 129.416C90.9815 129.213 91.007 128.925 91.1933 128.753L91.234 128.719L91.3967 128.589L91.552 128.463C91.8189 128.245 92.1219 127.991 92.4549 127.704C93.334 126.946 94.2542 126.104 95.1776 125.196L95.4086 124.968C96.7896 123.594 98.297 122.6 99.6836 122.286Z" fill="white"/>
<path d="M102.388 124.916C104.672 123.292 107.931 123.472 109.254 125.842C109.386 126.079 109.3 126.377 109.063 126.509C108.825 126.64 108.525 126.555 108.393 126.318C107.399 124.537 104.817 124.394 102.96 125.714L102.782 125.843C102.265 126.217 101.658 126.688 100.945 127.263L100.56 127.574L99.9815 128.05C99.2479 128.657 97.6448 129.989 97.2813 130.278C96.3262 131.039 95.4131 131.257 94.6854 131.16L94.6212 131.151C94.5923 131.146 94.5683 131.141 94.5492 131.136C94.2853 131.07 94.1249 130.804 94.1908 130.541C94.2538 130.291 94.5003 130.134 94.7521 130.177L94.7881 130.185C94.7848 130.184 94.7943 130.186 94.8156 130.188C94.9745 130.209 95.189 130.202 95.447 130.14C95.8352 130.047 96.2445 129.848 96.6659 129.512L96.9537 129.279C97.6928 128.673 99.3434 127.3 99.67 127.033L100.066 126.71C100.994 125.957 101.755 125.366 102.388 124.916Z" fill="white"/>
<path d="M116.028 123.727L119.167 124.262C119.382 124.297 119.555 124.325 119.659 124.34L119.882 124.371C120.539 124.458 120.945 124.467 121.335 124.408C121.458 124.389 121.585 124.362 121.723 124.327L121.932 124.268C121.983 124.254 122.034 124.238 122.101 124.217L122.708 124.021C122.943 123.946 123.109 123.898 123.292 123.852C124.589 123.525 125.596 123.712 126.413 124.702C127.928 126.534 126.819 129.42 124.022 130.592C123.236 130.923 122.387 131.089 121.443 131.127C120.675 131.157 120.003 131.115 118.866 130.988L117.947 130.885C117.034 130.787 116.648 130.77 116.192 130.805C114.321 130.95 110.51 133.995 106.662 138.631L106.475 138.859C104.786 140.931 103.927 142.491 103.818 143.458C103.755 144.024 103.94 144.225 104.456 144.224L104.505 144.224C105.851 144.19 106.563 143.361 108.26 139.571C109.171 137.536 110.462 136.269 111.883 135.94C113.264 135.62 114.575 136.247 115.298 137.538C116.66 139.968 115.115 144.38 111.897 147.5L111.599 147.787C108.644 150.612 107.452 151.102 103.581 151.191L103.452 151.194C102.242 151.219 101.295 151.183 99.9475 151.084L98.4992 150.978C98.1379 150.954 97.9504 150.948 97.6449 150.943C96.761 150.928 95.9801 150.996 95.1115 151.181C93.6412 151.492 92.8138 151.921 91.966 152.795C91.7297 153.038 91.3399 153.045 91.0955 152.809C90.851 152.574 90.8444 152.186 91.0807 151.943C92.1072 150.885 93.155 150.342 94.8547 149.982C95.7542 149.791 96.5752 149.712 97.4724 149.715L97.8483 149.721C98.1693 149.728 98.4059 149.74 98.9827 149.782L100.221 149.874C101.436 149.961 102.317 149.991 103.427 149.968L103.67 149.963C107.206 149.875 108.091 149.469 110.941 146.715L111.038 146.621C113.903 143.844 115.257 139.979 114.222 138.135C113.189 136.289 110.89 136.801 109.429 139.973L109.162 140.564C107.425 144.357 106.452 145.401 104.535 145.449C103.264 145.479 102.442 144.676 102.595 143.322C102.738 142.047 103.725 140.268 105.611 137.974L105.713 137.851C109.767 132.966 113.776 129.762 116.096 129.583L116.24 129.573C116.759 129.542 117.216 129.571 118.24 129.684L119.113 129.782C120.123 129.892 120.728 129.928 121.393 129.902C122.199 129.87 122.904 129.731 123.544 129.462C125.644 128.582 126.4 126.615 125.462 125.481C124.995 124.915 124.474 124.819 123.594 125.04L123.454 125.077C123.375 125.099 123.292 125.124 123.196 125.153L122.396 125.409C122.313 125.435 122.247 125.454 122.162 125.478C121.936 125.542 121.728 125.588 121.521 125.619C120.977 125.702 120.444 125.687 119.625 125.574L119.449 125.549C118.774 125.446 116.004 124.965 115.96 124.958C112.755 124.418 110.127 125.44 107.819 127.695L101.06 134.423C100.418 135.063 99.7273 135.165 99.172 134.867C99.0566 134.806 98.9698 134.738 98.9091 134.678C98.6687 134.439 98.6687 134.05 98.9091 133.811C99.1495 133.572 99.5393 133.572 99.7798 133.811L99.7558 133.788C99.7722 133.797 99.7906 133.801 99.8207 133.796C99.9064 133.784 100.028 133.717 100.19 133.556L106.851 126.924C109.412 124.374 112.41 123.16 116.028 123.727Z" fill="white"/>
<path d="M113.658 137.385L113.667 137.385C113.755 137.381 113.868 137.388 113.998 137.414C114.192 137.454 114.384 137.53 114.564 137.651C115.072 137.993 115.385 138.623 115.427 139.581C115.433 139.717 115.328 139.831 115.192 139.837C115.056 139.843 114.941 139.738 114.935 139.603C114.9 138.791 114.658 138.307 114.288 138.057C114.09 137.924 113.886 137.875 113.727 137.874L113.662 137.876C112.791 137.86 112.225 138.261 112.108 138.792C112.013 139.22 112.255 139.517 112.726 139.46L112.772 139.453C114.415 139.18 115.438 139.882 115.22 141.273C115.199 141.406 115.073 141.498 114.939 141.477C114.805 141.456 114.713 141.331 114.734 141.197C114.889 140.205 114.225 139.73 112.924 139.925L112.853 139.937C111.995 140.079 111.457 139.456 111.627 138.686C111.793 137.935 112.54 137.391 113.597 137.385L113.658 137.385Z" fill="white"/>
<path d="M124.473 124.239C124.536 124.119 124.684 124.072 124.805 124.134C125.677 124.584 125.975 125.33 125.738 126.049C125.52 126.713 124.869 127.138 124.493 126.622C123.891 125.798 123.24 125.373 121.826 125.163C121.692 125.143 121.599 125.019 121.619 124.885C121.639 124.751 121.764 124.658 121.898 124.678C123.45 124.908 124.215 125.408 124.891 126.334C124.935 126.394 125.153 126.252 125.27 125.897C125.433 125.404 125.234 124.908 124.578 124.57C124.458 124.507 124.411 124.359 124.473 124.239Z" fill="white"/>
<path d="M128.439 101.309L130.168 101.837C130.428 101.916 130.574 102.191 130.494 102.45C130.414 102.709 130.139 102.854 129.879 102.775L128.149 102.246C127.839 102.15 127.456 102.335 127.297 102.668L127.278 102.711L118.327 124.846C118.225 125.097 117.938 125.219 117.686 125.118C117.446 125.021 117.324 124.758 117.4 124.516L117.413 124.48L126.365 102.345C126.697 101.523 127.615 101.055 128.439 101.309ZM150.767 108.132L154.883 109.39C155.721 109.648 156.129 110.541 155.823 111.373L155.802 111.427L154.918 113.616C154.817 113.868 154.53 113.989 154.278 113.888C154.037 113.792 153.915 113.529 153.991 113.287L154.004 113.251L154.889 111.06C155.022 110.732 154.883 110.417 154.593 110.327L150.478 109.07C150.218 108.99 150.072 108.716 150.151 108.457C150.231 108.198 150.507 108.053 150.767 108.132Z" fill="white"/>
<path d="M115.136 130.11C115.238 129.858 115.524 129.737 115.777 129.838C116.017 129.934 116.139 130.198 116.063 130.44L116.05 130.476L113.533 136.701C113.431 136.952 113.145 137.074 112.892 136.973C112.652 136.877 112.53 136.613 112.606 136.371L112.619 136.335L115.136 130.11Z" fill="white"/>
<path d="M146.151 133.32C146.202 133.194 146.345 133.133 146.472 133.184C146.589 133.231 146.65 133.357 146.617 133.476L146.608 133.503L136.733 157.921C136.455 158.609 135.699 159.008 135.014 158.829L134.96 158.814L108.517 150.732C108.146 150.619 107.864 150.351 107.731 149.998C107.683 149.871 107.747 149.73 107.875 149.682C108.002 149.635 108.144 149.699 108.192 149.826C108.266 150.023 108.414 150.173 108.614 150.248L108.661 150.264L135.105 158.345C135.538 158.478 136.049 158.23 136.256 157.784L136.276 157.738L146.151 133.32Z" fill="white"/>
<path d="M109.09 148.886C109.141 148.76 109.284 148.7 109.41 148.75C109.527 148.797 109.588 148.924 109.555 149.042L109.546 149.07L109.396 149.44C109.345 149.565 109.202 149.626 109.075 149.575C108.958 149.528 108.897 149.402 108.93 149.283L108.939 149.256L109.09 148.886Z" fill="white"/>
<path d="M145.942 138.103C146.044 137.852 146.33 137.73 146.583 137.83C146.823 137.926 146.946 138.19 146.87 138.432L146.857 138.468L137.99 160.51C137.659 161.309 136.765 161.772 135.949 161.559L135.892 161.543L108.951 153.461C108.394 153.294 108.005 152.837 107.917 152.276L107.922 152.318L107.483 150.518C107.419 150.255 107.581 149.99 107.845 149.926C108.098 149.865 108.352 150.01 108.43 150.252L108.44 150.287L108.866 152.03L108.873 152.05L108.882 152.086L108.89 152.124C108.918 152.304 109.029 152.444 109.196 152.509L109.235 152.522L136.177 160.604C136.5 160.701 136.898 160.512 137.059 160.181L137.077 160.141L145.942 138.103Z" fill="white"/>
<path d="M145.809 133.182C145.936 132.868 146.295 132.716 146.61 132.842C146.912 132.964 147.065 133.297 146.965 133.601L146.951 133.64L137.076 158.058C136.728 158.919 135.781 159.416 134.91 159.182L134.852 159.165L108.409 151.084C107.97 150.95 107.625 150.644 107.437 150.242L107.419 150.202L107.404 150.171C107.303 149.957 107.334 149.697 107.496 149.511L107.529 149.476C107.835 149.171 108.349 149.27 108.524 149.655L108.54 149.694C108.577 149.791 108.643 149.861 108.735 149.899L108.77 149.912L135.214 157.994C135.463 158.07 135.783 157.916 135.917 157.639L135.934 157.6L145.809 133.182Z" fill="white"/>
<path d="M155.166 110.653C155.106 110.35 155.541 110.245 155.638 110.519L155.647 110.549L156.122 112.513C156.154 112.645 156.073 112.777 155.94 112.809C155.818 112.838 155.694 112.771 155.652 112.655L155.643 112.628L155.42 111.705L154.791 113.26C154.744 113.377 154.617 113.438 154.498 113.405L154.471 113.396C154.354 113.349 154.293 113.223 154.325 113.104L154.334 113.077L155.113 111.151C155.181 110.987 155.197 110.815 155.166 110.653Z" fill="white"/>
<path d="M136.264 161.495C136.579 161.366 136.938 161.516 137.067 161.829C139.952 168.83 141.303 175.559 141.376 181.937C141.433 186.886 140.724 191.334 139.505 195.21C139.094 196.518 138.652 197.667 138.21 198.647C138.074 198.949 137.945 199.217 137.828 199.449L137.728 199.644C137.673 199.748 137.631 199.823 137.605 199.868C137.436 200.162 137.06 200.263 136.765 200.095C136.47 199.926 136.368 199.551 136.538 199.258L136.601 199.143C136.623 199.101 136.651 199.049 136.682 198.987L136.776 198.802C136.872 198.608 136.977 198.389 137.087 198.145C137.51 197.208 137.934 196.104 138.33 194.844C139.511 191.087 140.2 186.766 140.145 181.951C140.074 175.726 138.753 169.151 135.928 162.295C135.799 161.981 135.949 161.623 136.264 161.495Z" fill="white"/>
<path d="M154.847 112.311C156.419 111.398 157.948 111.27 159.241 111.774C161.5 112.654 161.832 115.042 160.39 118.182L160.333 118.304C160.096 118.806 159.129 120.581 158.903 121.01L158.876 121.062C158.214 122.35 157.666 123.629 157.137 125.215L157.035 125.526C156.155 128.249 155.412 131.652 154.805 136.023C154.316 139.544 154.399 142.95 155.006 146.58C155.525 149.677 156.392 152.852 157.828 157.161L158.002 157.678C158.588 159.386 161.314 167.226 162.208 169.983C162.668 171.402 163.098 172.78 163.508 174.153C165.015 179.206 165.7 184.292 165.7 189.312C165.7 193.216 165.289 196.858 164.604 200.142C164.38 201.216 164.14 202.181 163.899 203.026L163.848 203.205C163.78 203.439 163.715 203.651 163.655 203.84L163.564 204.12C163.534 204.209 163.511 204.274 163.497 204.314C163.381 204.632 163.028 204.797 162.709 204.682C162.402 204.571 162.237 204.243 162.326 203.935L162.426 203.641L162.51 203.378C162.559 203.222 162.611 203.05 162.665 202.864C162.915 202.007 163.165 201.012 163.399 199.892C164.068 196.687 164.469 193.128 164.469 189.312C164.469 184.406 163.8 179.437 162.328 174.502C161.972 173.309 161.6 172.112 161.206 170.886L160.945 170.078C159.898 166.887 156.996 158.553 156.74 157.789L156.579 157.304C155.172 153.063 154.313 149.893 153.792 146.782C153.164 143.034 153.079 139.503 153.586 135.855C154.226 131.246 155.019 127.679 155.969 124.829C156.492 123.259 157.036 121.973 157.683 120.695L157.78 120.503C157.95 120.174 158.94 118.36 159.201 117.82L159.245 117.727L159.27 117.673C160.457 115.087 160.233 113.477 158.793 112.915C157.852 112.549 156.717 112.644 155.467 113.37C153.806 114.335 152.084 116.329 150.377 119.511C148.682 122.672 147.67 126.458 147.237 130.646C146.908 133.82 146.934 137.008 147.197 139.885C147.228 140.222 146.978 140.52 146.639 140.551C146.301 140.581 146.001 140.333 145.97 139.996C145.701 137.045 145.675 133.78 146.012 130.521C146.46 126.186 147.512 122.25 149.291 118.933C151.097 115.567 152.964 113.404 154.847 112.311Z" fill="white"/>
<path d="M160.277 115.89C160.279 115.87 160.269 115.823 160.225 115.751C160.138 115.609 159.961 115.457 159.665 115.307L159.602 115.275C158.396 114.71 157.32 114.79 156.569 115.347C155.955 115.804 155.704 116.503 155.945 116.914C156.157 117.275 156.487 117.473 157.237 117.741L157.736 117.916C157.901 117.975 158.041 118.027 158.174 118.082C158.677 118.289 159.081 118.523 159.437 118.84C159.539 118.931 159.548 119.086 159.457 119.187C159.366 119.287 159.211 119.296 159.109 119.206C158.799 118.93 158.442 118.723 157.986 118.536C157.911 118.505 157.833 118.474 157.749 118.443L157.369 118.307C157.255 118.267 157.141 118.228 157.155 118.233L156.979 118.17C156.185 117.879 155.797 117.635 155.519 117.161C155.135 116.504 155.479 115.545 156.275 114.954C157.175 114.285 158.445 114.191 159.813 114.833L159.889 114.87C160.556 115.209 160.798 115.603 160.768 115.934L160.764 115.961C160.741 116.094 160.614 116.184 160.48 116.161C160.355 116.139 160.269 116.028 160.276 115.906L160.277 115.89Z" fill="white"/>
<path d="M148.037 97.5898H132.034C130.741 97.5898 129.693 98.6303 129.693 99.9162V108.672L129.694 108.738C129.729 109.993 130.763 110.998 132.034 110.998L136.756 110.998L139.53 114.98L139.556 115.015C139.811 115.331 140.305 115.319 140.542 114.98L143.315 110.998L148.037 110.998C149.331 110.998 150.379 109.958 150.379 108.672V99.9162C150.379 98.6303 149.331 97.5898 148.037 97.5898ZM132.034 98.8158H148.037C148.652 98.8158 149.147 99.3081 149.147 99.9162V108.672C149.147 109.28 148.652 109.772 148.037 109.772H142.993L142.947 109.774C142.763 109.788 142.594 109.883 142.488 110.036L140.036 113.555L137.584 110.036C137.469 109.871 137.28 109.772 137.078 109.772H132.034C131.42 109.772 130.924 109.28 130.924 108.672V99.9162C130.924 99.3081 131.42 98.8158 132.034 98.8158Z" fill="white"/>
<path d="M146.376 102.083L146.304 101.891C145.727 100.334 143.98 99.5342 142.402 100.101L135.76 102.486C134.179 103.054 133.364 104.778 133.943 106.338L134.014 106.531C134.592 108.084 136.338 108.884 137.916 108.32L144.559 105.935C146.14 105.366 146.955 103.642 146.376 102.083ZM145.381 102.231L145.452 102.423C145.84 103.47 145.293 104.628 144.224 105.012L137.582 107.397C136.512 107.78 135.328 107.238 134.938 106.19L134.867 105.998C134.478 104.951 135.026 103.793 136.095 103.409L142.737 101.024C143.808 100.639 144.991 101.181 145.381 102.231Z" fill="white"/>
<path d="M155.352 93.6615C155.559 93.4852 155.87 93.509 156.047 93.7146C156.215 93.91 156.202 94.1991 156.023 94.3787L155.994 94.4061L152.546 97.3483C152.339 97.5246 152.029 97.5008 151.851 97.2951C151.683 97.0998 151.696 96.8106 151.875 96.6311L151.905 96.6037L155.352 93.6615Z" fill="white"/>
<path d="M135.391 84.2353C135.646 84.1885 135.892 84.3468 135.957 84.593L135.965 84.6287L137.688 93.9458C137.738 94.2121 137.561 94.4678 137.293 94.5169C137.038 94.5637 136.792 94.4053 136.728 94.1592L136.72 94.1234L134.996 84.8064C134.947 84.5401 135.123 84.2844 135.391 84.2353Z" fill="white"/>
<path d="M144.362 90.2305C144.432 89.9689 144.702 89.8133 144.965 89.8831C145.216 89.9497 145.37 90.1975 145.322 90.4475L145.314 90.4832L144.329 94.161C144.259 94.4227 143.989 94.5783 143.726 94.5085C143.475 94.4419 143.321 94.194 143.369 93.944L143.377 93.9083L144.362 90.2305Z" fill="white"/>
<path d="M129.076 91.1587C129.3 91.0288 129.584 91.0943 129.729 91.3029L129.75 91.3352L131.474 94.2775C131.611 94.5114 131.531 94.8117 131.296 94.9481C131.073 95.0781 130.788 95.0126 130.643 94.804L130.623 94.7716L128.899 91.8294C128.762 91.5955 128.841 91.2952 129.076 91.1587Z" fill="white"/>
<path d="M120.811 94.2207C120.972 94.019 121.259 93.9766 121.471 94.117L121.503 94.1406L127.413 98.7992C127.627 98.9673 127.663 99.2757 127.494 99.488C127.333 99.6897 127.046 99.7322 126.835 99.5918L126.802 99.5681L120.892 94.9096C120.679 94.7415 120.643 94.4331 120.811 94.2207Z" fill="white"/>
<path d="M121.136 110.784C122.079 110.496 123.037 110.764 123.504 111.496C123.65 111.725 123.582 112.028 123.352 112.173C123.134 112.311 122.849 112.257 122.695 112.055L122.672 112.022C122.462 111.692 121.971 111.555 121.424 111.721C120.751 111.927 120.152 112.533 119.815 113.488C119.178 115.291 119.994 116.573 120.87 116.211L120.906 116.196C121.152 116.082 121.445 116.188 121.56 116.434C121.674 116.68 121.567 116.971 121.321 117.085C120.488 117.471 119.576 117.158 119.049 116.353C118.525 115.554 118.448 114.401 118.885 113.163C119.323 111.924 120.153 111.083 121.136 110.784Z" fill="white"/>
<path d="M118.816 116.381C119.76 116.093 120.718 116.361 121.185 117.093C121.33 117.322 121.262 117.625 121.033 117.77C120.815 117.908 120.529 117.854 120.376 117.652L120.353 117.619C120.143 117.289 119.651 117.152 119.105 117.318C118.432 117.524 117.832 118.13 117.495 119.085C116.861 120.888 117.675 122.17 118.551 121.808L118.586 121.793C118.833 121.679 119.126 121.785 119.241 122.031C119.355 122.277 119.248 122.568 119.001 122.682C118.168 123.068 117.257 122.755 116.73 121.95C116.207 121.151 116.13 119.999 116.566 118.76C117.004 117.521 117.833 116.68 118.816 116.381Z" fill="white"/>
<path d="M114.388 124.008C115.362 121.795 117.886 121.158 118.865 122.694C119.011 122.923 118.942 123.226 118.713 123.371C118.495 123.509 118.209 123.455 118.056 123.253L118.033 123.22C117.536 122.44 115.981 122.832 115.29 124.402C115.181 124.65 114.89 124.763 114.641 124.654C114.392 124.545 114.279 124.256 114.388 124.008Z" fill="white"/>
<path d="M160.565 160.603C160.89 160.28 161.409 160.268 161.747 160.568L161.784 160.603L196.752 195.419C197.089 195.754 197.089 196.298 196.752 196.633C196.428 196.956 195.909 196.968 195.57 196.668L195.533 196.633L160.565 161.817C160.228 161.481 160.228 160.938 160.565 160.603Z" fill="white"/>
<path d="M101.217 101.514C101.542 101.191 102.061 101.179 102.399 101.479L102.436 101.514L116.226 115.244C116.563 115.579 116.563 116.123 116.226 116.458C115.902 116.781 115.383 116.793 115.044 116.493L115.007 116.458L101.217 102.728C100.88 102.392 100.88 101.849 101.217 101.514Z" fill="white"/>
<path d="M34.1126 34.7004C34.4371 34.3772 34.9562 34.3657 35.2946 34.6658L35.3315 34.7004L60.8189 60.0771C61.1555 60.4122 61.1555 60.9555 60.8189 61.2907C60.4944 61.6138 59.9753 61.6254 59.6369 61.3253L59.6 61.2907L34.1126 35.914C33.776 35.5789 33.776 35.0355 34.1126 34.7004Z" fill="white"/>
<path d="M163.244 26.1123H147.038C145.731 26.1123 144.675 27.1779 144.675 28.4898V37.5068L144.676 37.5744C144.712 38.8551 145.753 39.8842 147.038 39.8842L151.821 39.8841L154.633 43.9885L154.659 44.0241C154.913 44.3448 155.414 44.3329 155.65 43.9885L158.461 39.8841L163.244 39.8842C164.552 39.8842 165.607 38.8186 165.607 37.5068V28.4898C165.607 27.1807 164.549 26.1123 163.244 26.1123ZM147.038 27.3382H163.244C163.865 27.3382 164.376 27.8539 164.376 28.4898V37.5068C164.376 38.1454 163.868 38.6583 163.244 38.6583H158.136L158.089 38.6601C157.904 38.6741 157.733 38.7713 157.628 38.9259L155.141 42.5552L152.655 38.9259C152.54 38.7585 152.35 38.6583 152.146 38.6583H147.038C146.414 38.6583 145.907 38.1454 145.907 37.5068V28.4898C145.907 27.8511 146.414 27.3382 147.038 27.3382Z" fill="white"/>
<path fill-rule="evenodd" clip-rule="evenodd" d="M149.299 31.2946L153.384 36.7783C153.384 36.7783 155.417 33.8262 161.04 31.2531C161.48 31.0511 161.321 30.3899 160.836 30.4037C158.876 30.4591 155.835 30.91 153.114 32.8661L150.142 30.5946C149.663 30.2239 149.02 30.7606 149.299 31.2946Z" fill="white"/>
<path d="M143.075 105.92C144.707 105.92 146.03 104.603 146.03 102.978C146.03 101.353 144.707 100.036 143.075 100.036C141.443 100.036 140.12 101.353 140.12 102.978C140.12 104.603 141.443 105.92 143.075 105.92Z" fill="white"/>
</svg>
