<svg width="263" height="255" viewBox="0 0 263 255" fill="none" xmlns="http://www.w3.org/2000/svg">
<g clip-path="url(#clip0)">
<path d="M193.327 49.8082C194.32 49.8082 195.365 50.5482 195.756 51.5L195.785 51.5718L204.439 74.6646C204.857 75.7736 204.236 76.7925 203.088 76.8292L203.024 76.8302H200.33C200.011 76.8302 199.753 76.5731 199.753 76.2559C199.753 75.9531 199.988 75.705 200.287 75.6831L200.33 75.6815H203.024C203.363 75.6815 203.499 75.4875 203.374 75.1142L203.358 75.0666L194.702 51.9721C194.506 51.4451 193.895 50.9893 193.381 50.9585L193.327 50.9569H155.112C154.773 50.9569 154.637 51.1509 154.762 51.5242L154.779 51.5718L163.434 74.6663C163.63 75.1933 164.241 75.6491 164.755 75.6799L164.809 75.6815H190.24C190.559 75.6815 190.818 75.9387 190.818 76.2559C190.818 76.5586 190.582 76.8067 190.284 76.8286L190.24 76.8302H164.809C163.817 76.8302 162.771 76.0902 162.38 75.1384L162.352 75.0666L153.697 51.9739C153.279 50.8648 153.9 49.8459 155.048 49.8092L155.112 49.8082H193.327Z" fill="#96C3FF"/>
<path d="M157.001 52.8146C156.566 53.335 156.781 54.0959 157.339 54.5575C157.898 55.0192 158.689 55.0893 159.124 54.5688C159.559 54.0483 159.344 53.2875 158.786 52.8258C158.227 52.3641 157.436 52.2941 157.001 52.8146Z" fill="#96C3FF"/>
<path d="M194.944 47.6574C196.002 47.6574 197.101 48.4439 197.518 49.4619L197.547 49.535L206.238 72.9339C206.446 73.4853 206.424 74.0459 206.167 74.4981L206.146 74.533C206.13 74.5644 206.113 74.5936 206.094 74.6218L206.063 74.6633L205.141 75.8156C204.893 76.1259 204.439 76.1772 204.127 75.9303C203.828 75.6942 203.768 75.2707 203.981 74.9628L204.011 74.9215L204.888 73.8254L204.903 73.8023C204.942 73.7472 204.953 73.6429 204.902 73.4841L204.885 73.4349L196.193 50.0336C196.012 49.5484 195.45 49.1246 194.995 49.0949L194.944 49.0933H156.569C156.452 49.0933 156.393 49.1191 156.358 49.1608C156.347 49.1744 156.335 49.1876 156.322 49.2002L156.305 49.2159L155.413 50.3395C155.176 50.6371 154.751 50.6984 154.441 50.488L154.399 50.4576C154.1 50.2224 154.038 49.7991 154.25 49.4905L154.28 49.4492L155.229 48.2561C155.251 48.2274 155.276 48.2007 155.303 48.1761L155.33 48.1519L155.354 48.1281C155.646 47.8406 156.04 47.6774 156.485 47.6591L156.569 47.6574H194.944Z" fill="#96C3FF"/>
<path d="M201.9 57.955C203.776 57.955 205.296 59.4759 205.296 61.3496C205.296 62.4954 204.721 63.5479 203.785 64.1746C203.521 64.3518 203.162 64.2822 202.984 64.0191C202.806 63.756 202.876 63.3991 203.14 63.2219C203.76 62.8066 204.141 62.1094 204.141 61.3496C204.141 60.1087 203.137 59.1037 201.9 59.1037C201.823 59.1037 201.752 59.1068 201.685 59.1131L201.621 59.1206C201.305 59.1633 201.014 58.9432 200.971 58.6289C200.928 58.3146 201.149 58.0251 201.465 57.9824C201.604 57.9636 201.748 57.955 201.9 57.955Z" fill="#96C3FF"/>
<path d="M197.968 41.7999C198.242 41.6375 198.596 41.7267 198.759 41.9992C198.923 42.2716 198.833 42.6242 198.559 42.7866C196.41 44.0605 195.884 45.6892 196.519 48.1826C196.598 48.4901 196.41 48.8025 196.101 48.8804C195.792 48.9583 195.478 48.7721 195.4 48.4647C194.648 45.5111 195.344 43.3556 197.968 41.7999Z" fill="#96C3FF"/>
<path d="M216.73 60.0288C216.978 59.83 217.342 59.8692 217.542 60.1163L217.59 60.1771C217.669 60.2796 217.78 60.4331 217.914 60.6334C218.183 61.0359 218.451 61.493 218.701 61.9976C220.106 64.8282 220.377 67.8234 218.772 70.6381C218.112 71.7952 217.147 72.8758 215.857 73.8674C215.605 74.0614 215.242 74.0151 215.047 73.7641C214.852 73.5132 214.899 73.1525 215.151 72.9585C216.323 72.0575 217.186 71.0916 217.768 70.0713C219.154 67.6406 218.917 65.0276 217.666 62.5058C217.438 62.0475 217.195 61.6325 216.952 61.2693C216.868 61.1433 216.79 61.0332 216.721 60.94L216.642 60.8363C216.442 60.5892 216.481 60.2276 216.73 60.0288Z" fill="#96C3FF"/>
<path d="M215.501 40.0269C215.739 39.8157 216.104 39.8363 216.316 40.0729C217.658 41.5683 218.708 43.69 219.197 46.5255C219.849 50.3114 219.417 54.988 217.643 60.6472C217.548 60.95 217.224 61.119 216.92 61.0246C216.616 60.9302 216.446 60.6082 216.541 60.3054C218.262 54.811 218.678 50.3156 218.059 46.7195C217.607 44.0998 216.654 42.1749 215.454 40.8378C215.242 40.6012 215.263 40.2381 215.501 40.0269Z" fill="#96C3FF"/>
<path d="M217.08 59.9048C217.398 59.8998 217.661 60.1527 217.666 60.4698C217.671 60.7726 217.44 61.0244 217.141 61.0512L216.985 61.0586C216.923 61.0625 216.843 61.0689 216.745 61.0788C216.446 61.1089 216.111 61.1602 215.749 61.2375C214.713 61.4587 213.677 61.8434 212.713 62.4292C210.792 63.5981 209.394 65.4176 208.731 68.045C207.974 71.0462 208.319 73.6038 209.349 75.6939C209.57 76.1434 209.807 76.5321 210.041 76.8579C210.106 76.9475 210.166 77.0265 210.221 77.095L210.3 77.1892L210.332 77.2254C210.549 77.4574 210.536 77.8208 210.303 78.0371C210.07 78.2534 209.704 78.2407 209.487 78.0087L209.436 77.9528C209.353 77.8584 209.239 77.7162 209.103 77.527C208.832 77.151 208.562 76.708 208.312 76.1994C207.167 73.8751 206.785 71.0419 207.611 67.7654C208.35 64.8384 209.937 62.7713 212.111 61.4492C213.194 60.7907 214.35 60.3613 215.506 60.1144C216.203 59.9655 216.752 59.9103 217.08 59.9048Z" fill="#96C3FF"/>
<path d="M210.515 76.7125C209.844 76.7125 209.3 77.2537 209.3 77.9214C209.3 78.5891 209.844 79.1303 210.515 79.1303C211.187 79.1303 211.731 78.5891 211.731 77.9214C211.731 77.2537 211.187 76.7125 210.515 76.7125ZM210.515 77.8611C210.549 77.8611 210.576 77.8881 210.576 77.9214C210.576 77.9547 210.549 77.9817 210.515 77.9817C210.482 77.9817 210.455 77.9547 210.455 77.9214C210.455 77.8881 210.482 77.8611 210.515 77.8611Z" fill="#96C3FF"/>
<path d="M215.045 72.6549C214.374 72.6549 213.83 73.1962 213.83 73.8639C213.83 74.5315 214.374 75.0728 215.045 75.0728C215.716 75.0728 216.261 74.5315 216.261 73.8639C216.261 73.1962 215.716 72.6549 215.045 72.6549ZM215.045 73.8036C215.079 73.8036 215.106 73.8305 215.106 73.8639C215.106 73.8972 215.079 73.9242 215.045 73.9242C215.012 73.9242 214.984 73.8972 214.984 73.8639C214.984 73.8305 215.012 73.8036 215.045 73.8036Z" fill="#96C3FF"/>
<path d="M201.58 59.7527C202.589 59.7527 203.405 60.5647 203.405 61.5676C203.405 62.0782 203.193 62.5538 202.825 62.8946C202.709 63.0028 202.526 62.9965 202.417 62.8805C202.308 62.7645 202.315 62.5828 202.431 62.4746C202.683 62.2413 202.827 61.9173 202.827 61.5676C202.827 60.8819 202.27 60.327 201.58 60.327C201.421 60.327 201.292 60.1984 201.292 60.0398C201.292 59.8813 201.421 59.7527 201.58 59.7527Z" fill="#96C3FF"/>
<path d="M211.004 10.3705C211.42 10.2984 211.828 10.2705 212.226 10.2897C216.322 10.4868 219.204 16.598 218.638 22.6958L218.618 22.898L218.625 22.8996C220.779 23.3838 221.418 25.0129 220.974 27.0761L220.955 27.1636C220.633 28.5726 219.041 29.8411 217.366 30.3387L217.328 30.3496L217.295 30.4715C217.246 30.6491 217.192 30.839 217.131 31.039L217.085 31.1909C216.812 32.0702 216.486 32.9499 216.106 33.7749C215.715 34.6229 215.286 35.3663 214.817 35.9771C214.473 36.4234 214.127 36.8055 213.725 37.1942L213.572 37.3405C213.462 37.4443 212.815 38.0284 212.615 38.2216L212.591 38.2454C212.029 38.804 211.823 39.2442 211.823 40.0505C211.823 40.3677 211.565 40.6248 211.246 40.6248C210.927 40.6248 210.668 40.3677 210.668 40.0505C210.668 38.9199 211.008 38.196 211.774 37.4332L211.832 37.3775C212.077 37.1424 212.689 36.5901 212.778 36.5061C213.204 36.1051 213.554 35.7283 213.899 35.2793C214.311 34.7438 214.698 34.0719 215.056 33.2958C215.414 32.5212 215.723 31.6871 215.981 30.8526L216.067 30.5675C216.108 30.4288 216.146 30.296 216.181 30.1699L216.271 29.8277C216.279 29.7947 216.285 29.7683 216.29 29.7489C216.34 29.5342 216.51 29.3671 216.726 29.3188C218.145 29.002 219.597 27.9205 219.829 26.909C220.216 25.2145 219.751 24.1605 217.91 23.9424C217.589 23.9044 217.362 23.6113 217.406 23.2926C218.216 17.5312 215.573 11.6007 212.171 11.437C211.86 11.422 211.537 11.4441 211.202 11.5022C209.846 11.737 208.352 12.5426 206.834 13.7427C206.179 14.2603 205.564 14.8162 205.008 15.3719C204.879 15.5014 204.759 15.6246 204.649 15.74L204.493 15.9072C204.404 16.0025 204.345 16.0694 204.316 16.1029C204.146 16.2987 203.865 16.3576 203.631 16.2466L203.452 16.1589C203.406 16.1353 203.352 16.108 203.293 16.0771L203.062 15.9552C202.863 15.8488 202.652 15.7307 202.428 15.6012C201.536 15.0834 200.644 14.4885 199.809 13.8235L199.606 13.6598L199.377 13.4687L199.291 13.6258C197.278 17.3349 196.566 21.3542 196.949 25.3889L196.969 25.5976C197.32 28.9646 198.459 32.1569 199.702 33.9101C200.215 34.6328 200.713 35.2088 201.279 35.7638L201.411 35.8916C201.486 35.963 202.438 36.8292 202.711 37.1148L202.736 37.1413C203.283 37.734 203.545 38.3208 203.565 39.1298L203.567 39.2321V41.9486C203.567 42.2658 203.308 42.5229 202.989 42.5229C202.685 42.5229 202.435 42.2887 202.413 41.9915L202.412 41.9486V39.2321C202.412 38.6986 202.281 38.3663 201.941 37.9796L201.885 37.918C201.692 37.7083 200.72 36.8243 200.61 36.7189C199.939 36.0758 199.355 35.4135 198.759 34.5723C197.397 32.6521 196.191 29.2722 195.821 25.7161C195.339 21.0979 196.217 16.4798 198.734 12.2752C198.923 11.9604 199.355 11.8993 199.625 12.1494C199.909 12.4139 200.212 12.6732 200.53 12.9267C201.318 13.5536 202.164 14.1179 203.01 14.6091C203.18 14.7073 203.342 14.7985 203.495 14.8823L203.748 15.0171L203.809 14.9519C203.867 14.8906 203.928 14.8273 203.992 14.7622L204.189 14.5619C204.775 13.9763 205.423 13.3909 206.115 12.8433C207.772 11.5345 209.422 10.6445 211.004 10.3705Z" fill="#96C3FF"/>
<path d="M201.502 43.7291C201.763 43.5752 202.095 43.6486 202.267 43.8902L202.312 43.9587C202.338 43.9954 202.383 44.0545 202.45 44.1301C202.607 44.3098 202.808 44.492 203.056 44.6638C203.78 45.167 204.733 45.4721 205.957 45.4721C207.242 45.4721 208.306 45.3098 209.16 45.042C209.451 44.9507 209.694 44.8541 209.89 44.7593L209.964 44.7229C210.007 44.7007 210.04 44.6828 210.061 44.6702L210.085 44.6553C210.351 44.4794 210.709 44.5507 210.886 44.8146C211.063 45.0786 210.991 45.4351 210.726 45.6111C210.509 45.7547 210.106 45.9497 209.507 46.1376C208.54 46.4406 207.36 46.6207 205.957 46.6207C204.493 46.6207 203.31 46.242 202.394 45.6055C202.068 45.3784 201.797 45.1333 201.58 44.8855L201.495 44.7861C201.405 44.6752 201.34 44.5829 201.3 44.5161C201.138 44.2434 201.228 43.891 201.502 43.7291Z" fill="#96C3FF"/>
<path d="M211.765 39.3744C211.827 38.9826 212.196 38.7144 212.589 38.7754C216.294 39.3486 220.182 41.4403 223.45 44.8372C227.249 48.7856 230.058 54.289 231.517 61.2047L231.683 62.0022C233.591 71.2879 234.47 79.9365 233.84 87.2605C232.984 97.2107 229.365 103.906 222.377 106.314C218.461 107.663 214.473 106.992 210.511 104.632C207.281 102.709 204.165 99.728 201.202 95.977C199.323 93.5979 197.617 91.0523 196.116 88.5069L195.858 88.0668C195.438 87.3423 195.061 86.6642 194.731 86.0444L194.511 85.6258C194.477 85.5609 194.445 85.4985 194.414 85.4386L194.242 85.099C194.069 84.7458 194.215 84.3232 194.561 84.1464L194.907 83.9917L195.051 83.9268C195.411 83.7631 195.813 83.5742 196.245 83.3629C197.481 82.7595 198.717 82.0984 199.867 81.4022C201.368 80.4933 202.607 79.5941 203.486 78.7379C203.821 78.4115 204.371 78.4869 204.609 78.8794L204.64 78.9368L204.71 79.069C204.763 79.1677 204.824 79.2792 204.892 79.4029L204.944 79.4979C205.203 79.9628 205.503 80.4815 205.843 81.0406C206.812 82.6379 207.897 84.235 209.069 85.7226C210.432 87.4544 211.824 88.9212 213.217 90.0379C215.207 91.6337 216.535 91.5687 217.555 90.227C218.505 88.977 219.122 86.6662 219.293 84.0431C219.364 82.9516 219.369 81.6781 219.314 80.2606C219.254 78.7206 219.128 77.0722 218.956 75.3952L218.897 74.8414C218.838 74.2951 218.776 73.7723 218.714 73.2802L218.652 72.7935L218.56 72.1268C218.503 71.7344 218.776 71.37 219.17 71.3127C219.565 71.2555 219.931 71.5271 219.989 71.9194L220.067 72.4898C220.083 72.6044 220.099 72.7261 220.115 72.8547C220.209 73.5885 220.304 74.3946 220.392 75.2488C220.567 76.9541 220.696 78.6319 220.756 80.2055C220.813 81.6688 220.808 82.9898 220.734 84.1362C220.546 87.0141 219.863 89.5709 218.707 91.0928C217.164 93.122 214.901 93.2328 212.311 91.1557C210.823 89.9629 209.359 88.4195 207.932 86.6079C206.722 85.0705 205.605 83.4266 204.607 81.7828C204.374 81.3993 204.159 81.0338 203.962 80.6904L203.796 80.3973L203.703 80.4752C202.896 81.1489 201.923 81.8282 200.814 82.5087L200.617 82.6288C199.426 83.3497 198.154 84.0306 196.881 84.6518C196.681 84.7496 196.487 84.8427 196.301 84.931L195.878 85.1286L196.007 85.3722L196.206 85.742C196.546 86.3697 196.932 87.0532 197.361 87.7803C198.831 90.2734 200.501 92.7663 202.337 95.0899C208.749 103.208 215.432 107.187 221.905 104.957C228.244 102.773 231.589 96.5842 232.402 87.138C233.036 79.7709 232.1 70.9622 230.104 61.4995C228.7 54.8392 226.014 49.5789 222.407 45.8299C219.353 42.6557 215.751 40.7176 212.368 40.1941C211.974 40.1332 211.704 39.7662 211.765 39.3744Z" fill="#96C3FF"/>
<path d="M188.667 76.0769C188.766 75.6929 189.16 75.4618 189.546 75.5607C189.932 75.6596 190.164 76.051 190.065 76.435L189.983 76.7539C189.875 77.1856 189.765 77.6505 189.632 78.2324L189.129 80.4583C189.078 80.6819 189.03 80.8879 188.982 81.0899L188.885 81.4972C188.109 84.7094 187.35 86.8343 186.202 88.5824C184.646 90.9529 182.493 92.2541 179.586 92.3281C175.937 92.421 173.286 89.8088 171.453 85.505C170.841 84.0663 170.363 82.5312 170.002 80.997C169.876 80.4605 169.773 79.9618 169.692 79.5133L169.661 79.3322L169.609 79.014C169.603 78.9799 169.599 78.9539 169.597 78.9363C169.542 78.5436 169.818 78.181 170.213 78.1264C170.592 78.0741 170.943 78.3246 171.019 78.6922L171.029 78.7539L171.047 78.869C171.064 78.9811 171.087 79.1118 171.113 79.2596C171.19 79.6844 171.287 80.1588 171.408 80.6702C171.751 82.1301 172.205 83.5892 172.782 84.9451C174.409 88.766 176.643 90.9668 179.549 90.8928C181.961 90.8314 183.687 89.7881 184.994 87.7973C186.073 86.1543 186.802 84.0517 187.577 80.7623L187.753 80.0034L188.191 78.0615C188.376 77.247 188.518 76.6531 188.667 76.0769Z" fill="#96C3FF"/>
<path d="M165.997 47.7308C168.388 44.5225 171.994 44.2629 174.703 47.7168C174.948 48.0294 174.892 48.4805 174.578 48.7244C174.264 48.9683 173.81 48.9126 173.565 48.6001C171.471 45.93 169.004 46.1076 167.156 48.586C166.919 48.9045 166.467 48.9712 166.146 48.7351C165.826 48.4989 165.759 48.0493 165.997 47.7308Z" fill="#96C3FF"/>
<path d="M201.853 76.905C202.123 76.7175 202.492 76.793 202.668 77.0629L202.691 77.1009L203.981 79.4557C204.134 79.7342 204.031 80.083 203.751 80.2348C203.484 80.3794 203.153 80.2931 202.99 80.044L202.967 80.0054L201.985 78.2138L194.722 83.2598L195.4 84.5125C195.544 84.7786 195.455 85.1071 195.204 85.2676L195.165 85.2904C194.897 85.4335 194.567 85.3454 194.406 85.0954L194.383 85.0567L193.462 83.3538C193.331 83.1114 193.392 82.8131 193.601 82.6401L193.64 82.6109L201.853 76.905Z" fill="#96C3FF"/>
<path d="M189.491 63.6912C191.268 62.6774 192.858 62.8495 194.215 63.9806C195.113 64.729 195.701 65.5964 196.624 67.2886L196.777 67.5719C197.076 68.1334 197.491 68.96 197.999 70.0034L198.619 71.2865L198.676 71.4053C199.099 72.2884 199.544 73.2264 199.988 74.1712L200.537 75.3425L200.852 76.0181C200.985 76.3061 200.859 76.6473 200.569 76.7802C200.294 76.9068 199.969 76.7988 199.824 76.5394L199.768 76.4245L199.132 75.0621L198.752 74.2545C198.499 73.7177 198.247 73.1853 198 72.6665L197.521 71.664C196.759 70.078 196.152 68.8509 195.758 68.1132L195.685 67.9766C194.788 66.3203 194.244 65.5034 193.474 64.8611C192.48 64.0333 191.415 63.918 190.066 64.6875L189.879 64.7963C187.135 66.4319 186.817 68.2645 188.403 71.3854L190.349 75.2081C192.021 78.472 192.783 79.8579 194.472 82.7967C194.63 83.072 194.534 83.4229 194.257 83.5803C193.98 83.7377 193.627 83.6421 193.469 83.3668L192.603 81.8518C190.999 79.0254 190.149 77.378 187.372 71.9031C185.494 68.2059 185.997 65.685 189.491 63.6912Z" fill="#96C3FF"/>
<path d="M187.448 83.455C187.767 83.4528 188.027 83.7081 188.029 84.0253C188.077 90.6699 187.645 97.3392 186.895 103.693L186.812 104.389C186.587 106.226 186.35 107.911 186.113 109.418L186.004 110.097C185.969 110.312 185.935 110.515 185.903 110.706L185.758 111.523L185.727 111.755C185.716 111.838 185.703 111.922 185.69 112.005L185.649 112.257L185.463 113.264L185.459 113.286C185.441 113.397 185.431 113.482 185.426 113.543L185.424 113.576L185.447 113.58C185.555 113.599 185.72 113.611 185.954 113.613L186.026 113.613C186.725 113.613 188.091 113.808 189.968 114.148C190.248 114.198 190.537 114.252 190.833 114.308C191.429 114.421 192.034 114.539 192.63 114.66L193.739 114.887L194.239 114.993C201.656 116.419 210.028 116.885 216.706 116.498L217.526 116.447C219.773 116.301 221.582 116.153 222.995 116.009L223.533 115.953C223.7 115.935 223.855 115.917 223.997 115.9L224.132 115.884L224.054 115.239L223.979 114.598C223.891 113.84 223.805 113.042 223.723 112.223C223.595 110.945 223.488 109.704 223.406 108.532L223.371 108.006C223.3 106.883 223.256 105.855 223.244 104.942C223.24 104.625 223.495 104.365 223.814 104.361C224.133 104.356 224.395 104.61 224.399 104.927C224.411 105.888 224.46 106.985 224.54 108.192L224.558 108.453C224.639 109.613 224.745 110.843 224.872 112.109L224.943 112.8C225.014 113.486 225.089 114.152 225.163 114.788L225.201 115.104C225.234 115.385 225.266 115.642 225.294 115.873L225.349 116.303C225.39 116.612 225.176 116.898 224.866 116.946L224.705 116.969L224.444 117.003C224.09 117.047 223.649 117.098 223.113 117.152L222.499 117.212C221.068 117.348 219.289 117.487 217.128 117.623C210.419 118.046 201.964 117.606 194.404 116.194L193.984 116.113L193.123 115.933L192.989 115.905C192.211 115.745 191.406 115.585 190.617 115.436L190.041 115.329L189.473 115.226C187.865 114.94 186.666 114.771 186.076 114.762L185.848 114.76C184.931 114.742 184.482 114.568 184.314 113.964C184.252 113.742 184.256 113.516 184.306 113.186L184.32 113.101C184.341 112.968 184.473 112.283 184.51 112.064C184.537 111.905 184.562 111.75 184.584 111.594L184.616 111.359L184.621 111.324L184.701 110.879L184.813 110.222C184.864 109.921 184.917 109.593 184.972 109.241L185.06 108.672C185.295 107.133 185.529 105.42 185.748 103.559C186.493 97.2495 186.922 90.6265 186.874 84.0335C186.872 83.7163 187.129 83.4574 187.448 83.455Z" fill="#96C3FF"/>
<path d="M222.871 115.956C223.189 115.948 223.455 116.198 223.463 116.515L223.546 119.799C223.652 124.316 223.705 128.137 223.742 133.336L223.802 143.42C223.893 155.758 224.094 164.116 224.724 179.22C224.738 179.537 224.49 179.804 224.171 179.818C223.853 179.831 223.584 179.585 223.571 179.268L223.468 176.782C222.898 162.712 222.72 154.513 222.639 142.168L222.583 132.795C222.537 126.695 222.467 122.463 222.309 116.546C222.3 116.229 222.552 115.965 222.871 115.956Z" fill="#96C3FF"/>
<path d="M200.23 120.244C200.389 120.236 200.525 120.359 200.532 120.517L200.562 121.099L200.616 122.027C200.628 122.223 200.64 122.426 200.654 122.635C200.756 124.224 200.879 125.813 201.024 127.295L201.077 127.827C201.149 128.525 201.225 129.178 201.304 129.78C201.435 130.78 201.593 131.644 201.771 132.383C201.96 133.168 202.162 133.77 202.361 134.21L202.412 134.319C202.501 134.504 202.566 134.61 202.599 134.652C202.699 134.775 202.679 134.956 202.555 135.055C202.431 135.154 202.249 135.135 202.149 135.011L202.114 134.964C202.05 134.874 201.965 134.727 201.865 134.512L201.835 134.446C201.62 133.971 201.407 133.336 201.209 132.517C201.026 131.758 200.865 130.873 200.731 129.855C200.631 129.095 200.537 128.256 200.449 127.351C200.318 126.011 200.205 124.584 200.109 123.15L200.052 122.261C200.031 121.925 200.012 121.606 199.995 121.307L199.955 120.544C199.948 120.386 200.071 120.251 200.23 120.244Z" fill="#96C3FF"/>
<path d="M202.364 124.743C202.523 124.738 202.657 124.862 202.663 125.02L202.675 125.301L202.687 125.549C202.71 125.971 202.74 126.441 202.778 126.948C202.888 128.396 203.046 129.843 203.258 131.192C203.487 132.65 203.767 133.905 204.103 134.891C204.154 135.042 204.073 135.205 203.922 135.255C203.771 135.306 203.607 135.226 203.556 135.075C203.208 134.053 202.921 132.769 202.687 131.281C202.472 129.915 202.314 128.453 202.203 126.991L202.175 126.615C202.158 126.369 202.142 126.132 202.129 125.907L202.106 125.491L202.086 125.041C202.08 124.882 202.205 124.749 202.364 124.743Z" fill="#96C3FF"/>
<path d="M185.777 113.61C186.082 113.61 186.331 113.844 186.353 114.141L186.355 114.184L186.355 132.337C186.352 140.104 186.297 146.782 186.13 153.363L186.083 155.101C185.825 163.996 185.383 169.992 184.699 172.259C184.607 172.562 184.285 172.735 183.98 172.643C183.675 172.552 183.501 172.232 183.593 171.928L183.634 171.787C184.295 169.396 184.734 162.851 184.976 153.334L185.009 151.957C185.153 145.675 185.2 139.24 185.2 131.793V114.185L185.201 114.141C185.224 113.844 185.473 113.61 185.777 113.61Z" fill="#96C3FF"/>
<path d="M201.364 38.7669C201.762 38.7669 202.086 39.0883 202.086 39.4848C202.086 39.8813 201.762 40.2027 201.364 40.2027C198.361 40.2027 195.42 41.7435 192.677 44.3343C191.703 45.254 190.826 46.2413 190.061 47.2283C189.793 47.5732 189.559 47.8928 189.361 48.1787L189.214 48.3938L189.128 48.5255C188.915 48.8609 188.469 48.9615 188.132 48.7501C187.795 48.5387 187.694 48.0954 187.906 47.76L187.995 47.6243C188.042 47.5538 188.101 47.4661 188.173 47.3627C188.386 47.0568 188.634 46.7169 188.918 46.3515C189.726 45.3093 190.651 44.2675 191.683 43.2932C194.669 40.4728 197.925 38.7669 201.364 38.7669Z" fill="#96C3FF"/>
<path d="M209.89 0.264838L209.994 0.301698C210.308 0.417367 210.777 0.629203 211.354 0.954808C212.416 1.55384 213.475 2.34396 214.462 3.35019C215.247 4.14972 215.955 5.05535 216.555 6.0556L216.822 6.47434L218.315 4.04505C218.579 3.61609 219.187 3.58576 219.495 3.97132L219.526 4.01269L219.777 4.38102C219.979 4.67908 220.211 5.02456 220.47 5.41352L220.79 5.89707C221.437 6.8793 222.128 7.95121 222.846 9.09297C223.688 10.4343 224.064 11.3146 224.213 12.2506L224.227 12.3444C224.261 12.577 224.28 12.7848 224.299 13.1045L224.336 13.7987C224.381 14.559 224.431 15.04 224.55 15.7267L224.595 15.9785C225.264 19.638 224.068 21.929 220.477 24.3298C220.146 24.5509 219.697 24.4634 219.475 24.1344C219.253 23.8053 219.341 23.3592 219.672 23.1381C222.78 21.0602 223.709 19.3276 223.195 16.3477L223.126 15.9638C222.991 15.1788 222.938 14.6377 222.888 13.7502L222.858 13.2018C222.841 12.9133 222.825 12.7352 222.798 12.5469C222.691 11.7974 222.394 11.0832 221.621 9.85395L221.268 9.29354C220.683 8.36947 220.117 7.4959 219.583 6.68439L218.961 5.74753L217.451 8.20524C217.182 8.64334 216.556 8.66352 216.256 8.25961L215.326 6.80903C214.775 5.89016 214.137 5.07371 213.43 4.35329C212.594 3.50169 211.702 2.82309 210.809 2.2999L210.632 2.19763L210.669 2.37054C210.826 3.09037 211.007 3.80542 211.211 4.48491L211.3 4.77385C211.527 5.49692 210.619 6.03163 210.091 5.48595C209.376 4.74743 208.534 4.24317 207.584 3.94216C206.44 3.57961 205.214 3.5269 204.022 3.68589L203.997 3.68944L204.029 3.73685C204.191 3.98488 204.266 4.26516 204.225 4.5877L204.214 4.65747C204.08 5.41429 203.31 5.95425 201.884 6.42716C201.562 6.53379 201.227 6.67111 200.879 6.83767C199.787 7.36128 198.609 8.15601 197.394 9.14842C196.569 9.82241 195.777 10.5463 195.049 11.2701C194.867 11.4509 194.698 11.6224 194.544 11.7823L194.317 12.0216L194.128 12.2261C194.016 12.3508 193.864 12.4318 193.7 12.4572L193.679 12.4594L193.821 12.5544C193.967 12.6502 194.119 12.745 194.278 12.8385L194.44 12.9315C195.496 13.5289 196.725 14.0011 198.133 14.2991C198.523 14.3816 198.772 14.7628 198.689 15.1507C198.606 15.5385 198.223 15.786 197.833 15.7035C196.277 15.3743 194.909 14.8487 193.726 14.1797C192.982 13.7588 192.353 13.3057 191.837 12.8497C191.518 12.5686 191.303 12.3424 191.187 12.1999C190.814 11.7427 191.123 11.0657 191.701 11.0312L191.748 11.0299H193.273L193.315 10.9851C193.494 10.7957 193.695 10.5881 193.916 10.3662L194.029 10.2541C194.789 9.49948 195.614 8.74486 196.478 8.03892C197.774 6.97986 199.043 6.12427 200.253 5.54429C200.596 5.37966 200.933 5.23827 201.263 5.12141L201.427 5.06503C201.991 4.87821 202.389 4.69471 202.629 4.52628C202.657 4.50644 202.682 4.48761 202.704 4.46994L202.737 4.4418C202.688 4.39638 202.623 4.34681 202.544 4.29615L202.495 4.26565C202.384 4.19895 202.261 4.13727 202.138 4.08368L202.044 4.04434L201.987 4.0224C201.344 3.79668 201.345 2.89185 201.989 2.66782L202.079 2.63752C202.278 2.57393 202.574 2.49326 202.952 2.41379C204.603 2.06684 206.356 2.04617 208.022 2.57407C208.462 2.71335 208.884 2.88882 209.287 3.10205L209.365 3.14412L209.331 2.99998L209.259 2.67756L209.19 2.35468C209.142 2.1289 209.1 1.91378 209.061 1.71163L208.994 1.34584L208.945 1.05557C208.861 0.522642 209.376 0.0916713 209.89 0.264838Z" fill="#96C3FF"/>
<path d="M261.629 108.729C261.764 108.813 261.805 108.99 261.72 109.125L261.606 109.301L261.528 109.418C261.37 109.655 261.18 109.931 260.958 110.244L260.715 110.583C260.134 111.388 259.454 112.278 258.676 113.239C256.215 116.277 253.262 119.426 249.809 122.532L249.474 122.832C241.153 130.242 238.589 136.403 240.701 144.439C240.741 144.592 240.649 144.749 240.494 144.789C240.34 144.829 240.182 144.737 240.142 144.584C237.991 136.398 240.568 130.074 248.836 122.63L249.089 122.404C252.661 119.223 255.705 115.991 258.226 112.879L258.551 112.475C259.294 111.543 259.939 110.684 260.487 109.913L260.719 109.582C260.841 109.406 260.95 109.246 261.047 109.1L261.231 108.82C261.316 108.685 261.494 108.645 261.629 108.729Z" fill="#96C3FF"/>
<path d="M253.091 113.392C255.131 110.349 259.862 107.672 261.824 109.074C262.847 109.806 263.076 110.868 262.661 112.239L262.632 112.333C262.345 113.229 261.945 114.013 260.876 115.84L260.452 116.56C259.79 117.68 259.783 118.018 260.195 118.464L260.225 118.496C260.28 118.553 260.659 118.919 260.818 119.083L260.844 119.11C261.552 119.863 261.955 120.718 262.054 122.006C262.207 123.98 260.996 125.275 258.127 126.963L257.74 127.187C257.214 127.488 256.255 128.03 256.046 128.151C254.328 129.14 253.237 129.898 252.366 130.789C251.098 132.085 250.759 132.991 250.891 134.137L250.912 134.303C250.927 134.41 250.945 134.517 250.976 134.674L251.094 135.249C251.403 136.724 251.457 137.631 251.157 138.908C250.223 142.881 247.227 144.884 242.159 145.085C241.841 145.098 241.572 144.851 241.559 144.534C241.546 144.217 241.794 143.95 242.113 143.938C246.701 143.755 249.228 142.066 250.033 138.646C250.277 137.605 250.244 136.864 249.993 135.623L249.838 134.87C249.789 134.618 249.767 134.477 249.743 134.268C249.571 132.767 250.037 131.523 251.538 129.988C252.439 129.067 253.515 128.3 255.126 127.355L255.579 127.092C255.973 126.868 257.006 126.284 257.37 126.073L257.657 125.904C260.076 124.467 261.008 123.448 260.903 122.094C260.824 121.076 260.535 120.464 260 119.895L259.945 119.838C259.799 119.69 259.506 119.407 259.408 119.308L259.389 119.288C258.576 118.439 258.537 117.571 259.402 116.071L259.811 115.375C261.885 111.811 262.166 110.733 261.15 110.007C259.921 109.129 255.866 111.406 254.109 113.944L254.052 114.029C253.407 114.991 252.69 115.258 251.038 115.406L250.529 115.449C249.113 115.571 248.433 115.708 247.509 116.134C246.147 116.762 244.856 117.911 243.569 119.796L243.361 120.104C242.446 121.468 241.821 122.556 241.401 123.469C241.253 123.79 241.135 124.08 241.03 124.37L240.958 124.575C240.879 124.812 240.723 125.305 240.728 125.29C240.626 125.602 240.536 125.822 240.411 126.047C240.017 126.754 239.302 127.401 237.522 128.675C235.292 130.273 233.631 133.8 233.596 137.077C233.557 140.726 235.436 143.303 239.216 143.945C239.531 143.999 239.742 144.295 239.688 144.608C239.635 144.921 239.336 145.131 239.022 145.078C234.647 144.334 232.397 141.248 232.441 137.065C232.48 133.438 234.304 129.565 236.848 127.743L237.15 127.525C238.57 126.494 239.135 125.968 239.401 125.491C239.475 125.357 239.534 125.217 239.604 125.013L239.866 124.203C239.874 124.18 239.881 124.159 239.887 124.141C240.016 123.768 240.163 123.4 240.351 122.991C240.831 121.948 241.55 120.711 242.614 119.151C244.013 117.101 245.461 115.812 247.024 115.092C248.063 114.613 248.828 114.449 250.267 114.319L250.924 114.263C252.213 114.149 252.676 113.984 253.061 113.435L253.091 113.392Z" fill="#96C3FF"/>
<path d="M234.157 99.6696C234.316 99.6541 234.457 99.7694 234.473 99.9273L234.501 100.182L234.547 100.546C234.571 100.728 234.599 100.927 234.631 101.142C234.775 102.127 234.972 103.251 235.227 104.494C235.931 107.92 236.938 111.57 238.302 115.301L238.455 115.716C239.654 118.937 240.383 121.786 240.668 124.443C240.685 124.601 240.57 124.742 240.411 124.759C240.253 124.776 240.111 124.661 240.094 124.504C239.823 121.977 239.14 119.264 238.019 116.203L237.913 115.915C236.46 112.011 235.397 108.19 234.661 104.609C234.404 103.355 234.206 102.22 234.059 101.225L234.023 100.971C233.994 100.766 233.969 100.578 233.947 100.407L233.907 100.067L233.898 99.9835C233.883 99.8257 233.998 99.6852 234.157 99.6696Z" fill="#96C3FF"/>
<path d="M233.459 99.6779C235.479 98.7523 237.956 102.478 238.417 105.899L238.431 106.002C238.501 106.575 238.712 106.825 239.371 107.162L239.556 107.253C239.683 107.314 240.073 107.5 240.207 107.568C240.499 107.717 240.751 107.863 240.995 108.032C242.47 109.052 243.407 110.784 243.83 113.839L243.852 114.002C244.075 115.72 244.167 117.054 244.157 118.132C244.154 118.45 243.893 118.704 243.574 118.701C243.255 118.698 242.999 118.439 243.002 118.122L243.003 117.881C242.998 116.9 242.907 115.69 242.707 114.149C242.333 111.293 241.546 109.812 240.335 108.975C240.172 108.862 240 108.759 239.803 108.654L239.603 108.552C239.392 108.448 238.973 108.249 239.013 108.268C237.951 107.753 237.446 107.248 237.296 106.23L237.285 106.142C236.943 103.37 234.909 100.278 233.942 100.721C232.98 101.162 232.8 102.29 233.05 106.047L233.11 106.883C233.236 108.585 232.941 109.319 232.038 109.946L231.562 110.267C231.086 110.594 230.989 110.695 230.734 111.039L230.703 111.082C230.479 111.385 230.27 111.76 230.073 112.228C229.7 113.12 229.746 113.993 230.168 115.021L230.215 115.131C230.453 115.68 230.563 115.904 231.13 116.787L231.983 118.099C233.046 119.724 233.618 120.791 233.991 122.045C234.567 123.984 234.436 125.233 233.702 126.728L233.597 126.934C233.45 127.217 233.148 127.778 233.119 127.834C232.615 128.794 232.331 129.55 232.162 130.547C231.769 132.888 232.197 134.62 233.432 135.874C233.655 136.1 233.651 136.464 233.423 136.686C233.195 136.908 232.83 136.904 232.607 136.678C231.093 135.14 230.573 133.038 231.024 130.357C231.204 129.285 231.506 128.453 232.009 127.468L232.126 127.243C232.224 127.06 232.501 126.544 232.603 126.345L232.618 126.316C233.271 125.025 233.387 124.063 232.884 122.371C232.561 121.287 232.055 120.328 231.111 118.872L230.259 117.565C229.554 116.473 229.439 116.243 229.154 115.586C228.574 114.243 228.49 113.025 229.007 111.787C229.238 111.237 229.491 110.781 229.772 110.402C230.033 110.048 230.311 109.767 230.626 109.521C230.722 109.445 230.819 109.375 230.928 109.301L231.152 109.153C231.226 109.104 231.305 109.053 231.334 109.033C231.905 108.651 232.051 108.331 231.965 107.062L231.908 106.276C231.762 104.238 231.741 103.384 231.838 102.465C231.988 101.055 232.475 100.129 233.459 99.6779Z" fill="#96C3FF"/>
<path d="M247.714 144.562C243.117 146.552 238.507 146.323 234.457 144.562C234.076 144.397 233.648 144.675 233.648 145.089V147.376C233.648 147.604 233.784 147.811 233.995 147.902C238.323 149.784 243.262 150.029 248.175 147.903C248.386 147.812 248.522 147.605 248.522 147.376V145.089C248.522 144.675 248.096 144.397 247.714 144.562ZM247.367 145.943V146.995L247.36 146.998C243.058 148.755 238.757 148.583 234.927 147.046L234.803 146.996V145.944L234.931 145.993C238.766 147.421 243.027 147.575 247.298 145.97L247.367 145.943Z" fill="#96C3FF"/>
<path d="M246.44 148.033C246.533 147.73 246.856 147.559 247.161 147.652C247.452 147.741 247.622 148.038 247.555 148.328L247.544 148.37L244.686 157.637C244.657 157.731 244.604 157.816 244.533 157.884C244.373 158.035 244.082 158.231 243.648 158.418C242.96 158.713 242.108 158.887 241.085 158.887C240.064 158.887 239.202 158.713 238.497 158.42C238.054 158.236 237.754 158.043 237.589 157.897C237.525 157.84 237.475 157.771 237.442 157.693L237.424 157.645L235.137 150.63C235.039 150.328 235.205 150.004 235.509 149.906C235.797 149.813 236.107 149.959 236.22 150.234L236.236 150.276L238.465 157.115L238.469 157.118C238.574 157.185 238.7 157.254 238.85 157.321L238.942 157.36C239.507 157.595 240.217 157.738 241.085 157.738C241.952 157.738 242.648 157.596 243.191 157.363C243.362 157.29 243.493 157.22 243.586 157.162L243.634 157.13L246.44 148.033Z" fill="#96C3FF"/>
<path d="M201.837 75.6816C202.142 75.6816 202.391 75.9159 202.413 76.213L202.415 76.2559V77.617C202.415 77.9342 202.156 78.1914 201.837 78.1914C201.533 78.1914 201.284 77.9571 201.261 77.6599L201.26 77.617V76.2559C201.26 75.9387 201.518 75.6816 201.837 75.6816Z" fill="#96C3FF"/>
<path d="M203.055 134.076C204.164 134.046 204.858 134.891 205.262 136.261C205.51 137.104 205.62 137.964 205.696 139.115L205.837 141.289C206.551 152.498 207.22 166.071 207.631 178.671C207.641 178.988 207.392 179.253 207.073 179.264C206.754 179.274 206.487 179.025 206.477 178.708L206.415 176.844C205.993 164.585 205.341 151.568 204.649 140.813L204.544 139.19C204.385 136.78 203.921 135.202 203.086 135.224C202.601 135.237 202.224 135.575 201.934 136.196C201.818 136.443 201.728 136.714 201.662 136.985L201.629 137.132C201.613 137.205 201.603 137.261 201.598 137.293L201.594 137.326L201.51 138.299C201.476 138.699 201.44 139.14 201.402 139.619L201.334 140.502C201.194 142.325 201.055 144.319 200.925 146.443C200.534 152.8 200.289 159.134 200.258 165.044C200.247 167.104 200.263 169.083 200.307 170.969C200.315 171.286 200.062 171.549 199.743 171.556C199.425 171.564 199.16 171.313 199.153 170.996C199.108 169.098 199.092 167.109 199.103 165.038C199.133 159.341 199.361 153.258 199.726 147.138L199.772 146.373C199.903 144.243 200.042 142.243 200.182 140.415L200.299 138.932L200.445 137.215C200.446 137.204 200.447 137.194 200.448 137.184L200.459 137.108C200.475 137.009 200.501 136.875 200.54 136.715C200.622 136.375 200.736 136.035 200.887 135.712C201.342 134.737 202.05 134.103 203.055 134.076Z" fill="#96C3FF"/>
<path d="M26.2657 105.611C49.0166 72.266 70.4204 58.4208 96.0044 62.1004C111.254 64.2937 120.267 73.8704 122.148 87.2119C123.262 95.1123 121.79 100.094 118.267 102.542C115.773 104.276 112.545 104.542 109.418 103.883L109.261 103.849C106.496 103.238 104.064 103.331 102.056 103.85C101.75 103.929 101.479 104.012 101.245 104.095L101.146 104.131C101.032 104.174 100.95 104.207 100.9 104.229L100.866 104.244C100.36 104.485 99.7906 104.085 99.8352 103.541L99.8523 103.393C99.856 103.358 99.8599 103.315 99.864 103.266C99.9307 102.454 99.8849 101.537 99.6471 100.69C99.3703 99.704 98.8696 98.9707 98.1027 98.547C96.8728 97.8673 95.3452 97.9096 93.8706 98.7956C92.0529 99.8876 90.4283 102.158 89.2215 105.623L89.1205 105.918C87.6618 110.24 87.9421 112.405 89.1367 113.282C89.375 113.457 89.5621 113.538 89.9683 113.673C90.5761 113.874 91.2621 113.776 91.9626 113.457L92.0461 113.418L92.0488 113.416C92.4686 113.108 92.8014 112.915 93.0192 112.815L93.0612 112.797C93.8262 112.466 94.452 113.475 93.8112 114.006C93.6322 114.155 93.3427 114.357 92.9645 114.563L92.8076 114.645C91.5233 115.617 90.2042 117.178 89.0164 119.468C87.3798 122.625 86.2128 126.778 85.6852 132.066L85.658 132.346C84.9666 139.638 85.1669 141.938 86.208 144.095L86.4383 144.562C86.5196 144.727 86.5847 144.863 86.648 145L86.7316 145.184C87.4443 146.793 87.8482 148.651 88.0408 151.88L88.1459 153.816C88.6355 162.724 88.942 163.932 91.6656 167.929L92.1423 168.623C94.429 171.93 96.2825 175.685 97.1706 179.513C98.3807 184.73 97.6618 189.554 94.5246 193.665C91.1804 198.051 84.3849 201.352 76.6738 202.532C68.6697 203.756 60.8138 202.548 55.3947 198.906C52.5076 196.966 50.2943 195.272 48.1276 193.424L47.589 192.96C46.9079 192.368 45.7842 191.379 45.6933 191.3L45.4708 191.108C44.8595 190.583 44.405 190.221 43.9642 189.912C42.5986 188.956 41.2838 188.5 39.0745 188.284L38.7872 188.258C37.1599 188.119 35.6993 188.146 31.6322 188.369L29.0668 188.512C25.7649 188.694 23.6796 188.764 21.4284 188.742L21.2813 188.74C16.6514 188.686 12.8315 188.177 9.59742 187.036C4.59771 185.273 1.21593 179.869 0.329554 172.275C-0.61137 164.214 1.27352 154.271 6.01691 143.834L6.8669 141.967C15.8576 122.254 19.4295 115.63 26.2657 105.611ZM95.7979 63.5215C70.8695 59.9362 49.9338 73.4787 27.4601 106.418L27.0445 107.028C20.3224 116.939 16.7321 123.743 7.33221 144.425C2.69084 154.637 0.854648 164.324 1.76339 172.11C2.59204 179.209 5.67035 184.128 10.0799 185.683C13.0754 186.74 16.6573 187.231 21.0131 187.301L21.2983 187.305C23.519 187.331 25.5575 187.265 28.7797 187.09L32.0165 186.91C35.6243 186.716 37.104 186.688 38.6564 186.807L38.9126 186.828L39.0418 186.839C41.5334 187.064 43.1059 187.582 44.6848 188.662L44.795 188.738C45.28 189.077 45.7666 189.465 46.4089 190.017L46.7588 190.32C47.1524 190.665 48.3813 191.746 48.8543 192.152C51.0495 194.037 53.2688 195.745 56.2027 197.716C61.2876 201.133 68.7824 202.286 76.4543 201.113C83.8265 199.985 90.2873 196.846 93.3747 192.797C96.2301 189.055 96.8843 184.665 95.7641 179.836C94.9413 176.289 93.2255 172.771 91.1018 169.653L90.6458 168.99C87.5946 164.538 87.2237 163.255 86.7067 153.928L86.6206 152.334C86.4429 148.974 86.0616 147.2 85.3746 145.683L85.3369 145.6C85.3021 145.525 85.2664 145.45 85.2269 145.368L84.9427 144.791C83.7336 142.328 83.4999 139.816 84.2209 132.211C84.7516 126.614 85.9799 122.192 87.7335 118.81C88.4245 117.478 89.1653 116.363 89.9279 115.446L90.0485 115.303L90.1523 115.183L90.1456 115.182C90.013 115.164 89.8807 115.138 89.7489 115.104L89.6173 115.068L89.5122 115.035L89.333 114.975C89.1981 114.928 89.1166 114.897 88.9934 114.843C88.7416 114.734 88.5053 114.603 88.2798 114.437C86.4445 113.091 86.1022 110.199 87.8575 105.154C89.1665 101.395 90.9868 98.8507 93.1243 97.5666C95.0373 96.4172 97.1168 96.3596 98.8037 97.2918C99.9451 97.9226 100.665 98.9765 101.037 100.304C101.231 100.995 101.32 101.703 101.334 102.385L101.336 102.557L101.471 102.519L101.58 102.49L101.693 102.46C103.862 101.9 106.452 101.79 109.365 102.403L109.574 102.448C112.393 103.07 115.3 102.854 117.44 101.366C120.45 99.2735 121.764 94.8277 120.718 87.4113C118.925 74.6852 110.393 65.6207 95.7979 63.5215Z" fill="#C3ADF7"/>
<path d="M115.774 102.684C115.866 102.38 116.188 102.208 116.493 102.3C116.799 102.392 116.971 102.713 116.879 103.016C110.427 124.224 98.4274 135.668 84.6928 136.049C84.374 136.057 84.1084 135.808 84.0993 135.49C84.0907 135.173 84.3419 134.909 84.6607 134.9C97.8388 134.536 109.454 123.458 115.774 102.684Z" fill="#C3ADF7"/>
<path d="M88.1252 163.834C88.3217 163.489 88.7622 163.368 89.109 163.563C93.2036 165.872 97.172 168.498 100.998 171.452C108.11 176.947 112.811 183.167 115.906 190.59L116.045 190.926C118.18 196.125 119.252 200.63 120.838 209.834L121.632 214.486C121.711 214.94 121.783 215.343 121.856 215.753L121.961 216.337C123.44 224.479 125.033 230.108 127.734 235.589C131.08 242.378 135.971 248.276 143.045 253.615C143.363 253.855 143.425 254.305 143.184 254.621C142.943 254.937 142.49 254.999 142.173 254.759C134.92 249.284 129.884 243.211 126.438 236.221C123.704 230.674 122.086 225.009 120.602 216.926L120.391 215.759C120.318 215.347 120.245 214.931 120.162 214.453L119.52 210.682C117.876 201.07 116.816 196.56 114.641 191.304L114.573 191.14C111.572 183.944 107.024 177.926 100.112 172.586C96.3421 169.675 92.4317 167.087 88.3971 164.812C88.0504 164.617 87.9286 164.179 88.1252 163.834Z" fill="#C3ADF7"/>
<path d="M5.96797 184.281C6.04113 183.891 6.41808 183.634 6.80991 183.707C7.20174 183.78 7.46007 184.155 7.38691 184.544C6.41854 189.703 5.76723 195.583 5.45548 202.233C5.08564 210.102 5.13957 217.441 5.56746 224.266C5.59227 224.662 5.28987 225.003 4.89204 225.027C4.49421 225.052 4.1516 224.751 4.12679 224.356C3.69562 217.478 3.64131 210.087 4.01358 202.166C4.3283 195.452 4.98684 189.508 5.96797 184.281Z" fill="#C3ADF7"/>
<path d="M80.0916 221.644C80.3953 221.624 80.6597 221.842 80.7015 222.137L80.708 222.209L80.7141 222.288C80.7216 222.381 80.7312 222.492 80.7432 222.619L80.7818 223.003C80.8055 223.227 80.8332 223.469 80.8651 223.728L80.8847 223.886C81.0578 225.256 81.3069 226.784 81.6459 228.43C82.6142 233.132 84.1063 237.833 86.2297 242.216C88.389 246.672 91.0892 250.548 94.3857 253.677C94.6164 253.896 94.625 254.26 94.4048 254.489C94.1846 254.719 93.8191 254.727 93.5885 254.508C90.1843 251.276 87.4056 247.288 85.1895 242.714C83.0209 238.239 81.5008 233.449 80.5146 228.66C80.191 227.089 79.9477 225.622 79.773 224.293L79.739 224.029C79.6908 223.648 79.6511 223.299 79.6191 222.986L79.5863 222.649L79.5537 222.256C79.5326 221.939 79.7734 221.665 80.0916 221.644Z" fill="#C3ADF7"/>
<path d="M77.8509 223.764C78.1399 223.672 78.4488 223.818 78.5621 224.093L78.5975 224.191C78.6127 224.232 78.6348 224.288 78.6645 224.359C78.7467 224.556 78.8519 224.777 78.9819 225.016C79.3564 225.705 79.853 226.395 80.4862 227.04C80.7365 227.295 81.004 227.537 81.2894 227.767C81.5375 227.966 81.5761 228.328 81.3757 228.574C81.1753 228.821 80.8118 228.86 80.5637 228.66C80.2427 228.402 79.9418 228.129 79.6604 227.843C78.9481 227.118 78.3894 226.341 77.9662 225.562C77.7091 225.089 77.5524 224.715 77.4786 224.487C77.3807 224.185 77.5474 223.862 77.8509 223.764Z" fill="#C3ADF7"/>
<path d="M114.438 44.3642L109.296 58.573C109.127 59.0402 109.756 59.3742 110.052 58.9747L118.906 47.0402C119.057 46.8374 119.001 46.5499 118.785 46.4177L115.072 44.1434C114.838 44 114.531 44.107 114.438 44.3642ZM115.072 45.1551L117.93 46.9056L111.114 56.0917L115.072 45.1551Z" fill="#C3ADF7"/>
<path d="M100.39 34.0287H93.248C92.9703 34.0287 92.7644 34.285 92.8256 34.5544L97.3956 54.6558C97.5025 55.1259 98.1864 55.0932 98.2476 54.6152L100.82 34.5138C100.853 34.2564 100.651 34.0287 100.39 34.0287ZM99.8985 34.8902L97.6984 52.0826L93.7898 34.8902H99.8985Z" fill="#C3ADF7"/>
<path d="M78.6114 41.5446L72.8375 44.5713C72.5865 44.7029 72.5284 45.035 72.72 45.2432L83.7135 57.192C84.031 57.5371 84.5961 57.2021 84.4421 56.7601L79.2225 41.7846C79.1356 41.5354 78.846 41.4216 78.6114 41.5446ZM78.5693 42.5405L82.9372 55.0725L73.7374 45.0733L78.5693 42.5405Z" fill="#C3ADF7"/>
<path d="M104.812 134.786C107.698 134.08 109.924 135.064 110.578 137.67C110.656 137.978 110.468 138.289 110.158 138.366C109.849 138.443 109.535 138.256 109.458 137.948C108.975 136.026 107.409 135.333 105.088 135.902C102.751 136.474 100.069 138.266 97.9643 140.725L97.3747 141.422C95.2337 143.932 91.8115 147.69 87.7238 152.064C87.5067 152.297 87.1414 152.31 86.9078 152.094C86.6742 151.878 86.6609 151.515 86.878 151.282L88.1707 149.896C91.9145 145.869 94.9948 142.463 96.8691 140.236L96.9589 140.129C99.23 137.42 102.175 135.432 104.812 134.786Z" fill="#C3ADF7"/>
<path d="M104.397 142.953C104.693 142.835 105.029 142.978 105.147 143.273C105.266 143.567 105.122 143.902 104.825 144.02C103.862 144.403 102.933 144.403 102.117 144.171C101.906 144.111 101.748 144.048 101.651 144C101.365 143.858 101.25 143.513 101.392 143.229C101.528 142.959 101.849 142.842 102.126 142.954L102.205 142.989C102.252 143.009 102.33 143.037 102.434 143.067C103.02 143.233 103.692 143.233 104.397 142.953Z" fill="#C3ADF7"/>
<path d="M112.82 135.755C114.92 135.28 116.667 136.148 117.753 138.462C117.888 138.749 117.763 139.091 117.474 139.225C117.185 139.36 116.842 139.235 116.707 138.948C115.849 137.12 114.642 136.521 113.076 136.875C111.74 137.177 110.193 138.181 108.748 139.587L108.625 139.709C107.523 140.804 106.422 141.821 105.365 142.741L105.102 142.969C104.748 143.273 104.422 143.547 104.129 143.788L103.832 144.03L103.617 144.202C103.366 144.398 103.003 144.355 102.806 144.105C102.619 143.868 102.649 143.531 102.867 143.33L102.915 143.29L103.105 143.137L103.288 142.99C103.6 142.734 103.956 142.436 104.346 142.1C105.377 141.213 106.455 140.227 107.538 139.163L107.809 138.896C109.428 137.287 111.195 136.122 112.82 135.755Z" fill="#C3ADF7"/>
<path d="M115.991 138.835C118.668 136.933 122.489 137.144 124.04 139.919C124.194 140.197 124.094 140.546 123.815 140.7C123.537 140.854 123.185 140.755 123.03 140.477C121.865 138.391 118.838 138.224 116.661 139.77L116.452 139.92C115.846 140.359 115.135 140.91 114.298 141.583L113.848 141.948L113.169 142.505C112.309 143.216 110.43 144.776 110.004 145.115C108.884 146.006 107.813 146.262 106.96 146.148L106.885 146.137C106.851 146.131 106.823 146.125 106.801 146.12C106.491 146.043 106.303 145.731 106.381 145.423C106.454 145.129 106.743 144.946 107.039 144.996L107.081 145.005C107.077 145.004 107.088 145.007 107.113 145.01C107.299 145.035 107.551 145.025 107.853 144.953C108.308 144.845 108.788 144.611 109.282 144.218L109.62 143.944C110.486 143.235 112.421 141.628 112.804 141.314L113.268 140.936C114.356 140.054 115.248 139.362 115.991 138.835Z" fill="#C3ADF7"/>
<path d="M131.981 137.443L135.662 138.069C135.914 138.11 136.116 138.143 136.238 138.161L136.5 138.197C137.27 138.299 137.746 138.309 138.203 138.24C138.348 138.218 138.496 138.187 138.658 138.145L138.903 138.077C138.963 138.059 139.023 138.041 139.101 138.016L139.813 137.787C140.088 137.7 140.283 137.643 140.497 137.589C142.018 137.206 143.198 137.425 144.156 138.585C145.932 140.73 144.633 144.11 141.354 145.483C140.432 145.87 139.437 146.065 138.33 146.109C137.43 146.145 136.642 146.095 135.309 145.947L134.232 145.827C133.161 145.712 132.709 145.691 132.174 145.733C129.981 145.902 125.513 149.469 121.002 154.899L120.782 155.166C118.802 157.592 117.795 159.419 117.668 160.551C117.593 161.215 117.811 161.45 118.415 161.449L118.473 161.449C120.051 161.409 120.886 160.438 122.876 155.999C123.943 153.615 125.457 152.132 127.122 151.747C128.741 151.371 130.279 152.106 131.125 153.618C132.723 156.465 130.912 161.631 127.139 165.285L126.789 165.621C123.326 168.931 121.928 169.505 117.39 169.609L117.239 169.612C115.82 169.641 114.709 169.599 113.13 169.483L111.432 169.359C111.009 169.331 110.789 169.324 110.431 169.318C109.394 169.301 108.479 169.38 107.461 169.597C105.737 169.962 104.767 170.464 103.773 171.487C103.496 171.772 103.039 171.78 102.752 171.504C102.466 171.228 102.458 170.774 102.735 170.489C103.939 169.251 105.167 168.614 107.16 168.192C108.214 167.968 109.177 167.876 110.228 167.88L110.669 167.887C111.045 167.895 111.323 167.91 111.999 167.959L113.45 168.067C114.875 168.168 115.908 168.203 117.209 168.177L117.494 168.17C121.64 168.067 122.676 167.592 126.018 164.366L126.132 164.256C129.491 161.004 131.077 156.478 129.865 154.317C128.654 152.155 125.958 152.755 124.246 156.47L123.932 157.162C121.897 161.605 120.756 162.828 118.508 162.884C117.018 162.919 116.055 161.978 116.233 160.392C116.401 158.9 117.558 156.815 119.77 154.129L119.889 153.984C124.641 148.264 129.342 144.511 132.062 144.301L132.23 144.29C132.839 144.254 133.375 144.287 134.575 144.42L135.598 144.535C136.783 144.664 137.492 144.705 138.272 144.674C139.216 144.637 140.043 144.475 140.793 144.16C143.255 143.129 144.141 140.824 143.042 139.497C142.494 138.835 141.884 138.721 140.852 138.981L140.687 139.024C140.594 139.05 140.497 139.078 140.385 139.113L139.448 139.413C139.35 139.443 139.272 139.466 139.173 139.494C138.908 139.568 138.664 139.622 138.421 139.659C137.784 139.756 137.159 139.738 136.199 139.606L135.992 139.576C135.201 139.456 131.953 138.893 131.902 138.885C128.145 138.252 125.064 139.449 122.358 142.09L114.435 149.97C113.681 150.719 112.872 150.839 112.221 150.49C112.086 150.418 111.984 150.339 111.913 150.268C111.631 149.988 111.631 149.534 111.913 149.253C112.195 148.973 112.652 148.973 112.933 149.253L112.905 149.226C112.925 149.237 112.946 149.241 112.981 149.236C113.082 149.221 113.225 149.143 113.414 148.955L121.223 141.187C124.226 138.2 127.74 136.779 131.981 137.443Z" fill="#C3ADF7"/>
<path d="M129.203 153.439L129.214 153.439C129.317 153.434 129.449 153.443 129.601 153.473C129.829 153.52 130.055 153.609 130.266 153.751C130.86 154.151 131.228 154.889 131.277 156.011C131.284 156.17 131.161 156.304 131.002 156.311C130.842 156.318 130.708 156.195 130.701 156.036C130.659 155.086 130.376 154.518 129.942 154.226C129.71 154.07 129.47 154.013 129.285 154.012L129.208 154.014C128.187 153.995 127.523 154.465 127.386 155.087C127.275 155.589 127.558 155.936 128.11 155.869L128.164 155.861C130.091 155.542 131.29 156.363 131.035 157.992C131.01 158.149 130.862 158.256 130.705 158.231C130.547 158.207 130.44 158.06 130.464 157.904C130.646 156.741 129.868 156.186 128.343 156.414L128.259 156.428C127.254 156.594 126.622 155.865 126.822 154.963C127.017 154.083 127.892 153.446 129.132 153.439L129.203 153.439Z" fill="#C3ADF7"/>
<path d="M141.882 138.042C141.955 137.901 142.13 137.846 142.271 137.919C143.293 138.446 143.643 139.319 143.365 140.162C143.109 140.94 142.346 141.436 141.905 140.832C141.199 139.868 140.436 139.369 138.779 139.124C138.621 139.101 138.512 138.955 138.536 138.798C138.559 138.641 138.706 138.533 138.864 138.556C140.683 138.825 141.579 139.411 142.372 140.495C142.424 140.566 142.68 140.399 142.817 139.983C143.007 139.406 142.774 138.825 142.005 138.429C141.864 138.356 141.809 138.182 141.882 138.042Z" fill="#C3ADF7"/>
<path d="M146.531 111.186L148.558 111.805C148.863 111.898 149.035 112.219 148.941 112.522C148.847 112.825 148.524 112.996 148.22 112.903L146.191 112.284C145.828 112.172 145.379 112.388 145.193 112.778L145.171 112.828L134.677 138.753C134.558 139.047 134.222 139.19 133.926 139.071C133.644 138.958 133.501 138.65 133.591 138.366L133.606 138.324L144.1 112.399C144.489 111.436 145.566 110.889 146.531 111.186ZM172.707 119.178L177.532 120.651C178.515 120.953 178.993 121.998 178.635 122.973L178.611 123.036L177.574 125.601C177.455 125.895 177.119 126.038 176.823 125.919C176.541 125.807 176.398 125.498 176.488 125.215L176.503 125.172L177.54 122.607C177.696 122.223 177.533 121.853 177.192 121.749L172.368 120.276C172.064 120.183 171.892 119.861 171.986 119.558C172.079 119.255 172.402 119.085 172.707 119.178Z" fill="#C3ADF7"/>
<path d="M130.935 144.917C131.055 144.623 131.391 144.481 131.687 144.599C131.968 144.712 132.112 145.021 132.022 145.304L132.007 145.346L129.056 152.637C128.937 152.931 128.601 153.074 128.305 152.956C128.023 152.843 127.88 152.534 127.97 152.251L127.985 152.208L130.935 144.917Z" fill="#C3ADF7"/>
<path d="M167.296 148.677C167.355 148.53 167.524 148.459 167.671 148.518C167.809 148.573 167.88 148.721 167.842 148.86L167.831 148.892L156.255 177.49C155.929 178.296 155.042 178.764 154.239 178.554L154.176 178.536L123.176 169.071C122.741 168.939 122.41 168.625 122.254 168.211C122.198 168.063 122.274 167.897 122.423 167.842C122.572 167.786 122.739 167.861 122.795 168.01C122.882 168.24 123.056 168.416 123.29 168.504L123.345 168.522L154.346 177.987C154.854 178.143 155.453 177.853 155.695 177.33L155.719 177.276L167.296 148.677Z" fill="#C3ADF7"/>
<path d="M123.848 166.909C123.907 166.762 124.076 166.691 124.223 166.75C124.361 166.805 124.432 166.954 124.394 167.092L124.383 167.124L124.207 167.558C124.147 167.705 123.979 167.776 123.831 167.716C123.694 167.661 123.622 167.513 123.661 167.374L123.671 167.342L123.848 166.909Z" fill="#C3ADF7"/>
<path d="M167.051 154.28C167.169 153.985 167.505 153.842 167.801 153.96C168.083 154.072 168.227 154.381 168.138 154.664L168.123 154.707L157.728 180.522C157.34 181.459 156.291 182.001 155.335 181.751L155.268 181.732L123.684 172.267C123.032 172.071 122.576 171.536 122.472 170.879L122.478 170.928L121.963 168.82C121.888 168.512 122.078 168.202 122.388 168.127C122.684 168.055 122.982 168.224 123.074 168.508L123.086 168.549L123.584 170.591L123.592 170.615L123.604 170.657L123.613 170.7C123.646 170.911 123.776 171.076 123.971 171.151L124.018 171.167L155.603 180.632C155.981 180.747 156.448 180.525 156.637 180.137L156.658 180.09L167.051 154.28Z" fill="#C3ADF7"/>
<path d="M166.894 148.516C167.043 148.149 167.463 147.97 167.833 148.118C168.188 148.26 168.367 148.65 168.25 149.006L168.233 149.053L156.656 177.651C156.249 178.659 155.138 179.242 154.117 178.967L154.049 178.948L123.049 169.483C122.534 169.326 122.13 168.968 121.91 168.497L121.888 168.45L121.87 168.414C121.753 168.163 121.789 167.858 121.979 167.64L122.017 167.6C122.376 167.243 122.978 167.358 123.184 167.809L123.203 167.855C123.246 167.969 123.323 168.051 123.431 168.096L123.472 168.11L154.474 177.576C154.766 177.665 155.14 177.485 155.297 177.16L155.317 177.115L166.894 148.516Z" fill="#C3ADF7"/>
<path d="M177.864 122.13C177.794 121.775 178.304 121.652 178.417 121.973L178.428 122.008L178.985 124.308C179.022 124.463 178.927 124.618 178.772 124.655C178.628 124.689 178.483 124.61 178.433 124.475L178.424 124.443L178.162 123.362L177.425 125.184C177.369 125.32 177.221 125.391 177.081 125.353L177.049 125.343C176.912 125.288 176.84 125.14 176.878 125.001L176.889 124.969L177.802 122.713C177.881 122.521 177.901 122.32 177.864 122.13Z" fill="#C3ADF7"/>
<path d="M155.704 181.675C156.073 181.525 156.495 181.7 156.646 182.067C160.028 190.267 161.612 198.147 161.698 205.618C161.764 211.413 160.933 216.623 159.504 221.163C159.022 222.695 158.504 224.04 157.986 225.188C157.826 225.542 157.676 225.855 157.538 226.128L157.42 226.355C157.356 226.477 157.308 226.565 157.277 226.618C157.078 226.962 156.637 227.081 156.292 226.883C155.946 226.686 155.827 226.247 156.025 225.903L156.099 225.769C156.126 225.719 156.158 225.658 156.195 225.586L156.305 225.37C156.418 225.143 156.54 224.886 156.669 224.6C157.165 223.502 157.662 222.21 158.127 220.734C159.511 216.334 160.319 211.272 160.254 205.634C160.171 198.343 158.622 190.642 155.311 182.612C155.159 182.245 155.336 181.826 155.704 181.675Z" fill="#C3ADF7"/>
<path d="M177.49 124.072C179.333 123.002 181.126 122.853 182.642 123.443C185.29 124.474 185.679 127.27 183.988 130.949L183.922 131.091C183.644 131.679 182.511 133.758 182.246 134.26L182.214 134.321C181.438 135.829 180.796 137.328 180.176 139.185L180.056 139.55C179.025 142.739 178.153 146.724 177.442 151.843C176.868 155.967 176.965 159.957 177.677 164.208C178.285 167.835 179.302 171.554 180.985 176.6L181.19 177.206C181.877 179.206 185.072 188.388 186.12 191.617C186.66 193.28 187.164 194.894 187.644 196.502C189.411 202.42 190.214 208.376 190.214 214.256C190.214 218.828 189.733 223.094 188.929 226.94C188.666 228.199 188.385 229.328 188.103 230.318L188.042 230.528C187.963 230.802 187.887 231.05 187.816 231.272L187.709 231.599C187.674 231.704 187.648 231.78 187.631 231.826C187.496 232.199 187.082 232.392 186.707 232.257C186.347 232.128 186.154 231.743 186.259 231.383L186.375 231.038L186.474 230.73C186.532 230.547 186.592 230.346 186.656 230.128C186.949 229.124 187.242 227.959 187.516 226.648C188.3 222.894 188.771 218.725 188.771 214.256C188.771 208.51 187.986 202.69 186.26 196.91C185.843 195.513 185.407 194.111 184.946 192.676L184.639 191.729C183.412 187.992 180.01 178.23 179.71 177.336L179.521 176.769C177.872 171.801 176.864 168.088 176.254 164.444C175.518 160.054 175.418 155.919 176.012 151.647C176.762 146.249 177.692 142.071 178.806 138.733C179.419 136.895 180.057 135.388 180.815 133.891L180.93 133.667C181.128 133.281 182.289 131.156 182.595 130.524L182.646 130.416L182.676 130.352C184.067 127.324 183.805 125.437 182.116 124.78C181.014 124.351 179.683 124.462 178.218 125.312C176.27 126.442 174.252 128.778 172.251 132.505C170.263 136.206 169.076 140.641 168.569 145.546C168.184 149.264 168.214 152.997 168.522 156.367C168.558 156.761 168.265 157.111 167.869 157.147C167.472 157.182 167.12 156.891 167.084 156.497C166.768 153.04 166.738 149.216 167.133 145.399C167.658 140.322 168.892 135.712 170.977 131.828C173.094 127.885 175.283 125.352 177.49 124.072Z" fill="#C3ADF7"/>
<path d="M183.857 128.264C183.859 128.241 183.847 128.186 183.795 128.102C183.693 127.935 183.486 127.757 183.139 127.581L183.065 127.544C181.651 126.882 180.389 126.976 179.51 127.629C178.789 128.163 178.496 128.982 178.778 129.463C179.026 129.887 179.413 130.119 180.292 130.432L180.878 130.637C181.071 130.706 181.234 130.768 181.391 130.832C181.981 131.074 182.454 131.348 182.872 131.72C182.991 131.825 183.001 132.007 182.895 132.125C182.789 132.243 182.606 132.254 182.487 132.148C182.124 131.825 181.705 131.582 181.171 131.363C181.082 131.327 180.991 131.291 180.893 131.254L180.448 131.095C180.313 131.048 180.18 131.002 180.197 131.008L179.99 130.934C179.06 130.594 178.604 130.308 178.279 129.752C177.829 128.984 178.231 127.861 179.164 127.168C180.22 126.385 181.709 126.274 183.313 127.026L183.402 127.07C184.183 127.467 184.467 127.929 184.432 128.316L184.428 128.347C184.401 128.504 184.251 128.608 184.094 128.581C183.948 128.556 183.847 128.426 183.855 128.283L183.857 128.264Z" fill="#C3ADF7"/>
<path d="M169.507 106.83H150.746C149.23 106.83 148.002 108.049 148.002 109.555V119.809L148.003 119.887C148.044 121.357 149.256 122.534 150.746 122.534L156.282 122.534L159.534 127.197L159.565 127.238C159.863 127.608 160.443 127.594 160.72 127.197L163.972 122.534L169.507 122.534C171.024 122.534 172.252 121.315 172.252 119.809V109.555C172.252 108.049 171.024 106.83 169.507 106.83ZM150.746 108.266H169.507C170.227 108.266 170.808 108.842 170.808 109.555V119.809C170.808 120.522 170.227 121.098 169.507 121.098H163.594L163.54 121.1C163.324 121.116 163.125 121.228 163.001 121.407L160.127 125.528L157.253 121.407C157.118 121.213 156.896 121.098 156.66 121.098H150.746C150.026 121.098 149.445 120.522 149.445 119.809V109.555C149.445 108.842 150.026 108.266 150.746 108.266Z" fill="#C3ADF7"/>
<path d="M167.559 112.092L167.475 111.867C166.798 110.044 164.751 109.107 162.901 109.772L155.114 112.565C153.26 113.23 152.305 115.25 152.983 117.076L153.067 117.302C153.745 119.122 155.791 120.057 157.641 119.397L165.429 116.604C167.282 115.938 168.238 113.919 167.559 112.092ZM166.392 112.265L166.476 112.491C166.931 113.716 166.289 115.073 165.037 115.523L157.25 118.316C155.995 118.764 154.607 118.13 154.15 116.903L154.066 116.678C153.611 115.452 154.253 114.095 155.506 113.645L163.293 110.852C164.548 110.401 165.935 111.036 166.392 112.265Z" fill="#96C3FF"/>
<path d="M178.083 102.23C178.325 102.024 178.69 102.052 178.897 102.292C179.094 102.521 179.079 102.86 178.869 103.07L178.835 103.102L174.793 106.548C174.551 106.755 174.186 106.727 173.979 106.486C173.782 106.257 173.797 105.918 174.007 105.708L174.041 105.676L178.083 102.23Z" fill="#C3ADF7"/>
<path d="M154.681 91.1892C154.981 91.1344 155.269 91.3199 155.344 91.6081L155.354 91.65L157.375 102.562C157.432 102.874 157.225 103.174 156.911 103.231C156.612 103.286 156.324 103.1 156.248 102.812L156.239 102.77L154.218 91.8581C154.16 91.5462 154.368 91.2467 154.681 91.1892Z" fill="#C3ADF7"/>
<path d="M165.198 98.2108C165.281 97.9043 165.597 97.7221 165.905 97.8038C166.199 97.8818 166.379 98.1721 166.324 98.4649L166.314 98.5067L165.159 102.814C165.077 103.121 164.761 103.303 164.453 103.221C164.159 103.143 163.978 102.853 164.034 102.56L164.044 102.518L165.198 98.2108Z" fill="#C3ADF7"/>
<path d="M147.278 99.2985C147.54 99.1463 147.873 99.223 148.043 99.4673L148.067 99.5052L150.088 102.951C150.249 103.225 150.156 103.577 149.88 103.737C149.618 103.889 149.285 103.812 149.115 103.568L149.091 103.53L147.07 100.084C146.909 99.81 147.002 99.4583 147.278 99.2985Z" fill="#C3ADF7"/>
<path d="M137.589 102.884C137.777 102.648 138.114 102.598 138.362 102.763L138.4 102.79L145.329 108.246C145.579 108.443 145.621 108.804 145.423 109.053C145.235 109.289 144.898 109.339 144.65 109.175L144.612 109.147L137.683 103.691C137.433 103.494 137.391 103.133 137.589 102.884Z" fill="#C3ADF7"/>
<path d="M137.97 122.283C139.076 121.946 140.199 122.26 140.746 123.117C140.917 123.385 140.838 123.74 140.568 123.91C140.313 124.072 139.978 124.008 139.799 123.772L139.772 123.733C139.525 123.347 138.949 123.186 138.308 123.381C137.519 123.621 136.817 124.332 136.421 125.451C135.675 127.561 136.631 129.063 137.659 128.64L137.7 128.622C137.99 128.488 138.333 128.613 138.467 128.901C138.602 129.188 138.476 129.53 138.187 129.663C137.21 130.115 136.141 129.748 135.524 128.806C134.909 127.869 134.819 126.52 135.332 125.07C135.845 123.618 136.817 122.634 137.97 122.283Z" fill="#C3ADF7"/>
<path d="M135.251 128.839C136.357 128.502 137.48 128.816 138.027 129.673C138.198 129.941 138.118 130.296 137.849 130.466C137.593 130.627 137.258 130.564 137.079 130.328L137.052 130.289C136.806 129.903 136.23 129.742 135.589 129.937C134.799 130.177 134.097 130.888 133.702 132.006C132.958 134.118 133.913 135.619 134.939 135.196L134.981 135.178C135.27 135.044 135.613 135.169 135.748 135.457C135.882 135.744 135.757 136.086 135.467 136.219C134.491 136.67 133.422 136.304 132.805 135.362C132.192 134.425 132.101 133.076 132.612 131.626C133.125 130.174 134.098 129.19 135.251 128.839Z" fill="#C3ADF7"/>
<path d="M130.059 137.771C131.201 135.179 134.16 134.433 135.308 136.232C135.478 136.5 135.399 136.855 135.129 137.025C134.873 137.186 134.539 137.123 134.359 136.886L134.332 136.847C133.75 135.934 131.927 136.393 131.117 138.232C130.989 138.522 130.648 138.655 130.356 138.528C130.064 138.4 129.931 138.061 130.059 137.771Z" fill="#C3ADF7"/>
<path d="M184.194 180.632C184.574 180.254 185.183 180.24 185.58 180.592L185.623 180.632L226.617 221.409C227.012 221.802 227.012 222.438 226.617 222.831C226.237 223.209 225.628 223.223 225.232 222.871L225.188 222.831L184.194 182.054C183.799 181.661 183.799 181.025 184.194 180.632Z" fill="#C3ADF7"/>
<path d="M114.619 111.426C114.999 111.048 115.608 111.034 116.004 111.386L116.048 111.426L132.214 127.507C132.609 127.9 132.609 128.536 132.214 128.929C131.834 129.307 131.225 129.321 130.829 128.969L130.785 128.929L114.619 112.847C114.224 112.455 114.224 111.819 114.619 111.426Z" fill="#C3ADF7"/>
<path d="M35.9496 33.1744C36.3301 32.796 36.9386 32.7824 37.3354 33.1339L37.3786 33.1744L67.2584 62.8957C67.653 63.2882 67.653 63.9246 67.2584 64.3171C66.8779 64.6956 66.2694 64.7091 65.8726 64.3576L65.8294 64.3171L35.9496 34.5958C35.555 34.2033 35.555 33.5669 35.9496 33.1744Z" fill="#C3ADF7"/>
<path d="M187.335 23.1165H168.336C166.803 23.1165 165.566 24.3646 165.566 25.901V36.4618L165.567 36.541C165.609 38.0409 166.829 39.2463 168.336 39.2463L173.943 39.2462L177.239 44.0532L177.27 44.0949C177.568 44.4705 178.155 44.4566 178.432 44.0532L181.728 39.2462L187.335 39.2463C188.868 39.2463 190.105 37.9983 190.105 36.4618V25.901C190.105 24.3679 188.864 23.1165 187.335 23.1165ZM168.336 24.5524H187.335C188.063 24.5524 188.661 25.1563 188.661 25.901V36.4618C188.661 37.2098 188.066 37.8105 187.335 37.8105H181.346L181.292 37.8125C181.074 37.829 180.874 37.9429 180.75 38.1238L177.835 42.3745L174.92 38.1238C174.786 37.9278 174.563 37.8105 174.324 37.8105H168.336C167.605 37.8105 167.009 37.2098 167.009 36.4618V25.901C167.009 25.153 167.605 24.5524 168.336 24.5524Z" fill="#96C3FF"/>
<path fill-rule="evenodd" clip-rule="evenodd" d="M170.986 29.1855L175.775 35.6081C175.775 35.6081 178.158 32.1505 184.75 29.1369C185.266 28.9004 185.08 28.1259 184.512 28.1421C182.213 28.2069 178.648 28.7351 175.459 31.0261L171.975 28.3657C171.413 27.9315 170.659 28.5601 170.986 29.1855Z" fill="#C3ADF7"/>
<path d="M163.689 116.588C165.603 116.588 167.154 115.045 167.154 113.142C167.154 111.239 165.603 109.696 163.689 109.696C161.776 109.696 160.225 111.239 160.225 113.142C160.225 115.045 161.776 116.588 163.689 116.588Z" fill="#96C3FF"/>
</g>
<defs>
<clipPath id="clip0">
<rect width="263" height="255" fill="white"/>
</clipPath>
</defs>
</svg>
