<svg width="1080" height="1080" viewBox="0 0 1080 1080" fill="none" xmlns="http://www.w3.org/2000/svg">
<path d="M626.38 688.81C626.38 688.81 626.38 677.91 626.38 649.76C626.38 621.61 649.37 621.61 680.1 578.02C710.83 534.43 757.43 396.4 680.1 266.54C649.99 294.69 613.67 311.95 613.67 311.95C613.67 311.95 551.01 239.3 494.71 242.03C438.41 244.76 400.27 337.38 412.07 421.83C373.93 426.37 373.46 454.43 377.56 474.5C383.31 502.67 409.56 517.15 429.79 521.7C429.79 521.7 440.22 567.13 463.83 598.01C487.44 628.89 508.33 630.7 508.33 661.58" stroke="#96C3FF" stroke-width="2" stroke-miterlimit="10" stroke-linecap="round" stroke-linejoin="round"/>
<path d="M626.99 636.4C649.3 637.58 672 641.21 684.71 653.47C697.42 665.73 692.13 713.09 674.42 744.42C656.71 775.75 647.18 782.11 647.18 782.11C647.18 782.11 628.56 737.16 605.41 739.88C605.41 739.88 627.66 718.99 642.19 693.57C656.72 668.14 626.46 647 626.46 647" stroke="#96C3FF" stroke-width="2" stroke-miterlimit="10" stroke-linecap="round" stroke-linejoin="round"/>
<path d="M589.97 798.46C589.97 798.46 589.97 744.43 605.41 739.89" stroke="#96C3FF" stroke-width="2" stroke-miterlimit="10" stroke-linecap="round" stroke-linejoin="round"/>
<path d="M576.81 798.46C576.81 798.46 571.82 776.67 567.73 761.68C563.64 746.7 552.29 743.52 542.3 752.14C532.31 760.76 516.87 789.83 516.87 789.83C516.87 789.83 468.29 761.68 452.39 721.27C436.5 680.86 448.84 640.68 468.37 635.23C487.89 629.78 497.89 632.9 497.89 632.9" stroke="#96C3FF" stroke-width="2" stroke-miterlimit="10" stroke-linecap="round" stroke-linejoin="round"/>
<path d="M558.71 748.7C526.02 724.89 497.43 678.37 492.89 661.57C488.35 644.77 501.06 641.32 501.06 641.32" stroke="#96C3FF" stroke-width="2" stroke-miterlimit="10" stroke-linecap="round" stroke-linejoin="round"/>
<path d="M642.41 772.24C642.41 772.24 626.87 798.46 582.94 798.46C539.01 798.46 519.34 785.35 519.34 785.35" stroke="#96C3FF" stroke-width="2" stroke-miterlimit="10" stroke-linecap="round" stroke-linejoin="round"/>
<path d="M497.21 776.14C497.21 776.14 502.57 820.71 583.95 820.71C648.93 819.01 655.85 772.94 655.85 772.94" stroke="#96C3FF" stroke-width="2" stroke-miterlimit="10" stroke-linecap="round" stroke-linejoin="round"/>
<path d="M444.49 669.4C371.89 698.9 270.96 750.35 232.97 890.49" stroke="#96C3FF" stroke-width="2" stroke-miterlimit="10" stroke-linecap="round" stroke-linejoin="round"/>
<path d="M847.03 786.43C847.03 786.43 794.43 709.37 703.03 676.68" stroke="#96C3FF" stroke-width="2" stroke-miterlimit="10" stroke-linecap="round" stroke-linejoin="round"/>
<path d="M697.97 301.51C759.88 288.33 787.12 254.73 787.12 254.73H760.79C760.79 254.73 699.95 186.62 645.46 168.46C590.97 150.3 637.29 133.95 637.29 133.95C637.29 133.95 564.64 108.52 517.42 157.56C526.5 128.5 531.04 99.4399 531.04 99.4399C531.04 99.4399 477.46 117.6 441.14 178.44C428.43 198.42 428.43 198.42 428.43 198.42L398.46 149.38C398.46 149.38 378.48 178.44 351.24 222.03C324 265.62 336.71 267.44 327.63 317.38C318.55 367.32 335.8 395.88 382.12 427.01" stroke="#96C3FF" stroke-width="2" stroke-miterlimit="10" stroke-linecap="round" stroke-linejoin="round"/>
<path d="M450.25 654.93C406.87 684.79 372.13 730.2 387.76 815.3" stroke="#96C3FF" stroke-width="4" stroke-miterlimit="10" stroke-linecap="round" stroke-linejoin="round"/>
<path d="M393.44 860.74C402.945 860.74 410.65 853.035 410.65 843.53C410.65 834.025 402.945 826.32 393.44 826.32C383.935 826.32 376.23 834.025 376.23 843.53C376.23 853.035 383.935 860.74 393.44 860.74Z" stroke="#96C3FF" stroke-width="4" stroke-miterlimit="10" stroke-linecap="round" stroke-linejoin="round"/>
<path d="M393.44 871.76C409.031 871.76 421.67 859.121 421.67 843.53C421.67 827.939 409.031 815.3 393.44 815.3C377.849 815.3 365.21 827.939 365.21 843.53C365.21 859.121 377.849 871.76 393.44 871.76Z" stroke="#96C3FF" stroke-width="4" stroke-miterlimit="10" stroke-linecap="round" stroke-linejoin="round"/>
<path d="M691.72 665.59C691.72 665.59 708.74 668.44 708.74 756.94C708.74 845.44 663.07 980.55 663.07 980.55" stroke="#96C3FF" stroke-width="4" stroke-miterlimit="10" stroke-linecap="round" stroke-linejoin="round"/>
</svg>
