<svg width="1080" height="1080" viewBox="0 0 1080 1080" fill="none" xmlns="http://www.w3.org/2000/svg">
<path d="M139.59 578.41C249.97 537.37 255.68 524.93 260.12 508.64C264.56 492.35 256.31 465.94 251.87 432.32C247.43 398.7 253.14 384.53 268.36 368.04C283.58 351.55 295.43 316.45 305.58 308.41C315.73 300.37 366.48 276.69 378.74 272.89C391 269.08 399.46 272.47 393.54 285.58C413.84 278.81 417.65 284.73 418.49 293.19C419.34 301.65 410.45 307.99 410.45 307.99C410.45 307.99 411.72 316.45 410.45 325.33C409.18 334.21 392.69 341.82 392.69 341.82C392.69 341.82 396.07 352.82 392.69 360C389.31 367.19 357.8 390.45 336.19 422.8C314.58 455.15 323.36 490.55 335.41 532.41C347.46 574.28 329.1 598.24 287.2 625.03C248.5 649.77 144.65 696.84 144.65 696.84" stroke="#C3ADF7" stroke-width="2" stroke-miterlimit="10" stroke-linecap="round" stroke-linejoin="round"/>
<path d="M340.13 558.55C364.45 604.07 390.79 641.02 407.29 662.59C423.79 684.16 498 639.12 498 639.12C498 639.12 508.78 643.56 513.86 665.13C518.93 686.7 520.84 698.12 522.11 726.03" stroke="#C3ADF7" stroke-width="2" stroke-miterlimit="10" stroke-linecap="round" stroke-linejoin="round"/>
<path d="M410.95 313.73C422.23 308.69 452.32 307.99 470.72 330.82C489.12 353.66 508.15 379.67 547.48 391.08C586.81 402.49 613.45 427.24 613.45 427.24C613.45 427.24 617.89 399.33 634.83 398.06C651.77 396.79 674.98 420.26 669.91 462.76C664.84 505.26 635.02 515.41 635.02 515.41C635.02 515.41 631.21 562.99 657.86 612.47C684.51 661.95 740.96 681.62 740.96 681.62C740.96 681.62 805.35 706.04 890.03 746.01C910.03 755.45 926.58 772.05 940.41 793.19" stroke="#C3ADF7" stroke-width="2" stroke-miterlimit="10" stroke-linecap="round" stroke-linejoin="round"/>
<path d="M515.78 673.52C506.57 702.24 485.63 702.24 440.91 707C396.19 711.76 280.1 697.48 214.44 707" stroke="#C3ADF7" stroke-width="2" stroke-miterlimit="10" stroke-linecap="round" stroke-linejoin="round"/>
<path d="M188.75 871.61C266.78 892.54 335.21 898.25 339.06 955.35" stroke="#C3ADF7" stroke-width="2" stroke-miterlimit="10" stroke-linecap="round" stroke-linejoin="round"/>
<path d="M846.61 726.03C846.61 726.03 831.04 717.47 800.59 696.85C770.14 676.23 773.95 626.12 747.3 603.28C720.66 580.44 683.55 569.98 683.55 569.98C683.55 569.98 695.92 562.37 691.16 549.84C686.4 537.31 675.94 539.53 675.94 539.53C675.94 539.53 694.02 496.71 675.94 399.65C657.86 302.59 593.16 238.21 484.05 231.86C414.15 227.8 374.31 252.87 354.7 271.41" stroke="#C3ADF7" stroke-width="2" stroke-miterlimit="10" stroke-linecap="round" stroke-linejoin="round"/>
<path d="M683.55 569.97C657.86 585.83 647.44 589.5 647.44 589.5" stroke="#C3ADF7" stroke-width="2" stroke-miterlimit="10" stroke-linecap="round" stroke-linejoin="round"/>
<path d="M675.94 539.52C659.13 550.94 639.04 560.54 639.04 560.54" stroke="#C3ADF7" stroke-width="2" stroke-miterlimit="10" stroke-linecap="round" stroke-linejoin="round"/>
<path d="M515.78 700.33C497.05 730.78 472.31 773.6 498.95 811.66C525.59 849.72 608.59 858.29 657.49 811.66C706.39 765.03 738.74 696.84 738.74 696.84" stroke="#C3ADF7" stroke-width="2" stroke-miterlimit="10" stroke-linecap="round" stroke-linejoin="round"/>
<path d="M258.63 431.05C258.63 431.05 254.82 424.71 268.36 412.87C281.89 401.03 300.92 364.24 305.58 354.93C310.24 345.62 335.18 335.9 370.28 320.67C405.38 305.44 409.96 302.24 410.46 307.98" stroke="#C3ADF7" stroke-width="2" stroke-miterlimit="10" stroke-linecap="round" stroke-linejoin="round"/>
<path d="M284.01 441.2C284.01 441.2 302.19 413.29 308.12 401.45C314.04 389.61 321.23 388.34 330.11 380.3C338.99 372.26 362.67 354.08 371.98 344.78C381.28 335.48 391.43 335.42 392.7 341.82" stroke="#C3ADF7" stroke-width="2" stroke-miterlimit="10" stroke-linecap="round" stroke-linejoin="round"/>
<path d="M262.44 389.28C284.85 361.7 298.39 337.17 307.27 324.06C316.15 310.95 322.07 309.68 333.07 305.88C344.07 302.07 354.64 297.84 393.55 285.58" stroke="#C3ADF7" stroke-width="2" stroke-miterlimit="10" stroke-linecap="round" stroke-linejoin="round"/>
<path d="M639.58 240.47L673.71 200.48L682.95 212.43L639.58 240.47Z" stroke="#C3ADF7" stroke-width="2" stroke-miterlimit="10" stroke-linecap="round" stroke-linejoin="round"/>
<path d="M596.45 124.65L582.61 206.15L619.6 133.39L596.45 124.65Z" stroke="#C3ADF7" stroke-width="2" stroke-miterlimit="10" stroke-linecap="round" stroke-linejoin="round"/>
<path d="M500.05 151.59L520.98 203.97L522.48 148.8L500.05 151.59Z" stroke="#C3ADF7" stroke-width="2" stroke-miterlimit="10" stroke-linecap="round" stroke-linejoin="round"/>
</svg>
